<?xml version="1.0" encoding="UTF-8"?>
<svg id="Capa_2" data-name="Capa 2" xmlns="http://www.w3.org/2000/svg" viewBox="0 0 1346.42 265.29">
  <defs>
    <style>
      .cls-1 {
        fill: #1e1e1e;
        stroke-width: 0px;
      }
    </style>
  </defs>
  <g id="content">
    <g>
      <path class="cls-1" d="M221.38,260.37l5.08-206.14-56.98,206.14h-55.52L57.34,54.23l5.08,206.14H0V4.14h93.63l48.27,179.28L189.45,4.14h93.63v256.22h-61.69Z"/>
      <path class="cls-1" d="M734.54,260.37h-65.32L581.39,4.14h68.23l52.98,182.19L755.23,4.14h68.24l-88.92,256.22Z"/>
      <path class="cls-1" d="M1003.82,260.37l-51.17-91.46h-39.92v91.46h-64.61V4.14h115.41c7.26,0,14.52,0,21.77.37,11.62.72,52.26,3.26,72.22,39.92,3.63,6.9,10.16,21.78,10.16,42.83,0,28.67-11.25,43.91-19.96,52.26-3.63,3.63-7.98,6.89-11.98,9.43-4.72,2.54-10.16,5.08-20.69,9.07l59.15,102.35h-70.4ZM966.8,51.69h-54.44v69.68h52.98c2.54,0,9.8,0,17.06-2.54,20.69-6.9,21.41-26.49,21.41-33.03,0-33.39-25.77-34.12-37.02-34.12Z"/>
      <path class="cls-1" d="M1274.2,260.37l-68.23-116.14-39.56,41.01v75.12h-60.97V4.14h60.97v104.52l95.81-104.52h77.3l-90.73,95.09,97.63,161.14h-72.22Z"/>
      <path class="cls-1" d="M602.31,136.83c0,98.2-27.92,128.45-61.9,128.45-22.8,0-42.82-13.5-42.82-46.54v-91.22h-23.27c0,67.48-22.34,137.76-95.41,137.76-40.02,0-68.42-23.74-68.42-59.11,0-52.59,57.24-73.54,121.94-80.52-65.62-3.26-102.39-17.22-102.39-55.38C330.04,26.99,369.6,0,432.9,0c67.95,0,111.24,33.04,111.24,107.05v97.74c0,15.36,6.51,20.94,15.36,20.94,13.03,0,38.16-11.63,38.16-94.01,0-44.21-7.45-84.24-17.22-127.06h4.65c9.31,42.82,17.22,80.98,17.22,132.18ZM497.59,111.7c0-34.91-13.96-72.14-80.05-72.14-39.1,0-66.56,13.49-66.56,39.56,0,32.11,34.91,43.75,118.68,43.75h27.92v-11.17ZM469.66,127.52c-78.65,0-114.96,23.27-114.96,60.97,0,25.13,16.29,37.23,40.49,37.23,50.27,0,74.47-39.09,74.47-98.2Z"/>
    </g>
  </g>
</svg>