<svg width="209" height="62" viewBox="0 0 209 62" fill="none" xmlns="http://www.w3.org/2000/svg">
<g id="Group 3016">
<g id="Group">
<path id="Vector" d="M25.6207 28.771C25.4283 29.2329 25.0049 29.3098 24.6585 28.9634L0.218506 4.36947C-0.127888 4.02307 -0.0509113 3.5997 0.410947 3.40726L8.33952 0.212739C8.80138 0.0202984 9.45568 0.174251 9.80207 0.520645L28.6228 19.4953C28.9692 19.8417 29.0847 20.496 28.8922 20.9579L25.6207 28.771Z" fill="#D1D0D0"/>
<path id="Vector_2" d="M25.6208 61.063C25.4283 61.5248 25.0049 61.6018 24.6586 61.2554L0.218537 36.6615C-0.127857 36.3151 -0.0508808 35.8917 0.410978 35.6993L8.37804 32.5047C8.8399 32.3123 9.49419 32.4662 9.84059 32.8126L28.6613 51.7488C29.0077 52.0952 29.1232 52.7495 28.9307 53.2114L25.6208 61.063Z" fill="#D1D0D0"/>
<path id="Vector_3" d="M25.6208 44.8204C25.4283 45.2823 25.0049 45.3592 24.6586 45.0128L0.218537 20.4574C-0.127857 20.111 -0.0508808 19.6876 0.410978 19.4952L8.33955 16.3006C8.80141 16.1082 9.45571 16.2621 9.8021 16.6085L28.6228 35.5832C28.9692 35.9296 29.0847 36.5839 28.8923 37.0458L25.6208 44.8204Z" fill="#D1D0D0"/>
<path id="Vector_4" d="M25.6208 44.8203C25.4283 45.2822 24.8895 45.5131 24.4276 45.3207L0.449482 36.3529C-0.0123763 36.199 -0.0123763 35.8911 0.449482 35.6986L8.37805 32.5041C8.83991 32.3117 9.60968 32.2347 10.0715 32.3501L28.4304 36.0065C28.9308 36.122 29.1617 36.5454 28.9692 37.0072L25.6208 44.8203Z" fill="#D1D0D0"/>
<path id="Vector_5" d="M22.4647 45.4749L0.103088 36.1992L21.1177 44.1663L22.4647 45.4749Z" fill="#D1D0D0"/>
</g>
<g id="Group_2">
<g id="Group_3">
<path id="Vector_6" d="M38.5529 49.209L39.2072 48.8626C39.3996 49.2475 39.669 49.5554 40.0539 49.8248C40.4388 50.0942 40.8237 50.2867 41.247 50.4406C41.6704 50.5946 42.0938 50.6331 42.5171 50.6331C42.7481 50.6331 42.9405 50.6331 43.1714 50.5946C43.4024 50.5561 43.5948 50.5176 43.8642 50.4791C44.0952 50.4406 44.3261 50.3637 44.5185 50.2482C44.711 50.1327 44.9034 50.0173 45.0574 49.8633C45.2113 49.7094 45.3653 49.5554 45.4422 49.3245C45.5192 49.0936 45.5962 48.8626 45.5962 48.5932C45.5962 48.4393 45.5962 48.2853 45.5577 48.1698C45.5192 48.0544 45.4807 47.9004 45.4038 47.785C45.3268 47.6695 45.2498 47.5925 45.1343 47.477C45.0189 47.3616 44.9034 47.2846 44.8264 47.2461C44.711 47.1691 44.5955 47.1307 44.4031 47.0537C44.2106 46.9767 44.0952 46.9382 43.9412 46.8997C43.7873 46.8612 43.6333 46.8227 43.4409 46.7843C43.2099 46.7458 43.056 46.7073 42.9405 46.6688C42.825 46.6303 42.6326 46.5918 42.4017 46.5533C42.1323 46.5148 41.9398 46.4379 41.7859 46.4379C41.6319 46.3994 41.4395 46.3609 41.2085 46.3224C40.9776 46.2839 40.7852 46.2069 40.6312 46.1684C40.4773 46.13 40.3233 46.053 40.1309 45.976C39.9384 45.899 39.7845 45.8221 39.669 45.7451C39.5536 45.6681 39.4381 45.5526 39.3226 45.4372C39.2072 45.3217 39.0917 45.2062 39.0147 45.0523C38.9377 44.8983 38.8993 44.7829 38.8608 44.5904C38.8223 44.4365 38.7838 44.244 38.7838 44.0516C38.7838 44.0131 38.7838 44.0131 38.7838 43.9746C38.7838 43.5897 38.8608 43.2818 39.0147 42.9739C39.1687 42.666 39.3611 42.3966 39.6305 42.2042C39.8999 42.0117 40.1694 41.8578 40.5158 41.7038C40.8621 41.5499 41.1701 41.4729 41.5165 41.4344C41.8628 41.3959 42.1707 41.3574 42.5171 41.3574C42.902 41.3574 43.2484 41.3959 43.5178 41.4344C43.8257 41.4729 44.0952 41.5499 44.4416 41.6653C44.7879 41.7808 45.0574 41.9347 45.3268 42.1657C45.5962 42.3966 45.8656 42.666 46.0965 43.0124L45.4807 43.3588C45.3268 43.0894 45.1343 42.8585 44.9034 42.666C44.6725 42.4736 44.4416 42.3581 44.1721 42.2427C43.9027 42.1657 43.6333 42.0887 43.4024 42.0502C43.1714 42.0117 42.8635 42.0117 42.5556 42.0117C42.3247 42.0117 42.0553 42.0117 41.8244 42.0502C41.5934 42.0887 41.324 42.1657 41.0546 42.2427C40.7852 42.3196 40.5542 42.4736 40.3618 42.589C40.1694 42.743 39.9769 42.9354 39.8615 43.1664C39.746 43.3973 39.669 43.6667 39.669 43.9746C39.669 44.1286 39.7075 44.321 39.746 44.4365C39.7845 44.5904 39.8615 44.7059 39.9384 44.8214C40.0154 44.9368 40.1309 45.0138 40.2848 45.1293C40.4388 45.2062 40.5927 45.2832 40.7467 45.3602C40.9006 45.4372 41.0931 45.4757 41.324 45.5142C41.5549 45.5526 41.7474 45.6296 41.9398 45.6681C42.1323 45.7066 42.3247 45.7451 42.6326 45.8221C43.5948 46.0145 44.2876 46.1684 44.6725 46.3224C45.5192 46.6303 46.0581 47.0922 46.289 47.708C46.4045 47.9774 46.4429 48.2853 46.4429 48.5932C46.4429 49.0166 46.366 49.363 46.1735 49.7094C46.0196 50.0173 45.7886 50.2867 45.5577 50.4791C45.3268 50.6716 44.9804 50.8255 44.634 50.9795C44.2876 51.0949 43.9412 51.2104 43.6333 51.2489C43.2869 51.2874 42.979 51.3259 42.5941 51.3259C42.0553 51.3259 41.5549 51.2489 41.0546 51.1334C40.5542 50.9795 40.0924 50.7485 39.6305 50.4406C39.1302 50.0942 38.7838 49.6709 38.5529 49.209Z" fill="#D1D0D0"/>
<path id="Vector_7" d="M42.5171 51.5179C41.9782 51.5179 41.4394 51.4409 40.9391 51.287C40.4387 51.133 39.9384 50.9021 39.4765 50.5557C39.0147 50.2093 38.6298 49.7859 38.3988 49.2856L38.3219 49.1316L39.3226 48.6313L39.3995 48.7852C39.592 49.1316 39.8229 49.4395 40.2078 49.6705C40.5542 49.9399 40.9391 50.1323 41.3624 50.2478C41.9782 50.4402 42.5941 50.4402 43.1714 50.4017C43.3638 50.3633 43.5948 50.3248 43.8257 50.2863C44.0566 50.2478 44.2491 50.1708 44.4415 50.0554C44.6339 49.9784 44.7879 49.8629 44.9418 49.709C45.0958 49.5935 45.2113 49.4395 45.2882 49.2471C45.3652 49.0547 45.4037 48.8237 45.4037 48.5928C45.4037 48.4388 45.4037 48.3234 45.3652 48.2079C45.3267 48.0925 45.2882 47.977 45.2497 47.9C45.2113 47.823 45.1343 47.7461 45.0188 47.6306C44.9034 47.5536 44.8264 47.4766 44.7109 47.3997C44.6339 47.3227 44.5185 47.2842 44.326 47.2072C44.1721 47.1302 44.0181 47.0918 43.9027 47.0533C43.7872 47.0148 43.6332 46.9763 43.4023 46.9378L41.2085 46.4759C40.9776 46.4375 40.7851 46.3605 40.6312 46.322C40.4772 46.2835 40.3233 46.2065 40.1308 46.1296C39.9384 46.0526 39.7459 45.9756 39.6305 45.8601C39.515 45.7832 39.3995 45.6677 39.2456 45.5522C39.0916 45.4368 38.9762 45.2828 38.8992 45.1289C38.8222 44.9749 38.7452 44.821 38.7068 44.6285C38.6683 44.4361 38.6298 44.2436 38.6298 44.0512V43.9742C38.6298 43.5893 38.7068 43.2044 38.8607 42.8965C39.0147 42.5502 39.2456 42.2807 39.515 42.0498C39.7844 41.8574 40.0923 41.6649 40.4387 41.511C40.7851 41.357 41.1315 41.28 41.4779 41.2415C42.2092 41.1261 42.9789 41.1261 43.5563 41.2031C43.8642 41.2416 44.1721 41.3185 44.5185 41.434C44.8649 41.5495 45.1728 41.7419 45.4422 41.9728C45.7116 42.2038 45.981 42.5117 46.212 42.8581L46.3274 43.012L45.3652 43.5508L45.2497 43.3969C45.0958 43.1275 44.9034 42.935 44.7109 42.7811C44.5185 42.6271 44.2875 42.4732 44.0181 42.3962C43.7487 42.3192 43.5178 42.2422 43.2868 42.2422C43.0559 42.2038 42.7865 42.2038 42.4786 42.2038C42.2477 42.2038 42.0167 42.2038 41.7473 42.2422C41.5164 42.2807 41.247 42.3577 41.016 42.4347C40.7466 42.5117 40.5542 42.6271 40.3617 42.7811C40.1693 42.8965 40.0153 43.089 39.8999 43.2814C39.7844 43.4739 39.7074 43.7433 39.7074 43.9742C39.7074 44.1282 39.7459 44.2436 39.7844 44.3976C39.8229 44.513 39.8999 44.6285 39.9769 44.7055C40.0538 44.7825 40.1308 44.8594 40.2848 44.9364C40.4387 45.0134 40.5927 45.0904 40.7081 45.1673C40.8236 45.2058 41.016 45.2828 41.247 45.3213L42.5556 45.6292C43.5178 45.8216 44.2106 45.9756 44.6339 46.1296C45.5577 46.4375 46.135 46.9763 46.3659 47.6306C46.4814 47.9 46.5199 48.2464 46.5199 48.5928C46.5199 49.0547 46.4044 49.4395 46.2504 49.7859C46.058 50.1323 45.8271 50.4402 45.5577 50.6327C45.2882 50.8251 44.9803 51.0176 44.5954 51.133C44.2491 51.2485 43.9027 51.364 43.5563 51.4024C43.2484 51.5179 42.902 51.5179 42.5171 51.5179ZM38.8222 49.2856C39.0531 49.6705 39.3226 49.9784 39.7074 50.2478C40.1308 50.5557 40.5927 50.7866 41.0545 50.9021C41.8628 51.133 42.748 51.133 43.5178 51.056C43.8257 51.0176 44.1721 50.9406 44.48 50.8251C44.8264 50.7097 45.0958 50.5557 45.3267 50.3633C45.5577 50.1708 45.7501 49.9399 45.904 49.632C46.058 49.3241 46.135 48.9777 46.135 48.5928C46.135 48.2849 46.0965 48.0155 45.981 47.7845C45.7886 47.2072 45.2497 46.7839 44.48 46.5144C44.0951 46.3605 43.4023 46.2065 42.4786 46.0141L41.17 45.7062C40.9391 45.6677 40.7466 45.5907 40.5927 45.5137C40.4387 45.4368 40.2848 45.3598 40.1308 45.2828C39.9384 45.1673 39.8229 45.0519 39.7074 44.9364C39.6305 44.821 39.515 44.667 39.4765 44.513C39.3995 44.3591 39.361 44.1667 39.361 43.9742C39.361 43.6278 39.438 43.3584 39.592 43.089C39.7459 42.8196 39.9384 42.6271 40.1693 42.4732C40.4002 42.3192 40.6312 42.2038 40.9391 42.0883C41.2085 41.9728 41.4779 41.9343 41.7473 41.8959C42.0167 41.8574 42.2477 41.8574 42.5171 41.8574C42.825 41.8574 43.1329 41.8959 43.3638 41.8959C43.6332 41.9343 43.9027 42.0113 44.1721 42.0883C44.48 42.1653 44.7494 42.3192 44.9803 42.5117C45.1728 42.6656 45.3652 42.8581 45.5192 43.089L45.7886 42.935C45.5961 42.6656 45.4037 42.4732 45.1728 42.2807C44.9034 42.0498 44.6339 41.8958 44.3645 41.8189C44.0566 41.7034 43.7872 41.6264 43.4793 41.5879C42.9405 41.511 42.2092 41.511 41.5164 41.5879C41.2085 41.6264 40.9006 41.7419 40.5542 41.8574C40.2463 41.9728 39.9769 42.1268 39.7459 42.3192C39.515 42.5117 39.3226 42.7426 39.2071 43.012C39.0916 43.2814 39.0147 43.5893 39.0147 43.9357V44.0127C39.0147 44.2051 39.0531 44.3591 39.0916 44.513C39.1301 44.667 39.2071 44.821 39.2456 44.9364C39.2841 45.0519 39.3995 45.1673 39.515 45.2443C39.6305 45.3598 39.7459 45.4368 39.8614 45.5137C39.9769 45.5907 40.0923 45.6677 40.2848 45.7447C40.4772 45.8216 40.6312 45.8986 40.7851 45.9371C40.9006 45.9756 41.093 46.0141 41.324 46.0911L43.5178 46.5529C43.7487 46.5914 43.9027 46.6299 44.0566 46.7069C44.1721 46.7454 44.326 46.7839 44.5185 46.8608C44.7109 46.9378 44.8649 47.0148 44.9803 47.0918C45.0958 47.1687 45.2113 47.2457 45.3267 47.3612C45.4422 47.4766 45.5577 47.5921 45.6346 47.7076C45.7116 47.823 45.7501 47.977 45.7886 48.1309C45.8271 48.2849 45.8656 48.4388 45.8656 48.6313C45.8656 48.9392 45.8271 49.2086 45.7116 49.4395C45.5961 49.6705 45.4422 49.9014 45.2497 50.0554C45.0573 50.2093 44.8649 50.3248 44.6724 50.4402C44.4415 50.5557 44.2106 50.6327 43.9796 50.6712C43.7102 50.7097 43.4793 50.7481 43.2868 50.7866C42.6325 50.8636 41.9783 50.8251 41.324 50.6327C40.9006 50.5172 40.4772 50.2863 40.0538 50.0169C39.7074 49.7859 39.438 49.478 39.2456 49.1316L38.8222 49.2856Z" fill="#D1D0D0"/>
</g>
<g id="Group_4">
<path id="Vector_8" d="M58.6051 46.3214C58.6051 45.7826 58.6821 45.2822 58.7976 44.8204C58.913 44.32 59.1055 43.8967 59.3749 43.4733C59.6443 43.0499 59.9522 42.665 60.3371 42.3571C60.722 42.0492 61.1838 41.7798 61.7227 41.6259C62.2615 41.4334 62.8388 41.3564 63.4931 41.3564C64.1474 41.3564 64.7247 41.4334 65.2636 41.6259C65.8024 41.8183 66.2643 42.0492 66.6492 42.3571C67.034 42.665 67.3419 43.0499 67.6114 43.4733C67.8808 43.8967 68.0732 44.3585 68.1887 44.8589C68.3042 45.3207 68.3811 45.8211 68.3811 46.3214V46.3599C68.3811 46.8603 68.3042 47.3606 68.1887 47.861C68.0732 48.3613 67.8423 48.7847 67.6114 49.208C67.3804 49.6314 67.034 50.0163 66.6492 50.3242C66.2643 50.6321 65.8024 50.9015 65.2636 51.094C64.7247 51.2864 64.1474 51.3634 63.4931 51.3634C62.8388 51.3634 62.2615 51.2864 61.7227 51.094C61.1838 50.9015 60.722 50.6706 60.3371 50.3242C59.9522 50.0163 59.6443 49.6314 59.3749 49.208C59.1055 48.7847 58.913 48.3228 58.7976 47.8225C58.6821 47.3221 58.6051 46.8218 58.6051 46.3214ZM59.3364 46.3214C59.3364 46.8987 59.4134 47.3991 59.6058 47.9379C59.7983 48.4768 60.0292 48.9001 60.3756 49.3235C60.722 49.7469 61.1453 50.0548 61.6842 50.2857C62.223 50.5166 62.8388 50.6321 63.4931 50.6321C64.1474 50.6321 64.7632 50.5166 65.3021 50.2857C65.8409 50.0548 66.2643 49.7084 66.6107 49.3235C66.9571 48.9001 67.188 48.4383 67.3804 47.9379C67.5729 47.4376 67.6498 46.8987 67.6498 46.3214C67.6498 45.7441 67.5729 45.2053 67.3804 44.7049C67.188 44.2046 66.9571 43.7427 66.6107 43.3193C66.2643 42.9345 65.8409 42.5881 65.3021 42.3571C64.7632 42.1262 64.1474 42.0107 63.4931 42.0107C62.9543 42.0107 62.4539 42.0877 61.9921 42.2417C61.5302 42.3956 61.1453 42.5881 60.7989 42.8575C60.491 43.1269 60.1831 43.4348 59.9522 43.8197C59.7213 44.1661 59.5673 44.5895 59.4519 45.0128C59.3364 45.4362 59.2979 45.8596 59.2979 46.2829C59.3364 46.2829 59.3364 46.3214 59.3364 46.3214Z" fill="#D1D0D0"/>
<path id="Vector_9" d="M63.4932 51.5178C62.8389 51.5178 62.2231 51.4023 61.6842 51.2484C61.1069 51.0559 60.645 50.7865 60.2602 50.4401C59.8753 50.0937 59.5289 49.7088 59.2595 49.2855C58.99 48.8621 58.7591 48.3618 58.6437 47.8614C58.5282 47.3611 58.4512 46.8222 58.4512 46.3219C58.4512 45.7831 58.5282 45.2442 58.6437 44.7439C58.7591 44.2435 58.99 43.7817 59.2595 43.3198C59.5289 42.8964 59.8753 42.5116 60.2602 42.1652C60.645 41.8188 61.1454 41.5878 61.6842 41.3954C62.2231 41.203 62.8389 41.126 63.4932 41.126C64.1475 41.126 64.7633 41.203 65.3021 41.3954C65.8794 41.5878 66.3413 41.8573 66.7262 42.1652C67.1111 42.4731 67.4575 42.8964 67.7269 43.3198C67.9963 43.7817 68.2272 44.2435 68.3427 44.7439C68.4582 45.2442 68.5351 45.7446 68.5351 46.2449V46.2834C68.5351 46.8222 68.4582 47.3226 68.3427 47.8229C68.2272 48.3233 67.9963 48.7851 67.7269 49.247C67.4575 49.6704 67.1111 50.0937 66.7262 50.4016C66.3413 50.748 65.841 50.979 65.3021 51.1714C64.7633 51.4408 64.1475 51.5178 63.4932 51.5178ZM63.4932 41.5109C62.8774 41.5109 62.3 41.5878 61.7997 41.7803C61.2993 41.9342 60.8375 42.2036 60.4911 42.4731C60.1447 42.781 59.7983 43.1274 59.5674 43.5122C59.298 43.8971 59.1055 44.359 58.9901 44.8208C58.8746 45.2827 58.7976 45.7831 58.7976 46.2834C58.7976 46.7837 58.8746 47.2841 58.9901 47.7459C59.1055 48.2078 59.298 48.6697 59.5674 49.0545C59.8368 49.4779 60.1447 49.8243 60.4911 50.1322C60.8375 50.4401 61.2993 50.6711 61.7997 50.8635C62.8389 51.2099 64.1475 51.2099 65.1867 50.8635C65.687 50.6711 66.1489 50.4401 66.4953 50.1322C66.8416 49.8243 67.188 49.4779 67.419 49.0545C67.6884 48.6312 67.8808 48.2078 67.9963 47.7459C68.1118 47.2841 68.1887 46.7837 68.1887 46.2834V46.2449C68.1887 45.7446 68.1118 45.2827 67.9963 44.8208C67.8808 44.359 67.6884 43.8971 67.419 43.5122C67.1496 43.1274 66.8416 42.7425 66.4953 42.4346C66.1489 42.1267 65.687 41.8957 65.1867 41.7418C64.6863 41.5878 64.109 41.5109 63.4932 41.5109ZM63.4932 50.825C62.8004 50.825 62.1846 50.7095 61.6072 50.4401C61.0299 50.1707 60.5681 49.8243 60.2217 49.4009C59.8753 48.9776 59.6059 48.4772 59.4134 47.9769C59.221 47.438 59.144 46.8992 59.144 46.3219V46.2834C59.144 45.8215 59.1825 45.3982 59.298 44.9748C59.4134 44.5514 59.6059 44.1281 59.8368 43.7432C60.0677 43.3583 60.3756 43.0504 60.722 42.7425C61.0684 42.4731 61.4918 42.2421 61.9536 42.0882C62.4155 41.9342 62.9543 41.8573 63.5317 41.8573C64.2244 41.8573 64.8787 41.9727 65.4176 42.2421C65.9949 42.4731 66.4568 42.8195 66.8032 43.2428C67.1496 43.6662 67.419 44.1281 67.6114 44.6669C67.8039 45.2057 67.8808 45.7446 67.8808 46.3604C67.8808 46.9377 67.8039 47.515 67.6114 48.0154C67.419 48.5542 67.1496 49.0161 66.8032 49.4394C66.4568 49.8628 65.9949 50.2092 65.4176 50.4786C64.8403 50.7095 64.186 50.825 63.4932 50.825ZM59.5289 46.3219C59.5289 46.8607 59.6059 47.3611 59.7983 47.8614C59.9523 48.3618 60.2217 48.7851 60.5296 49.17C60.8375 49.5549 61.2609 49.8628 61.7612 50.0937C62.2615 50.3247 62.8389 50.4401 63.4932 50.4401C64.1475 50.4401 64.7248 50.3247 65.2251 50.0937C65.7255 49.8628 66.1489 49.5549 66.4568 49.17C66.7647 48.7851 67.0341 48.3233 67.188 47.8614C67.342 47.3611 67.4575 46.8607 67.4575 46.3219C67.4575 45.7831 67.3805 45.2442 67.188 44.7439C67.0341 44.2435 66.7647 43.8202 66.4568 43.4353C66.1489 43.0504 65.7255 42.7425 65.2251 42.5116C64.7248 42.2806 64.109 42.1652 63.4932 42.1652C62.9928 42.1652 62.4925 42.2421 62.0691 42.3961C61.6457 42.55 61.2609 42.7425 60.953 42.9734C60.645 43.2428 60.3756 43.5122 60.1832 43.8586C59.9523 44.205 59.7983 44.5899 59.7213 44.9748C59.6059 45.3597 59.5674 45.783 59.5674 46.2064V46.3219H59.5289Z" fill="#D1D0D0"/>
</g>
<g id="Group_5">
<path id="Vector_10" d="M81.2362 51.1717V41.4727H82.0059V50.4789H87.4712V51.1717H81.2362Z" fill="#D1D0D0"/>
<path id="Vector_11" d="M87.6638 51.3632H81.0823V41.2793H82.2369V50.2855H87.7023V51.3632H87.6638ZM81.4287 50.9783H87.2404V50.6704H81.7751V41.6642H81.3902V50.9783H81.4287Z" fill="#D1D0D0"/>
</g>
<g id="Group_6">
<path id="Vector_12" d="M99.4027 47.5153V41.4727H100.172V47.5153C100.172 48.0157 100.249 48.4775 100.442 48.8624C100.596 49.2858 100.827 49.5937 101.096 49.8631C101.366 50.094 101.673 50.2865 102.058 50.4404C102.405 50.5944 102.79 50.6329 103.136 50.6329C103.521 50.6329 103.867 50.5559 104.214 50.4404C104.56 50.2865 104.906 50.094 105.176 49.8631C105.445 49.5937 105.676 49.2858 105.83 48.8624C105.984 48.439 106.1 48.0157 106.1 47.5153V41.4727H106.869V47.5153C106.869 48.1311 106.754 48.67 106.561 49.1703C106.331 49.6706 106.061 50.0555 105.715 50.3634C105.368 50.6713 104.983 50.9023 104.522 51.0562C104.06 51.2102 103.636 51.3256 103.175 51.3256C102.713 51.3256 102.251 51.2487 101.827 51.0947C101.404 50.9408 100.981 50.7098 100.634 50.4019C100.288 50.094 100.018 49.7091 99.7875 49.2088C99.5566 48.7084 99.4027 48.1311 99.4027 47.5153Z" fill="#D1D0D0"/>
<path id="Vector_13" d="M103.097 51.5172C102.597 51.5172 102.135 51.4402 101.673 51.2477C101.212 51.0938 100.788 50.8244 100.403 50.5165C100.018 50.2086 99.749 49.7852 99.5181 49.2464C99.2872 48.746 99.1717 48.1302 99.1717 47.5144V41.2793H100.326V47.5144C100.326 47.9762 100.403 48.4381 100.557 48.7845C100.711 49.1694 100.942 49.4773 101.173 49.7082C101.442 49.9391 101.75 50.1316 102.058 50.2471C102.713 50.5165 103.444 50.5165 104.098 50.2471C104.445 50.1316 104.714 49.9391 104.983 49.7082C105.253 49.4773 105.445 49.1694 105.599 48.7845C105.753 48.3996 105.83 47.9762 105.83 47.5144V41.2793H106.985V47.5144C106.985 48.1687 106.869 48.746 106.638 49.2464C106.407 49.7467 106.1 50.2086 105.753 50.5165C105.368 50.8244 104.983 51.0938 104.483 51.2477C104.06 51.4017 103.598 51.5172 103.097 51.5172ZM99.5951 41.6642V47.5144C99.5951 48.0917 99.7105 48.6305 99.903 49.0924C100.095 49.5543 100.365 49.9391 100.711 50.2086C101.058 50.478 101.442 50.7089 101.866 50.8629C102.713 51.1708 103.636 51.1708 104.445 50.8629C104.868 50.7089 105.253 50.478 105.599 50.2086C105.946 49.9391 106.177 49.5543 106.407 49.0924C106.6 48.6305 106.715 48.0917 106.715 47.5144V41.6642H106.331V47.5144C106.331 48.0532 106.254 48.5151 106.061 48.9384C105.869 49.3618 105.638 49.7082 105.33 49.9776C105.022 50.247 104.676 50.4395 104.329 50.5934C103.559 50.8629 102.751 50.8629 102.02 50.5934C101.635 50.4395 101.289 50.247 101.019 49.9776C100.711 49.7082 100.48 49.3618 100.288 48.9384C100.095 48.5151 100.018 48.0147 100.018 47.5144V41.6642H99.5951Z" fill="#D1D0D0"/>
</g>
<g id="Group_7">
<path id="Vector_14" d="M119.186 42.127V41.4727H126.922V42.127H123.419V51.1717H122.65V42.127H119.186Z" fill="#D1D0D0"/>
<path id="Vector_15" d="M123.612 51.3632H122.457V42.3185H118.955V41.2793H127.076V42.3185H123.573V51.3632H123.612ZM122.88 50.9783H123.265V41.9336H126.768V41.6642H119.417V41.9336H122.919V50.9783H122.88Z" fill="#D1D0D0"/>
</g>
<g id="Group_8">
<path id="Vector_16" d="M139.43 51.1717V41.4727H140.2V51.1717H139.43Z" fill="#D1D0D0"/>
<path id="Vector_17" d="M140.393 51.3632H139.238V41.2793H140.393V51.3632ZM139.623 50.9783H140.008V41.6642H139.623V50.9783Z" fill="#D1D0D0"/>
</g>
<g id="Group_9">
<path id="Vector_18" d="M153.286 46.3214C153.286 45.7826 153.363 45.2822 153.479 44.8204C153.594 44.32 153.787 43.8967 154.056 43.4733C154.325 43.0499 154.633 42.665 155.018 42.3571C155.403 42.0492 155.865 41.7798 156.404 41.6259C156.943 41.4334 157.52 41.3564 158.174 41.3564C158.828 41.3564 159.406 41.4334 159.945 41.6259C160.483 41.8183 160.945 42.0492 161.33 42.3571C161.715 42.665 162.023 43.0499 162.292 43.4733C162.562 43.8967 162.754 44.3585 162.87 44.8589C162.985 45.3207 163.062 45.8211 163.062 46.3214V46.3599C163.062 46.8603 162.985 47.3606 162.87 47.861C162.754 48.3613 162.562 48.7847 162.292 49.208C162.023 49.6314 161.715 50.0163 161.33 50.3242C160.945 50.6321 160.483 50.9015 159.945 51.094C159.406 51.2864 158.828 51.3634 158.174 51.3634C157.558 51.3634 156.943 51.2864 156.404 51.094C155.865 50.9015 155.403 50.6706 155.018 50.3242C154.633 50.0163 154.325 49.6314 154.056 49.208C153.787 48.7847 153.594 48.3228 153.479 47.8225C153.325 47.3221 153.286 46.8218 153.286 46.3214ZM153.979 46.3214C153.979 46.8987 154.056 47.3991 154.248 47.9379C154.441 48.4768 154.672 48.9001 155.018 49.3235C155.365 49.7469 155.788 50.0548 156.327 50.2857C156.866 50.5166 157.481 50.6321 158.136 50.6321C158.79 50.6321 159.406 50.5166 159.945 50.2857C160.483 50.0548 160.907 49.7084 161.253 49.3235C161.6 48.9001 161.831 48.4383 162.023 47.9379C162.215 47.4376 162.292 46.8987 162.292 46.3214C162.292 45.7441 162.215 45.2053 162.023 44.7049C161.831 44.2046 161.6 43.7427 161.253 43.3193C160.907 42.9345 160.483 42.5881 159.945 42.3571C159.406 42.1262 158.79 42.0107 158.136 42.0107C157.597 42.0107 157.097 42.0877 156.635 42.2417C156.173 42.3956 155.788 42.5881 155.442 42.8575C155.134 43.1269 154.826 43.4348 154.595 43.8197C154.364 44.1661 154.21 44.5895 154.094 45.0128C153.979 45.4362 153.94 45.8596 153.94 46.2829C153.979 46.2829 153.979 46.3214 153.979 46.3214Z" fill="#D1D0D0"/>
<path id="Vector_19" d="M158.174 51.5178C157.52 51.5178 156.904 51.4023 156.365 51.2484C155.788 51.0559 155.326 50.7865 154.941 50.4401C154.556 50.0937 154.21 49.7088 153.941 49.2855C153.671 48.8621 153.44 48.3618 153.325 47.8614C153.209 47.3611 153.132 46.8222 153.132 46.3219C153.132 45.7831 153.209 45.2442 153.325 44.7439C153.44 44.2435 153.671 43.7817 153.941 43.3198C154.21 42.8964 154.556 42.5116 154.941 42.1652C155.326 41.8188 155.826 41.5878 156.365 41.3954C156.904 41.203 157.52 41.126 158.174 41.126C158.829 41.126 159.444 41.203 159.983 41.3954C160.56 41.5878 161.022 41.8573 161.407 42.1652C161.792 42.4731 162.139 42.8964 162.408 43.3198C162.677 43.7817 162.908 44.2435 163.024 44.7439C163.139 45.2442 163.216 45.7446 163.216 46.2449V46.2834C163.216 46.8222 163.139 47.3226 163.024 47.8229C162.908 48.3233 162.677 48.7851 162.408 49.247C162.139 49.6704 161.792 50.0937 161.407 50.4016C161.022 50.748 160.522 50.979 159.983 51.1714C159.406 51.4408 158.829 51.5178 158.174 51.5178ZM158.174 41.5109C157.558 41.5109 156.981 41.5878 156.481 41.7803C155.98 41.9342 155.519 42.2036 155.172 42.4731C154.826 42.781 154.479 43.1274 154.248 43.5122C153.979 43.8971 153.787 44.359 153.671 44.8208C153.556 45.2827 153.479 45.7831 153.479 46.2834C153.479 46.7837 153.556 47.2841 153.671 47.7459C153.787 48.2078 153.979 48.6697 154.248 49.0545C154.518 49.4779 154.826 49.8243 155.172 50.1322C155.519 50.4401 155.98 50.6711 156.481 50.8635C156.981 51.0559 157.558 51.1329 158.174 51.1329C158.79 51.1329 159.367 51.0559 159.868 50.8635C160.368 50.6711 160.83 50.4401 161.176 50.1322C161.523 49.8243 161.869 49.4779 162.1 49.0545C162.369 48.6312 162.562 48.2078 162.677 47.7459C162.793 47.2841 162.87 46.7837 162.87 46.2834V46.2449C162.87 45.7446 162.793 45.2827 162.677 44.8208C162.562 44.359 162.369 43.8971 162.1 43.5122C161.831 43.1274 161.523 42.7425 161.176 42.4346C160.83 42.1267 160.368 41.8957 159.868 41.7418C159.329 41.5878 158.79 41.5109 158.174 41.5109ZM158.174 50.825C157.481 50.825 156.866 50.7095 156.288 50.4401C155.711 50.1707 155.249 49.8243 154.903 49.4009C154.556 48.9776 154.287 48.4772 154.094 47.9769C153.902 47.438 153.825 46.8992 153.825 46.3219V46.2834C153.825 45.8215 153.864 45.3982 153.979 44.9748C154.094 44.5514 154.287 44.1281 154.518 43.7432C154.749 43.3583 155.057 43.0504 155.403 42.7425C155.749 42.4731 156.173 42.2421 156.635 42.0882C157.097 41.9342 157.635 41.8573 158.213 41.8573C158.905 41.8573 159.56 41.9727 160.099 42.2421C160.676 42.4731 161.138 42.8195 161.484 43.2428C161.831 43.6662 162.1 44.1281 162.292 44.6669C162.485 45.2057 162.562 45.7446 162.562 46.3604C162.562 46.9377 162.485 47.515 162.292 48.0154C162.1 48.5542 161.831 49.0161 161.484 49.4394C161.138 49.8628 160.676 50.2092 160.099 50.4786C159.483 50.7095 158.867 50.825 158.174 50.825ZM154.171 46.3219C154.171 46.8607 154.248 47.3611 154.441 47.8614C154.595 48.3618 154.864 48.7851 155.172 49.17C155.48 49.5549 155.903 49.8628 156.404 50.0937C156.904 50.3247 157.481 50.4401 158.136 50.4401C158.79 50.4401 159.367 50.3247 159.868 50.0937C160.368 49.8628 160.791 49.5549 161.099 49.17C161.407 48.7851 161.677 48.3233 161.831 47.8614C161.985 47.3611 162.1 46.8607 162.1 46.3219C162.1 45.7831 162.023 45.2442 161.831 44.7439C161.677 44.2435 161.407 43.8202 161.099 43.4353C160.791 43.0504 160.368 42.7425 159.868 42.5116C159.367 42.2806 158.752 42.1652 158.136 42.1652C157.635 42.1652 157.135 42.2421 156.712 42.3961C156.288 42.55 155.903 42.7425 155.596 42.9734C155.288 43.2428 155.018 43.5122 154.826 43.8586C154.595 44.205 154.441 44.5899 154.364 44.9748C154.248 45.3597 154.21 45.783 154.21 46.2064V46.3219H154.171Z" fill="#D1D0D0"/>
</g>
<g id="Group_10">
<path id="Vector_20" d="M175.917 51.1717V41.4727H176.225L182.768 49.4782V41.4727H183.499V51.1717H183.23L176.687 43.1661V51.1717H175.917Z" fill="#D1D0D0"/>
<path id="Vector_21" d="M183.692 51.3632H183.114L183.038 51.2862L176.841 43.7041V51.3632H175.686V41.2793H176.302L182.537 48.9384V41.2793H183.653V51.3632H183.692ZM183.307 50.9783V41.6642H182.961V50.0546L176.148 41.6642H176.11V50.9783H176.495V42.6264L183.307 50.9783Z" fill="#D1D0D0"/>
</g>
<g id="Group_11">
<path id="Vector_22" d="M196.278 49.209L196.932 48.8626C197.124 49.2475 197.394 49.5554 197.779 49.8248C198.163 50.0942 198.548 50.2867 198.972 50.4406C199.395 50.5946 199.818 50.6331 200.242 50.6331C200.473 50.6331 200.665 50.6331 200.896 50.5946C201.127 50.5561 201.319 50.5176 201.589 50.4791C201.82 50.4406 202.051 50.3637 202.243 50.2482C202.436 50.1327 202.628 50.0173 202.782 49.8633C202.936 49.7094 203.09 49.5554 203.167 49.3245C203.244 49.0936 203.321 48.8626 203.321 48.5932C203.321 48.4393 203.282 48.2853 203.244 48.1698C203.205 48.0544 203.167 47.9004 203.09 47.785C203.013 47.6695 202.936 47.5925 202.821 47.477C202.705 47.3616 202.59 47.2846 202.513 47.2461C202.397 47.1691 202.282 47.1307 202.089 47.0537C201.897 46.9767 201.781 46.9382 201.627 46.8997C201.473 46.8612 201.319 46.8227 201.127 46.7843C200.896 46.7458 200.742 46.7073 200.627 46.6688C200.511 46.6303 200.319 46.5918 200.088 46.5533C199.818 46.5148 199.626 46.4379 199.472 46.4379C199.318 46.3994 199.126 46.3609 198.895 46.3224C198.664 46.2839 198.471 46.2069 198.317 46.1684C198.163 46.13 198.01 46.053 197.817 45.976C197.625 45.899 197.471 45.8221 197.355 45.7451C197.24 45.6681 197.124 45.5526 197.009 45.4372C196.893 45.3217 196.778 45.2062 196.701 45.0523C196.624 44.8983 196.585 44.7829 196.547 44.5904C196.508 44.4365 196.47 44.244 196.47 44.0516C196.47 44.0131 196.47 44.0131 196.47 43.9746C196.47 43.5897 196.547 43.2818 196.701 42.9739C196.855 42.666 197.047 42.3966 197.317 42.2042C197.586 42.0117 197.856 41.8578 198.202 41.7038C198.548 41.5499 198.856 41.4729 199.203 41.4344C199.549 41.3959 199.857 41.3574 200.203 41.3574C200.588 41.3574 200.935 41.3959 201.204 41.4344C201.512 41.4729 201.781 41.5499 202.128 41.6653C202.474 41.7808 202.744 41.9347 203.013 42.1657C203.282 42.3966 203.552 42.666 203.783 43.0124L203.167 43.3588C203.013 43.0894 202.821 42.8585 202.59 42.666C202.359 42.4736 202.128 42.3581 201.858 42.2427C201.589 42.1657 201.319 42.0887 201.089 42.0502C200.858 42.0117 200.55 42.0117 200.242 42.0117C200.011 42.0117 199.741 42.0117 199.511 42.0502C199.28 42.0887 199.01 42.1657 198.741 42.2427C198.471 42.3196 198.24 42.4736 198.048 42.589C197.856 42.743 197.663 42.9354 197.548 43.1664C197.432 43.3973 197.355 43.6667 197.355 43.9746C197.355 44.1286 197.394 44.321 197.432 44.4365C197.471 44.5904 197.548 44.7059 197.625 44.8214C197.702 44.9368 197.817 45.0138 197.971 45.1293C198.125 45.2062 198.279 45.2832 198.433 45.3602C198.587 45.4372 198.779 45.4757 199.01 45.5142C199.241 45.5526 199.434 45.6296 199.626 45.6681C199.818 45.7066 200.011 45.7451 200.319 45.8221C201.281 46.0145 201.974 46.1684 202.359 46.3224C203.205 46.6303 203.744 47.0922 203.975 47.708C204.091 47.9774 204.129 48.2853 204.129 48.5932C204.129 49.0166 204.052 49.363 203.86 49.7094C203.706 50.0173 203.475 50.2867 203.244 50.4791C203.013 50.6716 202.667 50.8255 202.32 50.9795C201.974 51.0949 201.627 51.2104 201.319 51.2489C200.973 51.2874 200.665 51.3259 200.28 51.3259C199.741 51.3259 199.241 51.2489 198.741 51.1334C198.24 50.9795 197.779 50.7485 197.317 50.4406C196.855 50.0942 196.508 49.6709 196.278 49.209Z" fill="#D1D0D0"/>
<path id="Vector_23" d="M200.242 51.5179C199.703 51.5179 199.164 51.4409 198.664 51.287C198.163 51.133 197.663 50.9021 197.201 50.5557C196.739 50.2093 196.355 49.7859 196.124 49.2856L196.047 49.1316L197.047 48.6313L197.124 48.7852C197.317 49.1316 197.548 49.4395 197.933 49.6705C198.279 49.9399 198.664 50.1323 199.087 50.2478C199.703 50.4402 200.319 50.4402 200.896 50.4017C201.089 50.3633 201.319 50.3248 201.55 50.2863C201.781 50.2478 201.974 50.1708 202.166 50.0554C202.359 49.9784 202.513 49.8629 202.667 49.709C202.821 49.5935 202.936 49.4395 203.013 49.2471C203.09 49.0547 203.128 48.8237 203.128 48.5928C203.128 48.4388 203.128 48.3234 203.09 48.2079C203.051 48.0925 203.013 47.977 202.974 47.9C202.936 47.823 202.859 47.7461 202.744 47.6306C202.628 47.5536 202.551 47.4766 202.436 47.3997C202.359 47.3227 202.243 47.2842 202.051 47.2072C201.897 47.1302 201.743 47.0918 201.627 47.0533C201.512 47.0148 201.358 46.9763 201.127 46.9378L198.933 46.4759C198.702 46.4375 198.51 46.3605 198.356 46.322C198.202 46.2835 198.048 46.2065 197.856 46.1296C197.663 46.0526 197.471 45.9756 197.355 45.8601C197.24 45.7832 197.124 45.6677 196.97 45.5522C196.816 45.4368 196.701 45.2828 196.624 45.1289C196.547 44.9749 196.47 44.821 196.431 44.6285C196.393 44.4361 196.355 44.2436 196.355 44.0512V43.9742C196.355 43.5893 196.432 43.2044 196.585 42.8965C196.739 42.5502 196.97 42.2807 197.24 42.0498C197.509 41.8574 197.817 41.6649 198.163 41.511C198.51 41.357 198.856 41.28 199.203 41.2415C199.934 41.1261 200.704 41.1261 201.281 41.2031C201.589 41.2416 201.897 41.3185 202.243 41.434C202.59 41.5495 202.898 41.7419 203.167 41.9728C203.436 42.2038 203.706 42.5117 203.937 42.8581L204.052 43.012L203.09 43.5508L202.974 43.3969C202.821 43.1275 202.628 42.935 202.436 42.7811C202.243 42.6271 202.012 42.4732 201.743 42.3962C201.473 42.3192 201.243 42.2422 201.012 42.2422C200.781 42.2038 200.511 42.2038 200.203 42.2038C199.972 42.2038 199.741 42.2038 199.472 42.2422C199.241 42.2807 198.972 42.3577 198.741 42.4347C198.471 42.5117 198.279 42.6271 198.086 42.7811C197.894 42.8965 197.74 43.089 197.625 43.2814C197.509 43.4739 197.432 43.7433 197.432 43.9742C197.432 44.1282 197.471 44.2436 197.509 44.3976C197.548 44.513 197.625 44.6285 197.702 44.7055C197.779 44.7825 197.856 44.8594 198.01 44.9364C198.163 45.0134 198.317 45.0904 198.433 45.1673C198.548 45.2058 198.741 45.2828 198.972 45.3213L200.28 45.6292C201.243 45.8216 201.935 45.9756 202.359 46.1296C203.244 46.4375 203.86 46.9763 204.091 47.6306C204.206 47.9 204.245 48.2464 204.245 48.5928C204.245 49.0547 204.129 49.4395 203.975 49.7859C203.783 50.1323 203.552 50.4402 203.282 50.6327C203.013 50.8251 202.705 51.0176 202.32 51.133C201.974 51.2485 201.627 51.364 201.281 51.4024C200.973 51.5179 200.627 51.5179 200.242 51.5179ZM196.547 49.2856C196.778 49.6705 197.047 49.9784 197.432 50.2478C197.856 50.5557 198.317 50.7866 198.779 50.9021C199.588 51.133 200.473 51.133 201.243 51.056C201.55 51.0176 201.897 50.9406 202.205 50.8251C202.551 50.7097 202.821 50.5557 203.051 50.3633C203.282 50.1708 203.475 49.9399 203.629 49.632C203.783 49.3241 203.86 48.9777 203.86 48.5928C203.86 48.2849 203.821 48.0155 203.706 47.7845C203.513 47.2072 202.974 46.7839 202.205 46.5144C201.82 46.3605 201.127 46.2065 200.203 46.0141L198.895 45.7062C198.664 45.6677 198.471 45.5907 198.317 45.5137C198.163 45.4368 198.01 45.3598 197.856 45.2828C197.663 45.1673 197.548 45.0519 197.432 44.9364C197.355 44.821 197.24 44.667 197.201 44.513C197.124 44.3591 197.086 44.1667 197.086 43.9742C197.086 43.6278 197.163 43.3584 197.317 43.089C197.471 42.8196 197.663 42.6271 197.894 42.4732C198.125 42.3192 198.356 42.2038 198.664 42.0883C198.933 41.9728 199.203 41.9343 199.472 41.8959C199.741 41.8574 199.972 41.8574 200.242 41.8574C200.55 41.8574 200.858 41.8959 201.089 41.8959C201.358 41.9343 201.627 42.0113 201.897 42.0883C202.205 42.1653 202.474 42.3192 202.705 42.5117C202.898 42.6656 203.09 42.8581 203.244 43.089L203.513 42.935C203.321 42.6656 203.128 42.4732 202.898 42.2807C202.628 42.0498 202.359 41.8958 202.089 41.8189C201.781 41.7034 201.512 41.6264 201.204 41.5879C200.665 41.511 199.934 41.511 199.241 41.5879C198.933 41.6264 198.587 41.7419 198.279 41.8574C197.971 41.9728 197.702 42.1268 197.471 42.3192C197.24 42.5117 197.047 42.7426 196.932 43.012C196.816 43.2814 196.739 43.5893 196.739 43.9357V44.0127C196.739 44.2051 196.778 44.3591 196.816 44.513C196.855 44.667 196.932 44.821 196.97 44.9364C197.009 45.0519 197.124 45.1673 197.24 45.2443C197.355 45.3598 197.471 45.4368 197.586 45.5137C197.702 45.5907 197.817 45.6677 198.01 45.7447C198.202 45.8216 198.356 45.8986 198.51 45.9371C198.625 45.9756 198.818 46.0141 199.049 46.0911L201.243 46.5529C201.473 46.5914 201.627 46.6299 201.781 46.7069C201.897 46.7454 202.051 46.7839 202.243 46.8608C202.436 46.9378 202.59 47.0148 202.705 47.0918C202.821 47.1687 202.936 47.2457 203.051 47.3612C203.167 47.4766 203.282 47.5921 203.359 47.7076C203.436 47.823 203.475 47.977 203.513 48.1309C203.552 48.2849 203.59 48.4388 203.59 48.6313C203.59 48.9392 203.552 49.2086 203.436 49.4395C203.321 49.6705 203.167 49.9014 202.974 50.0554C202.782 50.2093 202.59 50.3248 202.397 50.4402C202.166 50.5557 201.935 50.6327 201.704 50.6712C201.435 50.7097 201.204 50.7481 201.012 50.7866C200.357 50.8636 199.703 50.8251 199.049 50.6327C198.625 50.5172 198.202 50.2863 197.779 50.0169C197.432 49.7859 197.163 49.478 196.97 49.1316L196.547 49.2856Z" fill="#D1D0D0"/>
</g>
</g>
<g id="Group_12">
<path id="Vector_24" d="M58.7206 17.0705H55.2952C55.2182 15.3385 54.6024 13.9915 53.4477 13.0293C52.2931 12.0671 50.7536 11.6052 48.8292 11.6052C46.9432 11.6052 45.4422 11.9901 44.3645 12.7598C43.2869 13.5296 42.748 14.6073 42.748 15.9544C42.748 17.8788 45.0573 19.3798 49.6759 20.419C50.2532 20.5345 50.7151 20.6499 51.023 20.6884C54.4099 21.4582 56.6807 22.4204 57.7969 23.4596C58.9131 24.5372 59.4904 26.0383 59.4904 28.0012C59.4904 30.5414 58.5667 32.5428 56.6807 34.0438C54.8718 35.5449 52.3316 36.3146 49.1371 36.3146C45.8656 36.3146 43.3253 35.5064 41.4779 33.8899C39.6305 32.2734 38.6683 29.9641 38.5143 26.9235H41.9398C41.9783 28.8479 42.6326 30.3874 43.9412 31.5036C45.2497 32.6198 47.0202 33.1971 49.2525 33.1971C51.2924 33.1971 52.9089 32.7737 54.1405 31.8885C55.3337 31.0033 55.9495 29.8486 55.9495 28.3476C55.9495 26.3847 53.7172 24.9221 49.291 23.9214C48.5212 23.729 47.9439 23.6135 47.559 23.498C44.403 22.7668 42.2477 21.8431 41.093 20.8039C39.9384 19.7647 39.3611 18.3021 39.3611 16.4162C39.3611 14.0684 40.2463 12.1825 42.0167 10.7585C43.7872 9.33439 46.135 8.6416 49.0601 8.6416C52.0237 8.6416 54.3715 9.37288 56.1034 10.8739C57.8354 12.375 58.7206 14.4533 58.7206 17.0705Z" fill="#D1D0D0"/>
<path id="Vector_25" d="M75.4244 8.6416C79.3118 8.6416 82.3523 9.87322 84.5462 12.298C86.74 14.7612 87.8561 18.1482 87.8561 22.4589C87.8561 26.7696 86.74 30.195 84.5462 32.6198C82.3523 35.083 79.3118 36.2761 75.4244 36.2761C71.5371 36.2761 68.4966 35.0445 66.3027 32.6198C64.1089 30.1565 62.9928 26.7696 62.9928 22.4589C62.9928 18.1482 64.1089 14.7227 66.3027 12.298C68.4966 9.87322 71.5371 8.6416 75.4244 8.6416ZM75.4244 11.7591C72.6918 11.7591 70.5364 12.7214 68.9969 14.6073C67.4574 16.4932 66.6876 19.1489 66.6876 22.4974C66.6876 25.8458 67.4574 28.5015 68.9969 30.4259C70.5364 32.3503 72.6918 33.2741 75.4244 33.2741C78.1571 33.2741 80.274 32.3119 81.8135 30.4259C83.353 28.5015 84.1228 25.8843 84.1228 22.4974C84.1228 19.1104 83.353 16.4932 81.8135 14.6073C80.274 12.7214 78.1571 11.7591 75.4244 11.7591Z" fill="#D1D0D0"/>
<path id="Vector_26" d="M92.5902 9.33398H111.065V12.644H96.2081V20.5341H109.179V23.7286H96.2081V35.6214H92.5902V9.33398Z" fill="#D1D0D0"/>
<path id="Vector_27" d="M112.989 9.33398H134.581V12.5285H125.575V35.6214H121.995V12.5285H112.989V9.33398Z" fill="#D1D0D0"/>
<path id="Vector_28" d="M138.045 9.33398H149.129C149.476 9.33398 149.822 9.33398 150.169 9.37247C150.515 9.37247 150.707 9.41096 150.746 9.41096C153.325 9.41096 155.326 10.0268 156.789 11.2969C158.251 12.5285 158.982 14.2605 158.982 16.4543C158.982 17.9938 158.675 19.2639 158.059 20.2646C157.443 21.2653 156.442 22.0736 155.095 22.6894C156.173 22.9973 156.943 23.4592 157.404 24.1135C157.866 24.7678 158.174 25.9224 158.29 27.5774L158.598 31.8881C158.675 32.7733 158.79 33.4276 158.982 33.928C159.175 34.4283 159.483 34.7362 159.906 34.9286V35.6984H155.711C155.365 35.1211 155.095 33.9664 154.98 32.196V32.0805L154.749 28.6551C154.633 26.8846 154.171 25.73 153.479 25.2296C152.747 24.7293 151.246 24.4599 148.898 24.4599H148.167H141.624V35.7369H138.045V9.33398ZM141.624 12.4515V21.3038H148.475C150.9 21.3038 152.632 20.9574 153.671 20.2261C154.71 19.4949 155.211 18.3017 155.211 16.6852C155.211 15.2227 154.749 14.145 153.787 13.4522C152.824 12.7594 151.285 12.4515 149.168 12.4515H148.437H141.624Z" fill="#D1D0D0"/>
<path id="Vector_29" d="M171.568 9.33398H175.571L185.847 35.6214H181.921L179.035 27.7698H167.989L164.987 35.6214H161.253L171.568 9.33398ZM173.531 12.8749L169.066 24.7293H177.919L173.531 12.8749Z" fill="#D1D0D0"/>
<path id="Vector_30" d="M183.499 9.33398H187.771L195.854 22.0351L203.86 9.33398H208.055L197.701 24.8832V35.6214H194.084V25.1526L183.499 9.33398Z" fill="#D1D0D0"/>
</g>
</g>
</svg>
