<svg width="186" height="40" viewBox="0 0 186 40" fill="none" xmlns="http://www.w3.org/2000/svg">
<g id="Group 3018">
<g id="Group">
<path id="Vector" d="M120.397 34.5631H103.746V21.9179V17.4785V4.82677H120.397C121.024 4.82677 121.568 4.60674 122.015 4.16021C122.461 3.71368 122.681 3.16361 122.681 2.49705C122.681 1.90815 122.461 1.39043 122.015 0.943903C121.568 0.497373 121.031 0.277344 120.397 0.277344H101.461C100.827 0.277344 100.29 0.497373 99.8433 0.943903C99.3968 1.39043 99.1768 1.90815 99.1768 2.49705V36.8928C99.1768 37.4817 99.3968 37.9994 99.8433 38.4459C100.29 38.8925 100.827 39.1125 101.461 39.1125H120.397C121.024 39.1125 121.568 38.8925 122.015 38.4459C122.461 37.9994 122.681 37.4817 122.681 36.8928C122.681 36.2262 122.461 35.6697 122.015 35.2296C121.568 34.7831 121.031 34.5631 120.397 34.5631Z" fill="#D1D0D0"/>
<path id="Vector_2" d="M113.802 21.9111C114.43 21.9111 114.961 21.6975 115.388 21.2704C115.815 20.8433 116.028 20.3191 116.028 19.6914C116.028 19.0637 115.815 18.533 115.388 18.1124C114.961 17.6852 114.43 17.4717 113.802 17.4717H106.412V21.9111H113.802Z" fill="#D1D0D0"/>
</g>
<g id="Group_2">
<path id="Vector_3" d="M183.396 34.5631H166.745V21.9179V17.4785V4.82677H183.396C184.024 4.82677 184.568 4.60674 185.014 4.16021C185.461 3.71368 185.681 3.16361 185.681 2.49705C185.681 1.90815 185.461 1.39043 185.014 0.943903C184.568 0.497373 184.03 0.277344 183.396 0.277344H164.461C163.827 0.277344 163.289 0.497373 162.843 0.943903C162.396 1.39043 162.176 1.90815 162.176 2.49705V36.8928C162.176 37.4817 162.396 37.9994 162.843 38.4459C163.289 38.8925 163.827 39.1125 164.461 39.1125H183.396C184.024 39.1125 184.568 38.8925 185.014 38.4459C185.461 37.9994 185.681 37.4817 185.681 36.8928C185.681 36.2262 185.461 35.6697 185.014 35.2296C184.568 34.7831 184.03 34.5631 183.396 34.5631Z" fill="#D1D0D0"/>
<path id="Vector_4" d="M176.802 21.9111C177.43 21.9111 177.96 21.6975 178.387 21.2704C178.814 20.8433 179.028 20.3191 179.028 19.6914C179.028 19.0637 178.814 18.533 178.387 18.1124C177.96 17.6852 177.43 17.4717 176.802 17.4717H169.411V21.9111H176.802Z" fill="#D1D0D0"/>
</g>
<g id="Group_3">
<path id="Vector_5" d="M72.6053 27.8588C73.3625 27.8588 73.9772 27.244 73.9772 26.4868V2.35481C73.9772 1.57824 73.6019 0.931096 72.8383 0.41338C72.6959 0.316308 72.5341 0.245122 72.3659 0.206293C71.4404 0.00567853 70.6703 0.206293 70.0491 0.795195C69.5831 1.24173 69.3502 1.75944 69.3502 2.35481V26.4933C69.3502 27.2505 69.9649 27.8653 70.7221 27.8653H72.6053V27.8588Z" fill="#D1D0D0"/>
<path id="Vector_6" d="M87.1139 34.5443H73.9703V31.9686C73.9703 31.2115 73.3556 30.5967 72.5984 30.5967H70.7152C69.958 30.5967 69.3433 31.2115 69.3433 31.9686V36.8805C69.3433 37.4758 69.5762 37.9935 70.0422 38.4401C70.5081 38.8866 71.0517 39.1066 71.6859 39.1066H87.1139C87.7804 39.1066 88.3499 38.8866 88.8094 38.4401C89.2753 37.9935 89.5083 37.4758 89.5083 36.8805C89.5083 36.2139 89.2753 35.6574 88.8094 35.2108C88.3434 34.7643 87.7804 34.5443 87.1139 34.5443Z" fill="#D1D0D0"/>
</g>
<g id="Group_4">
<path id="Vector_7" d="M14.8408 30.564C15.022 29.9427 15.0026 29.2503 14.7761 28.6419L4.95895 1.91485C4.77127 1.37772 4.48653 0.96355 4.11766 0.685278C3.74878 0.407005 3.35403 0.271105 2.93985 0.284048C2.31859 0.303462 1.82676 0.594677 1.46436 1.15122C1.10196 1.7013 0.927233 2.29667 0.946647 2.9244C0.95959 3.29974 1.00489 3.61684 1.08255 3.86276L10.8868 30.6869C11.6698 32.829 14.1937 32.7448 14.8344 30.5575L14.8408 30.564Z" fill="#D1D0D0"/>
<path id="Vector_8" d="M31.3753 0.853709C31.0129 0.374821 30.5017 0.128906 29.8481 0.128906C29.4662 0.128906 29.078 0.27775 28.6832 0.575436C28.2884 0.873123 28.0037 1.22258 27.829 1.63028L20.4386 21.5559V21.5688L19.895 23.0314L17.054 30.7L15.0349 36.1296C14.8602 36.602 14.8602 37.1326 15.0349 37.6051V37.5468C15.2096 37.9545 15.475 38.3169 15.8374 38.634C16.1998 38.9511 16.6075 39.1064 17.054 39.1064C17.4358 39.1064 17.8112 38.9511 18.193 38.634C18.5748 38.3169 18.8466 37.9545 19.0213 37.5468V37.6051L25.4475 20.3975C26.4829 17.5759 27.5378 14.7285 28.612 11.8487C29.6798 8.96891 30.7541 6.10205 31.8283 3.24814C31.8995 3.02812 31.9319 2.73043 31.9319 2.35508C31.9319 1.83737 31.7507 1.3326 31.3883 0.853709H31.3753Z" fill="#D1D0D0"/>
</g>
<path id="Vector_9" d="M62.665 35.9937L49.9227 1.63028V1.68853C49.748 1.28082 49.4762 0.918423 49.0943 0.601322C48.7125 0.284221 48.3372 0.128906 47.9618 0.128906C47.5153 0.128906 47.1076 0.290692 46.7517 0.601322C46.3893 0.918423 46.124 1.28082 45.9492 1.68853V1.63028L43.2636 8.70358L33.2005 35.9872C33.1293 36.2849 33.0969 36.5826 33.0969 36.8803C33.0969 37.398 33.2846 37.9027 33.6664 38.3816C34.0418 38.867 34.5465 39.1064 35.1613 39.1064C35.5043 39.1064 35.8732 38.9511 36.2679 38.634C36.6627 38.3169 36.9474 37.9739 37.1222 37.6051C37.5363 36.5308 37.9829 35.3465 38.4618 34.0717C38.9406 32.7903 39.3742 31.6125 39.7496 30.5382H39.7819L42.8947 22.2095L47.9554 8.49002L52 19.6274L57.0478 33.2045L58.6915 37.618V37.5598C58.8662 37.9675 59.1445 38.3299 59.5457 38.647C59.9405 38.9641 60.3288 39.1194 60.7041 39.1194C61.3577 39.1194 61.8625 38.8864 62.2249 38.4205C62.5873 37.9545 62.7685 37.4433 62.7685 36.8867C62.7685 36.589 62.7362 36.2914 62.665 35.9937Z" fill="#D1D0D0"/>
<path id="Vector_10" d="M154.365 35.4823L154.417 35.5405L149.654 27.9366L149.091 27.0435L148.295 25.7751C147.842 25.0568 148.036 24.099 148.748 23.6395C148.865 23.5619 148.975 23.4907 149.091 23.4066C149.751 22.96 150.353 22.4876 150.903 21.9893C151.88 21.1027 152.631 20.1255 153.142 19.0577C153.336 18.663 153.505 18.2747 153.653 17.8929C153.789 17.5499 153.906 17.2069 154.003 16.8704C154.204 16.1521 154.365 15.5049 154.475 14.9354C154.585 14.3659 154.65 13.8935 154.669 13.5247C154.689 13.1558 154.695 12.9163 154.695 12.8063C154.695 10.9167 154.352 9.18879 153.66 7.61623C153.466 7.16323 153.239 6.72964 152.987 6.30899C151.841 4.41286 150.275 2.92443 148.282 1.85664H148.34C145.532 0.555877 142.445 0.245248 139.332 0.212891H132.615C131.819 0.212891 131.023 0.542934 130.557 1.19655C130.292 1.56542 130.162 1.9796 130.162 2.43907C130.162 3.18329 130.531 3.9275 131.133 4.38697C131.877 4.95646 132.718 4.83998 133.605 4.83998H142.141C142.548 4.83998 142.969 4.8788 143.416 4.94999C143.823 5.02765 144.263 5.13119 144.742 5.25415C145.221 5.38358 145.719 5.57772 146.237 5.83658C147.499 6.49019 148.45 7.37031 149.098 8.47046C149.809 9.65473 150.159 11.1043 150.159 12.8063C150.159 12.8452 150.152 13.0005 150.133 13.2787C150.114 13.557 150.068 13.9065 149.997 14.3336C149.926 14.7607 149.816 15.2202 149.667 15.7185C149.531 16.1909 149.343 16.6504 149.104 17.1034L149.065 17.1875C148.405 18.3653 147.499 19.2713 146.354 19.899C145.215 20.5268 143.81 20.8374 142.147 20.8374H140.193C139.999 20.8374 139.882 21.0445 139.986 21.2127L148.703 35.1134L150.502 37.9867C150.91 38.6856 151.57 39.0351 152.495 39.0351C152.935 39.0351 153.31 38.9445 153.602 38.7568C153.932 38.5368 154.197 38.2391 154.404 37.8767C154.605 37.5078 154.708 37.1584 154.708 36.8219C154.708 36.6018 154.669 36.3818 154.598 36.1618C154.527 35.9353 154.449 35.7217 154.378 35.4952L154.365 35.4823Z" fill="#D1D0D0"/>
</g>
</svg>
