<svg width="248" height="64" viewBox="0 0 248 64" fill="none" xmlns="http://www.w3.org/2000/svg">
<path d="M70.2154 46.1372H61.5176V19.5701H70.3208C75.2232 19.5701 79.493 21.1546 79.493 26.1722C79.493 29.6054 77.648 31.5068 74.8015 32.2462V32.2991C77.9643 32.7744 80.6 34.8871 80.6 38.69C80.6 44.183 76.2775 46.1372 70.2154 46.1372ZM69.7409 23.9011H66.4727V30.5033H69.5828C72.5875 30.5033 73.9053 29.4469 73.9053 27.0701C73.9581 24.9046 72.5348 23.9011 69.7409 23.9011ZM69.6882 34.5174H66.5254V41.8062H69.4774C72.6929 41.8062 74.4325 40.8026 74.4325 38.2674C74.3798 35.785 72.9565 34.5174 69.6882 34.5174Z" fill="#00578E"/>
<path d="M95.0434 31.4014C94.7271 31.1902 94.1472 30.9789 92.9875 30.9789C90.6154 30.9789 89.2448 33.0388 88.7704 33.9367V46.1375H83.499V26.7007H88.7704V29.3416C89.6138 27.9155 91.1953 26.2253 93.6728 26.2253C95.0961 26.2253 95.8341 26.4894 96.3085 26.7535L95.0434 31.4014Z" fill="#00578E"/>
<path d="M105.744 46.6128C98.9969 46.6128 96.0449 41.4896 96.0449 36.4719C96.0449 31.5071 98.9442 26.2253 105.692 26.2253C112.439 26.2253 115.496 31.3486 115.496 36.3135C115.496 41.2255 112.544 46.6128 105.744 46.6128ZM105.639 30.1866C102.634 30.1866 101.633 32.7219 101.633 36.3135C101.633 39.905 102.845 42.5459 105.797 42.5459C108.802 42.5459 109.909 40.0635 109.909 36.4191C109.909 32.8275 108.644 30.1866 105.639 30.1866Z" fill="#00578E"/>
<path d="M128.517 46.1374C128.359 45.662 128.253 44.6585 128.201 44.0775C127.305 45.1339 125.512 46.6128 122.771 46.6128C119.45 46.6128 116.92 44.6057 116.92 41.1726C116.92 36.1021 122.139 34.2535 127.252 34.2535H127.937V33.1443C127.937 31.4542 127.252 30.4506 124.774 30.4506C122.297 30.4506 120.557 31.7711 119.819 32.2993L117.5 29.0774C118.659 28.021 121.19 26.2781 125.354 26.2781C130.626 26.2781 133.156 28.338 133.156 33.4612V40.4331C133.156 43.074 133.419 44.9226 133.736 46.1902H128.517V46.1374ZM127.41 37.5282H126.725C123.615 37.5282 121.453 38.4261 121.453 40.6972C121.453 42.1233 122.613 42.7043 123.773 42.7043C125.67 42.7043 126.777 41.5951 127.357 40.9613V37.5282H127.41Z" fill="#00578E"/>
<path d="M144.594 26.2253C146.966 26.2253 148.39 27.0704 149.075 27.5985V17.5632H154.346V40.5916C154.346 43.1268 154.663 45.0811 154.926 46.1374H149.76C149.602 45.6621 149.391 44.6057 149.339 44.0247C148.126 45.4508 146.492 46.6656 143.909 46.6656C139.059 46.6656 135.949 43.0212 135.949 36.5247C135.949 30.2394 139.639 26.2253 144.594 26.2253ZM145.49 42.3874C147.388 42.3874 148.653 41.0141 149.128 40.4331V31.6655C148.442 31.0845 147.441 30.3979 145.754 30.3979C143.066 30.3979 141.59 32.669 141.59 36.4718C141.537 40.1691 142.749 42.3874 145.49 42.3874Z" fill="#00578E"/>
<path d="M169.951 31.4014C169.634 31.1902 169.054 30.9789 167.947 30.9789C165.575 30.9789 164.205 33.0388 163.73 33.9367V46.1375H158.459V26.7007H163.73V29.3416C164.574 27.9155 166.155 26.2253 168.633 26.2253C170.056 26.2253 170.847 26.4894 171.268 26.7535L169.951 31.4014Z" fill="#00578E"/>
<path d="M175.907 24.2182C174.167 24.2182 172.902 22.8449 172.902 21.2604C172.902 19.7287 174.167 18.3555 175.907 18.3555C177.647 18.3555 178.912 19.6759 178.912 21.2604C178.964 22.8449 177.647 24.2182 175.907 24.2182Z" fill="#00578E"/>
<path d="M178.595 26.7009H173.271V46.1377H178.595V26.7009Z" fill="#00578E"/>
<path d="M190.193 26.2253C192.565 26.2253 193.988 27.0704 194.674 27.5985V17.5632H199.945V40.5916C199.945 43.1268 200.261 45.0811 200.525 46.1374H195.306C195.148 45.6621 194.937 44.6057 194.884 44.0247C193.672 45.4508 192.038 46.6656 189.455 46.6656C184.605 46.6656 181.495 43.0212 181.495 36.5247C181.495 30.2394 185.238 26.2253 190.193 26.2253ZM191.089 42.3874C192.987 42.3874 194.252 41.0141 194.726 40.4331V31.6655C194.041 31.0845 193.039 30.3979 191.353 30.3979C188.664 30.3979 187.188 32.669 187.188 36.4718C187.135 40.1691 188.348 42.3874 191.089 42.3874Z" fill="#00578E"/>
<path d="M221.768 26.2253V30.1866H219.185C219.659 31.0845 219.923 32.1937 219.923 33.3029C219.923 37.4226 216.971 40.3276 211.541 40.3276C210.698 40.3276 209.96 40.2219 209.222 40.1163C208.906 40.3804 208.484 40.6973 208.484 41.2783C208.484 42.3346 209.591 42.4931 212.385 42.6515C216.391 42.8628 221.504 42.9156 221.504 48.6199C221.504 52.7397 217.234 55.6446 210.909 55.6446C205.585 55.6446 202.369 53.9545 202.369 50.4685C202.369 48.303 203.687 46.7713 205.637 45.7149C204.583 45.0811 203.951 44.1832 203.951 42.7572C203.951 40.9086 205.005 39.7994 206.112 39.1128C203.951 37.898 202.633 35.8381 202.633 33.3029C202.633 29.1303 205.848 26.2253 211.225 26.2253C212.596 26.2253 221.768 26.2253 221.768 26.2253ZM206.955 49.465C206.955 51.0495 208.01 52.1059 210.751 52.1059C213.966 52.1059 215.811 50.8911 215.811 49.2537C215.811 47.1938 213.966 47.2467 211.172 47.0354C210.276 46.9826 209.38 46.8769 208.537 46.7713C207.482 47.4579 206.955 48.303 206.955 49.465ZM214.81 33.3029C214.81 31.0317 213.492 29.7113 211.331 29.7113C209.169 29.7113 207.851 31.0317 207.851 33.3029C207.851 35.5212 209.169 36.8944 211.331 36.8944C213.492 36.8944 214.81 35.5212 214.81 33.3029Z" fill="#00578E"/>
<path d="M233.313 42.6514C235.949 42.6514 237.425 41.7535 238.374 41.2781L240.061 44.7113C238.796 45.4507 236.792 46.5599 232.839 46.5599C226.355 46.5599 222.718 42.4401 222.718 36.2605C222.718 30.1337 226.935 26.1724 232.312 26.1724C238.374 26.1724 241.326 30.3978 240.693 37.5809H228.411C228.569 40.6443 230.098 42.6514 233.313 42.6514ZM235.527 34.0421C235.475 31.8766 234.631 30.0808 232.206 30.0808C229.992 30.0808 228.727 31.5069 228.358 34.0421H235.527Z" fill="#00578E"/>
<path d="M245.173 31.7711C243.697 31.7711 242.484 30.5563 242.484 29.0246C242.484 27.4929 243.697 26.2781 245.173 26.2781C246.649 26.2781 247.914 27.4929 247.914 29.0246C247.861 30.5563 246.649 31.7711 245.173 31.7711ZM245.173 26.7006C243.855 26.7006 242.906 27.6513 242.906 29.0246C242.906 30.3978 243.855 31.3485 245.173 31.3485C246.491 31.3485 247.439 30.3978 247.439 29.0246C247.439 27.7041 246.438 26.7006 245.173 26.7006ZM245.911 30.6091L245.173 29.4999C245.015 29.2887 244.909 29.183 244.698 29.183V30.6091H244.171V27.3344H245.226C245.911 27.3344 246.227 27.757 246.227 28.2323C246.227 28.7077 245.911 29.0246 245.384 29.0774C245.489 29.183 245.647 29.2887 245.753 29.4999L246.491 30.5563L245.911 30.6091ZM245.12 27.8098H244.646V28.8133H244.962C245.331 28.8133 245.7 28.7605 245.7 28.338C245.7 28.021 245.542 27.8098 245.12 27.8098Z" fill="#00578E"/>
<path d="M44.6487 7.05282L0 7V7.05282V57.2821H44.6487V7.05282ZM34.9493 41.3313V43.444C30.0469 43.444 26.9895 41.8595 25.0391 39.9052C25.3554 40.8031 25.7244 41.7538 26.1988 42.6517C29.5198 49.2539 35.371 52.6342 43.9107 52.7398V55.4863C31.9446 55.3807 26.3569 49.0954 23.7213 43.8137C23.1414 42.6517 22.667 41.4897 22.298 40.3806C18.3444 50.1518 7.53809 50.2574 7.37995 50.2574V47.194C7.90709 47.194 20.7166 46.7715 20.7166 32.0882H23.9848C23.9848 17.405 36.7416 17.2994 37.2687 17.2994V14.236C37.1106 14.236 26.3042 14.3944 22.3507 24.1128C21.9817 23.0037 21.5073 21.8417 20.9274 20.6797C18.2917 15.5036 12.704 9.21833 0.737994 9.11269V7.73944H43.9107V32.1411H23.9321C23.9321 32.5108 24.143 41.3313 34.9493 41.3313ZM0.737994 11.8592C9.22493 11.9648 15.1289 15.3451 18.4499 21.9473C18.9243 22.898 19.2933 23.7959 19.6096 24.6938C17.6592 22.7396 14.6017 21.1551 9.69936 21.1551V23.2677C20.5057 23.2677 20.7166 31.7185 20.7166 32.0882H0.737994V11.8592Z" fill="#00578E"/>
</svg>
