<svg width="242" height="64" viewBox="0 0 242 64" fill="none" xmlns="http://www.w3.org/2000/svg">
<path d="M198.558 14V39.0012C198.558 40.2365 199.199 40.9581 199.86 41.4125C200.569 41.8917 201.609 42.1316 203.011 42.1316C203.898 42.1316 205.07 41.8355 205.07 41.8355V39.5934C204.718 39.6154 204.407 39.6357 204.061 39.6357C201.975 39.6357 201.667 38.8148 201.667 37.9013V14L198.558 14ZM132.89 14.2538C130.547 14.2538 128.428 14.9939 126.924 16.3267C125.463 17.6267 124.655 19.4211 124.655 21.3608C124.655 23.497 125.514 25.1662 127.302 26.4794C128.879 27.6391 130.965 28.3878 132.974 29.1022C136.466 30.3528 139.738 31.4941 139.738 34.6863C139.738 36.1059 139.259 37.323 138.352 38.1551C137.355 39.0702 135.92 39.5088 134.024 39.5088C130.701 39.5088 128.282 37.6563 126.924 34.0517L123.941 34.8555C124.583 36.3173 125.676 38.4269 127.26 39.8472C128.997 41.4159 131.152 42.1739 133.856 42.1739C137.059 42.1739 139.489 41.3422 141.083 39.678C142.734 37.9456 143.099 35.7285 143.099 34.1786C143.099 31.9577 142.167 30.2427 140.284 28.8907C138.641 27.7037 136.514 26.9386 134.444 26.2256C131.072 25.0645 127.854 23.9596 127.89 21.1069C127.902 19.7768 128.36 18.7413 129.193 18.0188C130.041 17.2848 131.25 16.9189 132.806 16.9189C134.44 16.9189 135.897 17.3788 137.007 18.2726C138.028 19.0866 138.771 20.2947 139.108 21.6569L142.007 21.2761C140.735 16.9104 137.627 14.2538 132.89 14.2538ZM0 14.6345V41.7932H3.10903V16.9612L3.19306 17.0458L10.5875 41.7932H12.9823L20.4187 17.0458L20.4608 16.9612V41.7932H23.5698V14.6345H18.4021L11.8059 36.463V36.5476L11.7639 36.463L5.16771 14.6345H0ZM148.015 15.1845V21.6992H145.032V24.1951H148.015C148.015 24.1951 148.015 38.1544 148.015 39.0012C148.015 40.2365 148.573 40.9581 149.233 41.4125C149.944 41.8917 150.981 42.1316 152.384 42.1316C153.272 42.1316 154.485 41.8355 154.485 41.8355V39.5934C154.14 39.6154 153.779 39.6357 153.435 39.6357C151.345 39.6357 151.124 38.8148 151.124 37.9013V24.1951H154.485V21.6992H151.124V15.1845H148.015ZM36.174 21.3184C33.556 21.3184 31.3372 22.3805 29.7878 24.3643C28.35 26.2156 27.5611 28.8309 27.5611 31.725C27.5611 34.6218 28.35 37.2323 29.7878 39.0858C31.3372 41.0748 33.556 42.1316 36.174 42.1316C38.8027 42.1316 41.0148 41.0748 42.5601 39.0858C43.9981 37.2323 44.7868 34.6218 44.7868 31.725C44.7868 28.8309 43.9981 26.2156 42.5601 24.3643C41.0148 22.3805 38.8027 21.3184 36.174 21.3184ZM215.531 21.3608C214.202 21.3608 212.967 21.6067 211.918 22.0799C210.892 22.5457 209.98 23.2469 209.271 24.1528C207.861 25.9306 207.044 28.5699 207.044 31.7673C207.044 35.326 208.06 38.0413 209.901 39.8472C211.844 41.7562 214.319 42.1316 216.035 42.1316C220.496 42.1316 222.685 39.7014 223.598 37.4783L221.119 36.2515C220.516 37.605 219.132 39.678 216.035 39.678C214.266 39.678 212.818 38.9485 211.792 37.6052C210.8 36.3052 210.243 34.5058 210.237 32.3596H223.85V30.4559C223.85 27.1676 222.98 24.7154 221.371 23.2221C220.001 21.9536 218.079 21.3608 215.531 21.3608ZM68.0205 21.4031C64.5129 21.4031 59.5337 23.7795 59.5337 31.7673C59.5337 39.5232 64.4974 42.1316 67.8524 42.1316C69.8106 42.1316 71.59 41.0393 72.8101 39.4665L72.9781 39.3819V43.1892C72.9781 45.8595 70.6828 47.5041 68.2306 47.5041C65.8464 47.5041 63.7357 47.0458 62.0125 46.235V48.9424C63.4636 49.5687 65.8252 49.9577 67.8524 49.9577C73.3714 49.9577 76.0031 46.8993 76.0031 42.47V21.7838H73.6924L73.0201 23.8989C71.8795 22.4025 70.3862 21.4031 68.0205 21.4031ZM88.1031 21.4031C83.6875 21.4031 81.5968 24.0664 80.7087 25.718L83.1875 27.0294C83.5354 26.0856 84.7877 23.8989 88.1451 23.8989C90.7925 23.8989 92.1365 25.0754 92.1365 27.4101V28.1293C92.1365 28.1293 92.1581 28.3479 92.0944 28.4254C91.9961 28.5504 91.7173 28.6526 91.0441 28.7215C87.3375 29.1379 84.8738 29.7509 83.0615 30.9213C81.094 32.1945 79.8684 33.9772 79.8684 36.4207C79.8684 38.1565 80.7031 39.6379 81.801 40.6933C82.822 41.6652 84.213 42.1709 85.7503 42.2162C89.0229 42.3219 91.177 40.9505 92.2205 39.3396C92.3014 40.4464 92.6954 41.0789 93.5649 41.5394C94.3815 41.9785 95.7209 41.8912 96.2958 41.7509V39.6357C95.6028 39.6009 95.1615 39.2691 95.1615 38.4089V28.7215V27.4524C95.1614 25.4532 94.3822 23.8134 92.8927 22.7568C91.6646 21.8793 89.9485 21.4031 88.1031 21.4031ZM109.488 21.4031C107.465 21.4031 105.394 22.4585 103.648 24.4489V21.7838H100.539V41.8355H103.648V26.9448C104.706 25.8065 107.077 23.8989 109.236 23.8989C111.4 23.8989 112.345 24.9677 112.345 27.3678V41.8355H115.454V27.2832C115.454 22.9509 112.394 21.4031 109.488 21.4031ZM165.745 21.4031C161.332 21.4031 159.241 24.0664 158.35 25.718L160.829 27.0294C161.178 26.0856 162.429 23.8989 165.787 23.8989C168.434 23.8989 169.778 25.0754 169.778 27.4101V28.1293C169.778 28.1293 169.756 28.3479 169.694 28.4254C169.597 28.5504 169.362 28.6526 168.686 28.7215C164.979 29.1372 162.515 29.7509 160.703 30.9213C158.737 32.1945 157.51 33.9772 157.51 36.4207C157.51 38.1565 158.343 39.6373 159.443 40.6933C160.464 41.6652 161.856 42.1709 163.392 42.2162C166.662 42.3219 168.819 40.9505 169.862 39.3396C169.944 40.446 170.336 41.0789 171.207 41.5394C172.022 41.9785 173.361 41.8912 173.938 41.7509V39.6357C173.246 39.6009 172.803 39.2691 172.803 38.4089V28.7215V27.4524C172.803 25.4532 171.983 23.8134 170.492 22.7568C169.263 21.8793 167.589 21.4031 165.745 21.4031ZM187.13 21.4031C185.101 21.4031 183.036 22.4585 181.29 24.4489V21.7838H178.181V41.8355H181.29V26.9448C182.349 25.8059 184.716 23.8989 186.878 23.8989C189.038 23.8989 189.987 24.9677 189.987 27.3678V41.8355H193.096V27.2832C193.096 22.9509 190.036 21.4031 187.13 21.4031ZM58.3573 21.4877C55.2029 21.4877 53.3334 22.7191 51.7191 25.6334V25.4219V21.7838H48.6101V41.7932H51.7191V30.4559C52.4866 26.3374 54.6522 24.4066 58.3573 24.4066V21.4877ZM225.951 21.7415L232.883 41.624V41.7932C232.469 43.6987 231.271 46.051 230.194 46.785C229.243 47.4346 228.214 47.5041 227.421 47.5041C227.039 47.5041 226.248 47.3741 225.909 47.2926V49.7039C226.339 49.8101 227.331 50 227.967 50C229.449 50 230.698 49.6266 231.749 48.8578C233.006 47.9376 234.399 45.5391 235.068 43.4853L242 21.7415H238.975L234.437 37.1398L234.395 37.4783L234.311 37.1398L228.976 21.7415H225.951ZM36.174 23.8143C39.521 23.8143 41.5097 26.7723 41.5097 31.725C41.5097 36.6791 39.521 39.6357 36.174 39.6357C32.8323 39.6357 30.8382 36.6791 30.8382 31.725C30.8382 26.7723 32.8323 23.8143 36.174 23.8143ZM68.2306 23.8566C69.9846 23.8566 71.5244 24.6198 72.9781 26.4371V35.9977C72.1735 38.3037 69.8689 39.6357 68.2306 39.6357C65.0244 39.6357 62.8108 37.6256 62.8108 31.5981C62.8108 26.5299 64.7974 23.8566 68.2306 23.8566ZM215.615 23.8566C219.177 23.8566 220.77 25.7532 220.783 29.8637H210.322C210.592 25.7565 212.302 23.8566 215.615 23.8566ZM92.2205 30.9213V35.9977C92.0772 37.7502 88.8244 39.8714 86.1705 39.7203C84.7062 39.6395 83.2954 38.4523 83.1455 36.5053C82.9025 33.2517 85.3305 31.9009 90.75 31.302C91.127 31.2673 91.8566 31.1325 92.2205 30.9213ZM169.862 30.9213V35.9977C169.719 37.7495 166.466 39.8714 163.812 39.7203C162.35 39.6388 160.933 38.4516 160.787 36.5053C160.54 33.2517 162.971 31.9009 168.392 31.302C168.766 31.2673 169.501 31.1325 169.862 30.9213Z" fill="black"/>
</svg>
