<svg width="60" height="61" viewBox="0 0 60 61" fill="none" xmlns="http://www.w3.org/2000/svg">
<g id="Assecibility">
<path id="Vector" d="M38.789 4.56641H21.4531C18.7219 4.56641 16.5 6.78829 16.5 9.51953V50.3836C16.5 53.1148 18.7219 55.3367 21.4531 55.3367H38.789C41.5203 55.3367 43.7422 53.1148 43.7422 50.3836V9.51953C43.7422 6.78829 41.5203 4.56641 38.789 4.56641ZM38.789 54.0984H21.4531C19.4047 54.0984 17.7383 52.432 17.7383 50.3836V9.51953C17.7383 7.47109 19.4047 5.80469 21.4531 5.80469H22.6914C23.0039 5.80469 23.3106 6.11133 23.3106 6.42385V7.04301C23.3106 7.72581 23.866 8.28129 24.5488 8.28129H35.6934C36.3762 8.28129 36.9316 7.72581 36.9316 7.04301V6.42385C36.9316 6.11137 37.2383 5.80469 37.5508 5.80469H38.7891C40.8375 5.80469 42.5039 7.47109 42.5039 9.51953V50.3836C42.5039 52.432 40.8375 54.0984 38.789 54.0984ZM33.836 21.2835C34.8618 21.2835 35.6934 22.1151 35.6934 23.1409C35.6934 24.1668 34.8618 24.9984 33.836 24.9984C32.8101 24.9984 31.9785 24.1668 31.9785 23.1409C31.9785 22.1151 32.8101 21.2835 33.836 21.2835ZM36.8698 30.4469L36.2506 36.0192C36.1887 36.5765 35.7553 37.0099 35.1981 37.0099H35.0742C34.517 36.948 34.0836 36.4526 34.1455 35.8335L34.6408 31.6233L32.6596 31.871C33.031 32.6139 33.2168 33.4188 33.2168 34.2856C33.2168 35.5858 32.7215 36.8242 31.9785 37.7529L30.6783 36.4527C31.1117 35.8335 31.3594 35.0906 31.3594 34.2856C31.3594 32.2424 29.6877 30.5708 27.6445 30.5708C26.8396 30.5708 26.0966 30.8184 25.4775 31.2518L24.1773 29.9516C24.9822 29.3325 25.9728 28.8991 27.0254 28.7752L29.502 25.8033L28.1398 25.1222L26.0966 26.6082C25.9109 26.732 25.7252 26.794 25.5394 26.794C25.2298 26.794 24.9822 26.6701 24.7964 26.4225C24.4869 25.9891 24.5488 25.4318 24.9822 25.1223L27.4588 23.2648C27.7684 23.0791 28.1399 23.0172 28.4494 23.2029L30.926 24.4412L32.8454 25.4318C33.2169 25.6176 33.5265 25.9891 33.5884 26.4225C33.6503 26.794 33.5884 27.2274 33.2788 27.5989L31.4214 29.8278L35.7554 29.3325C36.065 29.2706 36.3746 29.3944 36.6222 29.642C36.8698 29.8897 36.9317 30.1992 36.8698 30.4469ZM29.8115 37.3194L31.1117 38.6196C30.183 39.4245 28.9447 39.8579 27.6445 39.8579C24.5487 39.8579 22.0721 37.3813 22.0721 34.2856C22.0721 32.9854 22.5674 31.747 23.3104 30.8183L24.6106 32.1185C24.1772 32.7377 23.9295 33.4806 23.9295 34.2856C23.9295 36.3288 25.6012 38.0004 27.6444 38.0004C28.4493 38.0004 29.1924 37.7528 29.8115 37.3194Z" fill="url(#paint0_linear_559_2915)"/>
</g>
<defs>
<linearGradient id="paint0_linear_559_2915" x1="16.5" y1="29.9516" x2="43.3514" y2="29.9516" gradientUnits="userSpaceOnUse">
<stop stop-color="#D24141"/>
<stop offset="1" stop-color="#7C33C6"/>
</linearGradient>
</defs>
</svg>
