<svg width="60" height="61" viewBox="0 0 60 61" fill="none" xmlns="http://www.w3.org/2000/svg">
<g id="AI">
<path id="Vector" d="M39.5742 33.913C39.2594 34.2262 38.7141 34.2262 38.4008 33.913C38.041 33.5528 37.4652 33.4431 36.9731 33.6235C37.1395 34.0052 37.2239 34.3993 37.2239 34.7974C37.2239 35.6001 36.9114 36.3544 36.3438 36.9216C36.1876 37.0786 35.979 37.1649 35.7571 37.1649C35.536 37.1649 35.3274 37.0786 35.1704 36.922C34.8469 36.5978 34.8469 36.0716 35.17 35.7478C35.4242 35.4938 35.5641 35.1564 35.5641 34.7974C35.5641 34.4388 35.4243 34.1016 35.17 33.8474C34.6641 33.3407 33.7758 33.3411 33.27 33.8474C33.1137 34.004 32.9051 34.0907 32.6836 34.0907C32.4618 34.0907 32.2528 34.0044 32.0961 33.8474C31.9395 33.6907 31.8528 33.4825 31.8528 33.2606C31.8528 33.0392 31.9395 32.8306 32.0961 32.6739C32.6637 32.1064 33.418 31.7938 34.2203 31.7938C34.8106 31.7938 35.3812 31.97 35.8793 32.3044C36.352 32.0126 36.8922 31.8591 37.45 31.8591C38.2528 31.8591 39.0071 32.1716 39.5742 32.7392C39.8981 33.0626 39.8981 33.5895 39.5742 33.913ZM42.6274 30.1063C43.4934 31.0094 43.97 32.1958 43.97 33.447C43.97 35.4594 42.729 37.2524 40.8637 37.9634C40.9973 38.722 40.895 39.5134 40.5645 40.2642C40.1856 41.1235 39.4645 41.8243 38.5852 42.1868C37.5946 42.5958 36.5743 42.6098 35.6282 42.2286C34.5247 43.218 32.9173 43.493 31.4848 42.9344C30.861 42.6915 30.318 42.2802 29.9001 41.736C29.4821 42.2802 28.9392 42.6915 28.3153 42.9344C27.8165 43.129 27.3009 43.2278 26.7829 43.2278H26.7813C25.8122 43.2278 24.8911 42.8739 24.172 42.2286C23.2247 42.6102 22.2056 42.5962 21.2145 42.1864C20.3356 41.8243 19.6145 41.1239 19.2356 40.2641C18.9051 39.5133 18.8028 38.7219 18.9364 37.9633C17.0712 37.2524 15.8302 35.4594 15.8302 33.4469C15.8302 32.1958 16.3071 31.009 17.1727 30.1059C17.2735 30.0004 17.3813 29.8977 17.4946 29.7993C16.7598 29.1813 16.3282 28.2704 16.3282 27.3153C16.3282 25.9571 17.1966 24.727 18.4622 24.2586C18.2157 23.2719 18.288 22.2325 18.6739 21.2391C19.1571 19.995 20.1942 18.9903 21.4474 18.5512C22.3653 18.2282 23.3169 18.1661 24.2149 18.3665C24.2145 17.9251 24.3032 17.4852 24.4802 17.0559C24.8145 16.2434 25.4813 15.6086 26.3094 15.3145C27.361 14.9411 28.4692 15.084 29.3493 15.7059C29.5477 15.8462 29.7321 16.013 29.9001 16.2036C30.068 16.0129 30.2524 15.8461 30.4509 15.7059C31.331 15.084 32.4388 14.9403 33.4903 15.3145C34.3188 15.6087 34.9856 16.2434 35.32 17.0559C35.497 17.4852 35.5856 17.9251 35.5852 18.3668C36.4841 18.1657 37.4348 18.2286 38.3532 18.5512C39.6059 18.9903 40.643 19.995 41.1262 21.2391C41.5122 22.2324 41.5844 23.2719 41.338 24.2586C42.6036 24.727 43.472 25.957 43.472 27.3152C43.472 28.2703 43.0399 29.1812 42.3056 29.7992C42.4188 29.8977 42.5266 30.0004 42.6274 30.1063ZM39.6828 36.5743C41.2051 36.3071 42.3098 34.9922 42.3098 33.4469C42.3098 32.6262 41.9969 31.8473 41.429 31.254C41.1063 30.9172 40.7055 30.6504 40.2704 30.4825C39.9192 30.3477 39.7024 29.9918 39.7434 29.6168C39.7852 29.2418 40.0742 28.9418 40.4469 28.8868C41.2379 28.7696 41.8118 28.1086 41.8118 27.3153C41.8118 26.4379 41.0977 25.7215 40.2204 25.718C39.9313 25.7164 39.6684 25.5688 39.5164 25.3227C39.3653 25.0746 39.3528 24.7735 39.4821 24.5152C39.7746 23.9336 40.0286 22.9977 39.579 21.8402C39.2692 21.043 38.6059 20.3988 37.8036 20.1172C36.6942 19.7278 35.5524 19.9047 34.6735 20.6004C34.3352 20.8692 33.8563 20.8363 33.5586 20.5246C33.2606 20.2137 33.2485 19.7332 33.5305 19.4074C33.9446 18.9281 34.0372 18.3016 33.7852 17.6882C33.6317 17.3156 33.3137 17.0128 32.9348 16.8789C32.4016 16.6898 31.8383 16.7586 31.4078 17.0617C30.9832 17.3617 30.7297 17.8504 30.7297 18.3691V24.1316C30.7297 25.1273 31.5399 25.9371 32.536 25.9371C33.532 25.9371 34.3414 25.1273 34.3414 24.1316C34.3414 23.6742 34.7137 23.3019 35.1711 23.3019C35.6289 23.3019 36.0016 23.6742 36.0016 24.1316C36.0016 26.0425 34.4469 27.5972 32.536 27.5972C31.8965 27.5972 31.2789 27.4176 30.7297 27.0742V39.2808C30.7297 40.2246 31.275 41.0715 32.0872 41.3879C33.3047 41.8617 34.2872 41.3406 34.7993 40.6949C35.0598 40.3672 35.5262 40.2848 35.8848 40.5047C36.329 40.7777 37.0473 41.0258 37.9528 40.6523C38.4395 40.4515 38.8376 40.066 39.045 39.5949C39.395 38.8011 39.2505 38.1414 39.0673 37.7277C38.963 37.4933 38.9724 37.2281 39.0938 37.0007C39.2134 36.7769 39.4332 36.6176 39.6828 36.5743ZM27.2641 34.4649C27.9036 34.4649 28.5208 34.6446 29.0704 34.988V18.3692C29.0704 17.8504 28.8168 17.3618 28.3922 17.0618C27.9567 16.7547 27.4004 16.6879 26.8657 16.8786C26.4864 17.0129 26.1684 17.3157 26.0149 17.6883C25.7629 18.3016 25.8555 18.9282 26.2696 19.4075C26.5516 19.7333 26.5395 20.2137 26.2414 20.5247C25.943 20.8364 25.4645 20.8688 25.1262 20.6005C24.2461 19.904 23.1047 19.7286 21.9965 20.1173C21.1942 20.3989 20.5309 21.0431 20.2211 21.8403C19.7715 22.9978 20.0254 23.9337 20.3176 24.5153C20.4473 24.7735 20.4348 25.0747 20.284 25.322C20.1316 25.5688 19.8688 25.7165 19.5801 25.718C18.7024 25.7216 17.9883 26.438 17.9883 27.3153C17.9883 28.1087 18.5621 28.7696 19.3531 28.8872C19.7258 28.9419 20.0148 29.2419 20.0566 29.6165C20.0976 29.9919 19.8808 30.3477 19.5293 30.4825C19.0945 30.6504 18.6937 30.9172 18.3711 31.254C17.8031 31.8473 17.4902 32.6262 17.4902 33.4469C17.4902 34.9922 18.5949 36.3075 20.1172 36.5743C20.3668 36.6176 20.5867 36.777 20.7063 37.0009C20.8278 37.2282 20.8371 37.4934 20.7328 37.7282C20.5496 38.1415 20.4051 38.8012 20.7551 39.5946C20.9626 40.0661 21.3606 40.4512 21.8469 40.652C22.754 41.0255 23.4719 40.7782 23.9149 40.5048C24.0461 40.4239 24.1969 40.3813 24.3504 40.3813C24.6047 40.3813 24.8414 40.4954 25.0004 40.6946C25.5129 41.3407 26.493 41.8618 27.7129 41.388C28.525 41.0716 29.0704 40.2247 29.0704 39.2809V37.9301C29.0704 36.9344 28.2602 36.1246 27.2641 36.1246C26.268 36.1246 25.4586 36.9344 25.4586 37.9301C25.4586 38.3876 25.0864 38.7598 24.629 38.7598C24.1712 38.7598 23.7985 38.3875 23.7985 37.9301C23.7985 36.0196 25.3532 34.4649 27.2641 34.4649ZM25.486 26.8184C25.9559 26.2742 26.2121 25.5868 26.2121 24.8586C26.2121 24.0555 25.9 23.3012 25.3336 22.7348C25.0203 22.4215 24.4742 22.4207 24.1602 22.7348C24.0035 22.8914 23.9172 23.0996 23.9172 23.3215C23.9172 23.5434 24.0035 23.7516 24.1602 23.9082C24.6844 24.4324 24.6844 25.2848 24.1602 25.809C23.6547 26.3161 22.7672 26.3165 22.2594 25.809C21.9461 25.4958 21.3992 25.4958 21.0859 25.809C20.9289 25.9661 20.8426 26.1747 20.8426 26.3966C20.843 26.6184 20.9293 26.8266 21.0859 26.9825C21.6519 27.5489 22.4062 27.861 23.2101 27.861C23.2984 27.861 23.3867 27.8504 23.475 27.8391L23.5187 27.8333C23.5554 27.8434 23.6058 27.8575 23.6664 27.8575C24.4074 27.8575 25.0105 28.4602 25.0105 29.2012C25.0105 29.659 25.3828 30.0313 25.8402 30.0313C26.298 30.0313 26.6703 29.659 26.6703 29.2012C26.6703 28.2618 26.2316 27.3871 25.486 26.8184ZM50.5 30.7966V39.2165H54.4704C54.9278 39.2165 55.3 39.5888 55.3 40.0466C55.3 40.504 54.9278 40.8762 54.4704 40.8762H50.5V44.0282C50.5 45.427 49.9555 46.7419 48.9672 47.7306C47.9786 48.7196 46.6653 49.2642 45.2688 49.2642H40.8102V54.5364C40.8102 54.9943 40.4376 55.3665 39.9797 55.3665C39.5223 55.3665 39.15 54.9943 39.15 54.5364V49.2642H30.7297V54.5364C30.7297 54.9943 30.3574 55.3665 29.9 55.3665C29.4426 55.3665 29.0704 54.9943 29.0704 54.5364V49.2642H20.65V52.0274C21.2301 52.3333 21.5981 52.9356 21.5981 53.597C21.5981 54.5759 20.802 55.372 19.8231 55.372C18.8442 55.372 18.0481 54.5759 18.0481 53.597C18.0481 52.9392 18.4137 52.3384 18.9899 52.0313V49.2641H14.291C12.893 49.2641 11.5789 48.7196 10.5906 47.7305C9.60236 46.7418 9.05784 45.427 9.05784 44.0282V40.8762H7.8426C7.53596 41.4547 6.9344 41.8215 6.275 41.8215C5.29608 41.8215 4.5 41.0254 4.5 40.0465C4.5 39.0676 5.29608 38.2715 6.275 38.2715C6.93476 38.2715 7.53632 38.6383 7.8426 39.2164H9.05784V30.7965H5.32972C4.87228 30.7965 4.50004 30.4242 4.50004 29.9664C4.50004 29.5086 4.87232 29.1364 5.32972 29.1364H9.05784V20.7164H5.32972C4.87228 20.7164 4.50004 20.3442 4.50004 19.8864C4.50004 19.4289 4.87232 19.0567 5.32972 19.0567H9.05784V14.3559C9.05784 12.957 9.60236 11.6422 10.5906 10.6535C11.5789 9.66445 12.893 9.11993 14.291 9.11993H18.9926V7.90901C18.4149 7.60277 18.0481 7.00121 18.0481 6.34145C18.0481 5.36253 18.8442 4.56645 19.8231 4.56645C20.802 4.56645 21.5981 5.36253 21.5981 6.34145C21.5981 7.00121 21.2313 7.60277 20.6528 7.90901V9.11993H29.0731V5.39649C29.0731 4.93869 29.4454 4.56641 29.9028 4.56641C30.3606 4.56641 30.7328 4.93869 30.7328 5.39649V9.11993H39.1528V5.39649C39.1528 4.93869 39.525 4.56641 39.9828 4.56641C40.4407 4.56641 40.8129 4.93869 40.8129 5.39649V9.11993H45.2664C46.6645 9.11993 47.9786 9.66445 48.9672 10.6535C49.9555 11.6422 50.5 12.957 50.5 14.3559V19.0567H51.9575C52.2637 18.4782 52.8653 18.1114 53.525 18.1114C54.504 18.1114 55.3 18.9074 55.3 19.8864C55.3 20.8653 54.504 21.6614 53.525 21.6614C52.8653 21.6614 52.2637 21.2946 51.9575 20.7164H50.5V29.1364H54.4704C54.9278 29.1364 55.3 29.5086 55.3 29.9664C55.3 30.4242 54.9278 30.7965 54.4704 30.7965L50.5 30.7966ZM45.2664 10.6872H14.291C12.2692 10.6872 10.6242 12.3329 10.6242 14.3559V44.0282C10.6242 46.0512 12.2692 47.697 14.291 47.697H45.2664C47.2883 47.697 48.9332 46.0512 48.9332 44.0282V14.3559C48.9332 12.3329 47.2883 10.6872 45.2664 10.6872Z" fill="url(#paint0_linear_559_2929)"/>
</g>
<defs>
<linearGradient id="paint0_linear_559_2929" x1="4.5" y1="29.9692" x2="54.5713" y2="29.9692" gradientUnits="userSpaceOnUse">
<stop stop-color="#D24141"/>
<stop offset="1" stop-color="#7C33C6"/>
</linearGradient>
</defs>
</svg>
