<svg width="60" height="61" viewBox="0 0 60 61" fill="none" xmlns="http://www.w3.org/2000/svg">
<g id="Blockchain">
<path id="Vector" d="M51.3034 39.4161C50.5264 38.6212 49.5092 38.1579 48.4211 38.0989V21.2368L48.4195 21.1645L48.4154 21.159C48.3921 20.9516 48.2737 20.7645 48.0947 20.6586L34.2859 12.4812C34.2969 12.3508 34.3022 12.2176 34.3022 12.0836C34.3022 10.8774 33.8441 9.74297 33.0123 8.88945C32.1801 8.03633 31.0737 7.56641 29.8976 7.56641C28.7215 7.56641 27.6155 8.03633 26.7833 8.88945C25.9515 9.74297 25.4934 10.8773 25.4934 12.0836C25.4934 12.2176 25.4987 12.3508 25.5097 12.4812L11.739 20.6344C11.5131 20.7476 11.3726 20.9785 11.3726 21.2363V38.1246C10.3987 38.2461 9.48771 38.7004 8.79035 39.4156C7.95817 40.2691 7.5 41.4035 7.5 42.6098C7.5 43.8172 7.95895 44.9516 8.79226 45.8039C9.62445 46.6574 10.7304 47.1274 11.9066 47.1274C13.0827 47.1274 14.1887 46.6574 15.0209 45.8039C15.1965 45.6238 15.3557 45.4309 15.4958 45.2293L29.5667 53.5582C29.6683 53.6207 29.783 53.6524 29.8984 53.6524C30.01 53.6524 30.122 53.6227 30.2229 53.5637L44.5146 45.1016C44.6776 45.354 44.8654 45.5899 45.0749 45.8043C45.9067 46.6578 47.0127 47.1278 48.1892 47.1278C49.3656 47.1278 50.4716 46.6578 51.3035 45.8043C52.1357 44.9508 52.5938 43.8164 52.5938 42.6102C52.5938 41.4039 52.1356 40.2696 51.3034 39.4161ZM27.7019 9.83329C28.2884 9.23173 29.0677 8.90049 29.8961 8.90049C30.7263 8.90049 31.5056 9.23173 32.0902 9.83329C32.6771 10.4352 33.0001 11.2344 33.0001 12.0837C33.0001 12.9348 32.6771 13.7341 32.0902 14.3337C31.5022 14.9356 30.7229 15.2669 29.8961 15.2669C29.0658 15.2669 28.2865 14.9356 27.7019 14.3341C27.1154 13.7325 26.7924 12.9333 26.7924 12.0837C26.7924 11.2325 27.1154 10.4333 27.7019 9.83329ZM39.36 26.5376V38.1446L29.5594 43.9481L19.7587 38.1446V26.5376L29.5594 20.734L39.36 26.5376ZM14.1011 44.8598L14.1007 44.8602C13.5142 45.4618 12.7349 45.793 11.9065 45.793C11.0763 45.793 10.297 45.4618 9.71239 44.8602C9.12587 44.2587 8.80291 43.4594 8.80291 42.6098C8.80291 41.7587 9.12587 40.9594 9.71278 40.359C10.297 39.7579 11.0763 39.4266 11.9065 39.4266C12.7349 39.4266 13.5142 39.7578 14.1003 40.359C14.6872 40.963 15.0105 41.7626 15.0105 42.6098C15.0105 43.461 14.6876 44.2602 14.1011 44.8598ZM15.2802 39.7036C15.1991 39.6044 15.1122 39.5075 15.0208 39.4138C14.384 38.7606 13.5564 38.3192 12.6751 38.1595V21.6196L25.8293 13.8274C26.0502 14.3657 26.3758 14.8638 26.7795 15.2782C27.4464 15.9618 28.3159 16.4103 29.2444 16.5524V19.5347L18.5887 25.8446V37.7304L15.2802 39.7036ZM43.9616 43.8884L29.8957 52.2173L21.3827 47.1763L16.0857 44.0384C16.235 43.5794 16.3108 43.0993 16.3108 42.6095C16.3108 41.9935 16.1927 41.3997 15.96 40.8411L18.9661 39.0611L29.5594 45.3341L40.2219 39.0201L44.0831 40.965C43.8835 41.486 43.7822 42.0388 43.7822 42.6099C43.7822 43.0474 43.8423 43.4766 43.9616 43.8884ZM45.0729 39.4153C44.9518 39.5395 44.8375 39.6711 44.7324 39.8078L40.53 37.7657V25.8446L30.4568 19.8795L30.5473 16.5536C31.4759 16.4114 32.3457 15.9629 33.0126 15.279C33.4156 14.8641 33.7404 14.3665 33.961 13.829L47.1185 21.6188V38.2262C46.3427 38.4243 45.6381 38.8332 45.0729 39.4153ZM50.3813 44.8598C49.7933 45.4618 49.0136 45.793 48.1872 45.793C47.3569 45.793 46.5776 45.4618 45.9926 44.8602C45.4061 44.2583 45.0832 43.4591 45.0832 42.6098C45.0832 41.7587 45.4061 40.9594 45.9926 40.3594C46.5792 39.7579 47.3584 39.4266 48.1872 39.4266C49.0174 39.4266 49.7967 39.7579 50.3809 40.3594C50.9678 40.9614 51.2908 41.7606 51.2908 42.6098C51.2908 43.461 50.9678 44.2602 50.3813 44.8598ZM25.5562 36.3638C25.1593 36.3638 24.8358 36.6955 24.8358 37.1026C24.8358 37.5098 25.1593 37.8415 25.5562 37.8415H27.4086L27.6321 37.8413V38.6706C27.6321 39.0778 27.9555 39.4095 28.3525 39.4095C28.7495 39.4095 29.0729 39.0778 29.0729 38.6706V37.8413H29.7463V38.6706C29.7463 39.0778 30.0697 39.4095 30.4666 39.4095C30.8635 39.4095 31.1869 39.0778 31.1869 38.6706V37.7569C31.7869 37.6151 32.3248 37.3015 32.7482 36.8672C33.3363 36.2672 33.698 35.4378 33.698 34.5271C33.698 33.6164 33.3334 32.7871 32.7482 32.187C32.6924 32.1297 32.6335 32.0754 32.5748 32.0211C32.6601 31.9517 32.7424 31.8763 32.8218 31.7949C33.3628 31.243 33.698 30.477 33.698 29.6356C33.698 28.7942 33.3628 28.0312 32.8218 27.4764C32.3866 27.03 31.8191 26.7194 31.1869 26.6169V25.7484C31.1869 25.3412 30.8635 25.0095 30.4665 25.0095C30.0695 25.0095 29.7461 25.3412 29.7461 25.7484V26.5776H29.0727V25.7484C29.0727 25.3412 28.7493 25.0095 28.3524 25.0095C27.9555 25.0095 27.632 25.3412 27.632 25.7484V26.5776H25.5561C25.1592 26.5776 24.8357 26.9094 24.8357 27.3165C24.8357 27.7236 25.1592 28.0553 25.5561 28.0553H26.6882V36.3639L25.5562 36.3638ZM28.1289 28.0584H30.4635L30.7135 28.0553C31.1369 28.0553 31.522 28.2332 31.8013 28.5198C32.0806 28.8062 32.2541 29.2013 32.2541 29.6356C32.2541 30.0698 32.0806 30.4649 31.8013 30.7514C31.522 31.0379 31.1368 31.2158 30.7135 31.2158H28.1289V28.0584ZM28.1258 32.9742L31.4367 32.9923C31.5396 33.0616 31.6395 33.1431 31.7248 33.2335C32.0482 33.5652 32.2511 34.0266 32.2511 34.5303C32.2511 35.034 32.0483 35.4923 31.7248 35.827C31.4014 36.1588 30.9516 36.3668 30.4605 36.3668H28.1259L28.1258 32.9742Z" fill="url(#paint0_linear_559_2938)"/>
</g>
<defs>
<linearGradient id="paint0_linear_559_2938" x1="7.5" y1="30.6094" x2="51.947" y2="30.6094" gradientUnits="userSpaceOnUse">
<stop stop-color="#D24141"/>
<stop offset="1" stop-color="#7C33C6"/>
</linearGradient>
</defs>
</svg>
