<svg width="32" height="32" viewBox="0 0 32 32" fill="none" xmlns="http://www.w3.org/2000/svg">
<path d="M8.7976 4.79999C8.55383 4.79903 8.35544 4.99719 8.35448 5.24261V5.24348V6.48978H5.81302C4.37103 6.48978 3.2 7.68039 3.2 9.13686V22.9529C3.2 24.4094 4.37101 25.6 5.81302 25.6H26.187C27.629 25.6 28.8 24.4094 28.8 22.9529V9.13686C28.8 7.68037 27.629 6.48978 26.187 6.48978H23.6455V5.24348C23.645 4.99806 23.447 4.7995 23.2033 4.79999H23.2024C22.9596 4.80095 22.7632 4.99909 22.7627 5.24348V6.48978H9.23728V5.24348C9.23682 4.99909 9.04036 4.80093 8.7976 4.79999ZM5.81302 7.37852H8.35448V8.86436C8.35544 9.10978 8.55383 9.30794 8.79758 9.307C9.04 9.30604 9.23631 9.10844 9.23724 8.86436V7.37852H22.7627V8.86436C22.7636 9.10841 22.9599 9.30604 23.2023 9.307C23.4461 9.30796 23.6445 9.1098 23.6455 8.86438V7.37854H26.1869C27.152 7.37854 27.9171 8.15432 27.9171 9.13691V12.237H4.08278V9.13691C4.08278 8.15432 4.84788 7.37852 5.81302 7.37852ZM4.0828 13.1257H27.9172V22.9529C27.9172 23.9355 27.1521 24.7113 26.187 24.7113H5.81302C4.8479 24.7113 4.08278 23.9355 4.08278 22.9529L4.0828 13.1257Z" fill="white"/>
</svg>
