<svg width="48" height="49" viewBox="0 0 48 49" fill="none" xmlns="http://www.w3.org/2000/svg">
<g id="check">
<path id="Vector" fill-rule="evenodd" clip-rule="evenodd" d="M28.7952 13.3047C26.4745 12.2706 23.8817 12.0145 21.4035 12.5744C18.9253 13.1343 16.6945 14.4803 15.0438 16.4116C13.3931 18.343 12.4109 20.7562 12.2437 23.2913C12.0766 25.8265 12.7334 28.3477 14.1162 30.4791C15.499 32.6105 17.5338 34.2377 19.917 35.1182C22.3002 35.9987 24.9042 36.0852 27.3406 35.3648C29.777 34.6445 31.9152 33.1558 33.4365 31.1209C34.9577 29.086 35.7804 26.6139 35.7818 24.0732V22.8696C35.7818 22.1466 36.3679 21.5605 37.0909 21.5605C37.8139 21.5605 38.4 22.1466 38.4 22.8696V24.074C38.3982 27.1792 37.3927 30.2015 35.5334 32.6886C33.6742 35.1757 31.0607 36.9951 28.0829 37.8756C25.1051 38.756 21.9225 38.6503 19.0096 37.5741C16.0968 36.498 13.6099 34.5091 11.9198 31.9041C10.2297 29.2991 9.42691 26.2176 9.63122 23.119C9.83554 20.0205 11.036 17.0711 13.0535 14.7105C15.0711 12.35 17.7976 10.7049 20.8265 10.0206C23.8554 9.33622 27.0244 9.64931 29.8608 10.9131C30.5212 11.2074 30.818 11.9813 30.5238 12.6417C30.2295 13.3021 29.4556 13.5989 28.7952 13.3047ZM38.0161 12.6676C38.5276 13.1786 38.528 14.0075 38.017 14.519L24.9261 27.623C24.6807 27.8687 24.3476 28.0068 24.0003 28.0069C23.653 28.007 23.3199 27.869 23.0743 27.6234L19.1471 23.6962C18.6358 23.1849 18.6358 22.3561 19.1471 21.8448C19.6583 21.3336 20.4872 21.3336 20.9984 21.8448L23.9995 24.846L36.1648 12.6686C36.6758 12.1571 37.5046 12.1567 38.0161 12.6676Z" fill="url(#paint0_linear_559_990)"/>
</g>
<defs>
<linearGradient id="paint0_linear_559_990" x1="9.60001" y1="24.0665" x2="37.9869" y2="24.0665" gradientUnits="userSpaceOnUse">
<stop stop-color="#D24141"/>
<stop offset="1" stop-color="#7C33C6"/>
</linearGradient>
</defs>
</svg>
