<svg width="60" height="61" viewBox="0 0 60 61" fill="none" xmlns="http://www.w3.org/2000/svg">
<g id="CMS">
<path id="Vector" d="M25.9217 11.4262C25.9217 11.043 26.2326 10.7321 26.616 10.7321H46.878C47.2614 10.7321 47.5724 11.043 47.5724 11.4262C47.5724 11.8093 47.2614 12.1202 46.878 12.1202H26.616C26.2326 12.1202 25.9217 11.8093 25.9217 11.4262ZM9.90184 12.1857H9.928C10.3114 12.1857 10.6223 11.875 10.6223 11.4916C10.6223 11.1085 10.3114 10.7978 9.928 10.7978H9.90184C9.51816 10.7978 9.20716 11.1085 9.20716 11.4916C9.20716 11.8751 9.51816 12.1857 9.90184 12.1857ZM13.7204 12.1857H13.7468C14.1303 12.1857 14.4411 11.875 14.4411 11.4916C14.4411 11.1085 14.1303 10.7978 13.7468 10.7978H13.7204C13.337 10.7978 13.026 11.1085 13.026 11.4916C13.026 11.8751 13.3369 12.1857 13.7204 12.1857ZM17.5128 12.1857H17.5392C17.9226 12.1857 18.2335 11.875 18.2335 11.4916C18.2335 11.1085 17.9226 10.7978 17.5392 10.7978H17.5128C17.1294 10.7978 16.8184 11.1085 16.8184 11.4916C16.8184 11.8751 17.1294 12.1857 17.5128 12.1857ZM24.247 29.679C22.9833 29.9186 21.9862 29.5995 21.439 28.7801C20.8974 27.9694 20.8953 26.8312 21.4335 26.012C21.981 25.1788 22.9819 24.8474 24.2523 25.0784C24.6286 25.1471 24.991 24.897 25.0596 24.5197C25.128 24.1427 24.878 23.7813 24.5007 23.7129C22.6742 23.3808 21.1328 23.941 20.2726 25.2501C19.4373 26.5217 19.4418 28.29 20.2841 29.5507C20.9775 30.5889 22.1061 31.1441 23.4658 31.1441C23.7996 31.1441 24.1472 31.1106 24.506 31.0425C24.8827 30.9712 25.1302 30.608 25.0585 30.2316C24.9872 29.8549 24.624 29.6077 24.247 29.679ZM32.6509 23.7273C32.3512 23.6433 32.0321 23.7696 31.8702 24.0355L29.9715 27.1612L28.0729 24.0355C27.9114 23.7695 27.5923 23.6433 27.2922 23.7273C26.9924 23.8113 26.7848 24.0843 26.7848 24.3955V30.3608C26.7848 30.7442 27.0958 31.0548 27.4792 31.0548C27.8629 31.0548 28.1736 30.7442 28.1736 30.3608V26.8758L29.3779 28.8585C29.5038 29.0657 29.729 29.1923 29.9715 29.1923C30.2144 29.1923 30.4392 29.0658 30.5652 28.8585L31.7696 26.8758V30.3608C31.7696 30.7442 32.0802 31.0548 32.4639 31.0548C32.8474 31.0548 33.1582 30.7442 33.1582 30.3608V24.3955C33.1582 24.0843 32.9507 23.8113 32.6509 23.7273ZM38.5111 26.6459C38.1817 26.5558 37.8544 26.5543 37.5378 26.5528C37.2566 26.5517 36.9912 26.5505 36.805 26.4824C36.5708 26.397 36.4334 26.2278 36.3969 25.98C36.3497 25.6588 36.4965 25.3094 36.7628 25.1104C37.1485 24.8218 37.7525 24.843 38.4632 25.17C38.8118 25.3303 39.2243 25.1782 39.3846 24.83C39.5449 24.4821 39.3925 24.0699 39.0443 23.9096C37.431 23.1671 36.401 23.6471 35.9304 23.9994C35.2578 24.5027 34.9016 25.3594 35.0229 26.1823C35.1329 26.9284 35.621 27.5278 36.3282 27.7859C36.7422 27.9372 37.1617 27.9392 37.5316 27.9406C37.7683 27.9418 37.9917 27.9427 38.1429 27.9841C38.4615 28.0718 38.573 28.2838 38.6106 28.4462C38.6808 28.7512 38.5527 29.1006 38.2847 29.3364C37.7947 29.7671 36.9204 29.7953 35.8863 29.4133C35.5264 29.2806 35.127 29.4644 34.9943 29.8241C34.8614 30.1834 35.0451 30.5824 35.4051 30.7154C36.1056 30.9741 36.7043 31.073 37.2107 31.0727C38.216 31.0727 38.8563 30.6825 39.2019 30.3784C39.8578 29.8018 40.1496 28.9421 39.9638 28.135C39.7961 27.4072 39.2534 26.8506 38.5111 26.6459ZM43.8617 23.5614V30.6732C43.8617 32.5977 42.2926 34.1634 40.3643 34.1634H19.2999C17.3701 34.1634 15.8 32.5976 15.8 30.6732V23.5614C15.8 21.6383 17.3701 20.0737 19.2999 20.0737H40.3643C42.2926 20.0737 43.8617 21.6383 43.8617 23.5614ZM42.4729 23.5614C42.4729 22.4034 41.5269 21.4616 40.3643 21.4616H19.2999C18.1358 21.4616 17.1886 22.4034 17.1886 23.5614V30.6732C17.1886 31.8323 18.1358 32.7756 19.2999 32.7756H40.3643C41.5269 32.7756 42.4729 31.8323 42.4729 30.6732V23.5614ZM39.9572 45.3208H28.4108C27.7274 45.3273 27.7322 46.3926 28.4108 46.3992C28.6414 46.1496 41.0373 47.0006 40.4818 45.8746C40.4898 45.5768 40.255 45.3289 39.9572 45.3208ZM28.4108 40.654H35.3157C35.6236 40.6632 35.8788 40.4082 35.8695 40.1003C35.8614 39.8025 35.6134 39.5676 35.3157 39.5757H28.4108C27.7281 39.5822 27.7312 40.6474 28.4108 40.654ZM39.9572 42.4481H28.4108C27.7274 42.4546 27.7322 43.5198 28.4108 43.5264C28.6414 43.2769 41.0373 44.1278 40.4818 43.0018C40.4898 42.704 40.255 42.4561 39.9572 42.4481ZM26.5415 41.6021V44.6345C26.5415 46.0134 25.4196 47.1353 24.0407 47.1353H21.0079C19.629 47.1353 18.5071 46.0146 18.5071 44.6369V41.6044C18.5071 40.2255 19.629 39.1036 21.0079 39.1036L24.0407 39.1013C25.4196 39.1013 26.5415 40.2232 26.5415 41.6021ZM24.0407 40.274H21.0079C20.272 40.274 19.6731 40.8728 19.6731 41.6091V44.6416C19.6731 45.3779 20.272 45.9767 21.0079 45.9767H24.0407C24.7766 45.9767 25.3754 45.3779 25.3754 44.6416V41.6091C25.3754 40.8728 24.7766 40.274 24.0407 40.274ZM53.0423 13.3385V47.3484C53.0423 48.8906 52.4418 50.3403 51.3526 51.43C50.2634 52.5197 48.8167 53.1205 47.2753 53.1205H11.7694C10.2278 53.1205 8.77892 52.5197 7.68968 51.43C6.60052 50.3403 6 48.8906 6 47.3484V13.3385C6 11.7964 6.60052 10.3466 7.68968 9.25693C8.77892 8.16721 10.2279 7.56641 11.7694 7.56641H47.2729C48.8144 7.56641 50.2634 8.16721 51.3526 9.25693C52.4418 10.3466 53.0423 11.7964 53.0423 13.3385ZM47.273 8.90425H23.5726L21.1912 14.6566H51.7051V13.3385C51.7051 10.894 49.7164 8.90425 47.273 8.90425ZM7.33716 13.9393V14.6566H19.6883L22.0697 8.90425H11.7694C9.32592 8.90425 7.33712 10.8939 7.33712 13.3385L7.33716 13.9393ZM51.7051 47.3485V16.0444H7.33716V47.3485C7.33716 49.7931 9.32592 51.7828 11.7694 51.7828H47.273C49.7164 51.7828 51.7051 49.7931 51.7051 47.3485Z" fill="url(#paint0_linear_559_2973)"/>
</g>
<defs>
<linearGradient id="paint0_linear_559_2973" x1="6" y1="30.3435" x2="52.3675" y2="30.3435" gradientUnits="userSpaceOnUse">
<stop stop-color="#D24141"/>
<stop offset="1" stop-color="#7C33C6"/>
</linearGradient>
</defs>
</svg>
