<svg width="32" height="32" viewBox="0 0 32 32" fill="none" xmlns="http://www.w3.org/2000/svg">
<path d="M24.8279 20.579C24.8279 20.8346 24.6329 21.0412 24.3839 21.0496H7.61608C7.61206 21.0497 7.60806 21.0497 7.60404 21.0497C7.48432 21.0497 7.36755 21.0017 7.28353 20.9167C7.19399 20.8266 7.14481 20.7068 7.14481 20.579C7.14481 20.4516 7.19549 20.3284 7.28374 20.2409C7.37222 20.1522 7.4934 20.1034 7.6182 20.1085H24.3822C24.6329 20.1152 24.8279 20.3219 24.8279 20.579ZM7.28374 11.7596C7.36947 11.8442 7.48623 11.8921 7.60469 11.8921C7.60849 11.8921 7.6123 11.8921 7.61608 11.892H15.9979C16.1227 11.8944 16.2416 11.847 16.3302 11.7592C16.4193 11.6695 16.4704 11.5463 16.4704 11.4215C16.4704 11.2956 16.4193 11.1719 16.33 11.0819C16.2415 10.9945 16.1235 10.9482 15.9991 10.9495H7.61755C7.49297 10.9483 7.37241 10.9944 7.28353 11.0823C7.19527 11.1709 7.14481 11.2947 7.14481 11.4215C7.14481 11.5472 7.19527 11.6703 7.28353 11.7592L7.28374 11.7596ZM28.8 8.96948V23.0294C28.7968 24.4434 27.674 25.5963 26.2971 25.5998L6.9343 25.6H5.7027C4.32435 25.5965 3.20169 24.4437 3.2 23.0302V8.97057C3.20169 7.55746 4.32391 6.40508 5.70164 6.40162L20.9568 6.40184L26.2962 6.4C27.6735 6.40346 28.7968 7.55606 28.8 8.96948ZM26.295 7.17675L5.7027 7.17837C4.74135 7.18075 3.95802 7.98495 3.95674 8.97108V23.0296C3.95802 24.0162 4.74157 24.8208 5.70376 24.8232L26.296 24.823C27.2572 24.8206 28.0409 24.0155 28.0433 23.0285V8.9703C28.0409 7.98384 27.2567 7.17913 26.295 7.17675ZM24.3822 15.5295H7.6182C7.4987 15.5254 7.37222 15.5729 7.28374 15.6619C7.19549 15.7493 7.14481 15.8726 7.14481 16C7.14481 16.1278 7.19399 16.2477 7.28374 16.3382C7.36947 16.4228 7.48623 16.4707 7.60447 16.4707C7.60828 16.4707 7.61228 16.4707 7.61608 16.4706H24.3839C24.6328 16.4622 24.8279 16.2555 24.8279 16.0001C24.8279 15.7429 24.6329 15.5362 24.3822 15.5295Z" fill="white"/>
</svg>
