<svg width="60" height="61" viewBox="0 0 60 61" fill="none" xmlns="http://www.w3.org/2000/svg">
<g id="CRM">
<path id="Vector" d="M15.8579 9.49381C17.8536 9.49381 19.471 11.1517 19.471 13.1992C19.471 14.4864 18.8261 15.6378 17.8215 16.3078C20.0135 16.4254 21.7594 18.2965 21.7594 20.5586V24.1648C21.7594 24.5265 21.4738 24.8195 21.1211 24.8195H10.5969C10.2442 24.8195 9.95852 24.5265 9.95852 24.1648V20.5586C9.95852 18.2952 11.7045 16.424 13.8965 16.3078C11.9701 15.0269 11.6747 12.2472 13.3038 10.5777C13.959 9.90673 14.8619 9.49381 15.8579 9.49381ZM17.5115 11.5001C16.0428 9.99705 13.5195 11.0676 13.5195 13.1982C13.5195 15.3288 16.0418 16.4 17.5115 14.8926C18.4258 13.9582 18.4258 12.4388 17.5115 11.5001ZM17.6071 17.6102H14.1089C12.5288 17.6102 11.2339 18.9379 11.2339 20.5586V23.5103H20.485V20.5586C20.485 18.9379 19.1872 17.6102 17.6071 17.6102ZM15.8579 6.06641C21.8965 6.06641 26.7678 11.1351 26.671 17.3378C27.3666 17.0013 28.0921 16.7322 28.8448 16.5386V15.3743C28.8448 14.3765 29.6392 13.562 30.6121 13.562H33.1681C34.1433 13.562 34.9384 14.3764 34.9384 15.3743V16.5386C36.0739 16.8349 37.1485 17.2923 38.148 17.9032L38.9519 17.0787C39.6411 16.3752 40.7636 16.3752 41.4538 17.0787L43.2603 18.9346C43.9495 19.6415 43.9495 20.7928 43.2603 21.5007L42.4597 22.3218C43.0521 23.3502 43.5013 24.4524 43.7902 25.6167H44.9254C45.8983 25.6167 46.6927 26.4312 46.6927 27.4324V30.0506C46.6927 31.0504 45.8983 31.8662 44.9254 31.8662H43.7902C43.5013 33.0305 43.0531 34.1327 42.4597 35.1608L43.2603 35.9819C43.9495 36.6888 43.9495 37.8401 43.2603 38.548L41.4538 40.4039C40.7646 41.1078 39.642 41.1078 38.9519 40.4039L38.148 39.5794C37.1485 40.1906 36.0739 40.648 34.9384 40.9443V42.1086C34.9384 43.1061 34.1443 43.921 33.1681 43.921H30.6121C29.6392 43.921 28.8448 43.1061 28.8448 42.1086V40.9443C28.3266 40.8081 27.8094 40.6361 27.3158 40.4311C26.2525 41.3177 24.9016 41.8482 23.4352 41.8482H10.6743C7.27914 41.8482 4.5 38.9991 4.5 35.5159C4.5 32.0307 7.27621 29.1803 10.6743 29.1803H17.0899V28.1772C10.6626 28.9246 5.04604 23.7748 5.04604 17.1582C5.04475 11.0309 9.88535 6.06641 15.8579 6.06641ZM26.5414 18.8725C25.8671 23.3216 22.61 26.9115 18.3653 27.9462V29.1782H23.4352C23.5466 29.1782 23.6551 29.1812 23.7665 29.1869C23.5106 24.4108 27.2319 20.3942 31.8918 20.3942C36.3829 20.3942 40.0287 24.1298 40.0287 28.7391C40.0287 34.3645 34.7156 38.3596 29.498 36.714C29.3079 37.7171 28.8875 38.6373 28.2939 39.4116C28.6252 39.5295 29.2506 39.7198 29.567 39.7756C29.8805 39.8192 30.1182 40.0935 30.1182 40.4237V42.1029C30.1182 42.3809 30.3414 42.6094 30.6121 42.6094H33.1681C33.4392 42.6094 33.662 42.3809 33.662 42.1029V40.4237H33.6652C33.6652 40.1208 33.8703 39.8497 34.1708 39.7843C34.8354 39.6428 35.4835 39.4358 36.1004 39.1701C36.7174 38.9073 37.3046 38.5928 37.8558 38.2277C38.1056 38.0307 38.4644 38.0493 38.6927 38.2835L39.8512 39.4717C40.0436 39.6687 40.36 39.6687 40.5521 39.4717L42.3587 37.6191C42.5488 37.4241 42.5488 37.0973 42.3587 36.9023L41.2002 35.7141V35.7108C40.9919 35.4972 40.9504 35.1587 41.1182 34.8959C41.4826 34.3189 41.8013 33.7044 42.0633 33.0563C42.3162 32.4325 42.5115 31.7877 42.654 31.1177C42.6964 30.7998 42.9607 30.5557 43.2859 30.5557H44.9234C45.1941 30.5557 45.4173 30.3238 45.4173 30.0461V27.4276C45.4173 27.1499 45.1941 26.918 44.9234 26.918H43.2859C42.9873 26.918 42.7262 26.7044 42.6624 26.3995C42.5212 25.7145 42.3195 25.0535 42.0633 24.4174C41.8074 23.7846 41.5007 23.1854 41.1448 22.6203C40.9527 22.3642 40.9705 21.9938 41.1989 21.7586L42.3577 20.5704C42.5478 20.3754 42.5478 20.0486 42.3577 19.8536L40.5511 18.001C40.3591 17.804 40.0423 17.804 39.8503 18.001L38.6918 19.1892V19.1862C38.4835 19.3995 38.1532 19.442 37.8973 19.2723C37.3344 18.8952 36.7356 18.5717 36.1004 18.3026C35.4951 18.0436 34.8633 17.8399 34.2132 17.6971C33.903 17.6536 33.662 17.3792 33.662 17.049V15.3698C33.662 15.0918 33.4392 14.8633 33.1681 14.8633H30.6121C30.3414 14.8633 30.1182 15.0918 30.1182 15.3698V17.049C30.1182 17.352 29.91 17.623 29.6094 17.6884C28.5381 17.9216 27.4962 18.327 26.5414 18.8725ZM22.6047 10.2379C18.8782 6.41917 12.8387 6.41917 9.11222 10.2379C5.38897 14.0562 5.38897 20.2537 9.11222 24.072C12.8387 27.8941 18.8782 27.8941 22.6047 24.072C26.328 20.2527 26.328 14.0562 22.6047 10.2379ZM12.9618 37.3717C13.3112 37.3717 13.5969 37.6647 13.5969 38.0264C13.5969 38.3878 13.3113 38.6808 12.9618 38.6808H11.5773C9.87595 38.6808 8.4888 37.2542 8.4888 35.5139C8.4888 33.769 9.87693 32.3466 11.5773 32.3466H12.9618C13.3112 32.3466 13.5969 32.6395 13.5969 32.9976C13.5969 33.3594 13.3113 33.6524 12.9618 33.6524H11.5773C9.98738 33.6524 9.14529 35.6434 10.2973 36.8263C10.6257 37.1628 11.0801 37.3731 11.5773 37.3731H12.9618V37.3717ZM20.9724 38.0264C20.9724 38.3878 20.6868 38.6808 20.3341 38.6808C19.9849 38.6808 19.6993 38.3879 19.6993 38.0264V32.9966C19.6993 32.4283 20.3852 32.0914 20.8186 32.5741L22.6579 34.4672L24.5334 32.5402C24.9337 32.1264 25.6164 32.4226 25.6164 32.9976H25.6197V38.0274C25.6197 38.3892 25.334 38.6822 24.9813 38.6822C24.629 38.6822 24.3465 38.3892 24.3465 38.0274V34.5781L23.1071 35.8504C22.8606 36.1028 22.457 36.1028 22.2096 35.847L20.9724 34.5781L20.9724 38.0264ZM17.472 36.0287L18.4533 37.6899C18.6373 37.9958 18.5405 38.3968 18.2399 38.5818C17.9416 38.7702 17.5507 38.6712 17.3703 38.3629L16.0428 36.1147H15.7687V38.0264C15.7687 38.3878 15.4863 38.6808 15.1336 38.6808C14.7809 38.6808 14.4953 38.3878 14.4953 38.0264V32.9966C14.4953 32.6382 14.7809 32.3452 15.1336 32.3452H16.9039C18.5744 32.3452 19.457 34.3764 18.2347 35.5713C18.0222 35.7796 17.7609 35.9364 17.472 36.0287ZM15.7678 33.6523V34.81H16.903C17.451 34.81 17.7334 34.2024 17.3574 33.8344C17.2427 33.7231 17.0833 33.6523 16.903 33.6523H15.7678ZM25.0578 29.4034C27.6588 30.1322 29.5521 32.5555 29.6094 35.384C34.0167 36.9774 38.752 33.637 38.752 28.7401C38.752 24.853 35.682 21.7009 31.8918 21.7009C27.8541 21.7009 24.6905 25.2452 25.0578 29.4034ZM23.4352 30.4874H10.6743C7.98032 30.4874 5.77347 32.7505 5.77347 35.5138C5.77347 38.2772 7.98032 40.54 10.6743 40.54H23.4352C26.1294 40.54 28.3363 38.2769 28.3363 35.5138C28.3363 32.7508 26.1295 30.4874 23.4352 30.4874ZM27.2585 8.36009C26.9184 8.44081 26.5754 8.22057 26.4971 7.86881C26.4184 7.51705 26.6328 7.16857 26.9757 7.08785C34.3726 5.34093 41.9616 7.63129 47.2142 13.0215C55.6792 21.7033 55.6792 35.775 47.2142 44.4567C40.9016 50.9305 31.3162 52.7954 23.1187 49.066L24.2688 52.4C24.3867 52.7398 24.2115 53.1132 23.8801 53.2331C23.5488 53.3507 23.1877 53.1743 23.0698 52.8345L21.3993 47.9997C21.2814 47.6599 21.4566 47.2862 21.7879 47.1666L26.5022 45.4532C26.8335 45.3323 27.1979 45.512 27.3125 45.8518C27.4304 46.1916 27.2552 46.5654 26.9239 46.683L23.6392 47.8778C31.3461 51.3793 40.3708 49.6247 46.3135 43.5309C54.2785 35.3624 54.2785 22.1172 46.3135 13.9473C41.3741 8.88193 34.1974 6.70885 27.2585 8.36009Z" fill="url(#paint0_linear_559_2960)"/>
</g>
<defs>
<linearGradient id="paint0_linear_559_2960" x1="4.5" y1="29.668" x2="52.8592" y2="29.668" gradientUnits="userSpaceOnUse">
<stop stop-color="#D24141"/>
<stop offset="1" stop-color="#7C33C6"/>
</linearGradient>
</defs>
</svg>
