<svg width="61" height="60" viewBox="0 0 61 60" fill="none" xmlns="http://www.w3.org/2000/svg">
<path fill-rule="evenodd" clip-rule="evenodd" d="M35.4639 46.4231C35.4092 46.1503 35.2513 45.903 35.0234 45.7268C34.7956 45.5506 34.5069 45.454 34.2092 45.454H25.4506C25.1529 45.454 24.8673 45.5506 24.6364 45.7297C24.4086 45.9059 24.2506 46.1531 24.1959 46.426L23.4243 50.2144C23.3878 50.3878 23.3939 50.5668 23.4394 50.7374C23.5093 50.996 23.6673 51.2234 23.8921 51.3882C24.1169 51.5531 24.3903 51.6412 24.6759 51.6412H34.9839C35.1723 51.6412 35.3576 51.6014 35.5277 51.5275C35.7859 51.4138 35.9956 51.2262 36.1231 50.9903C36.2507 50.7545 36.2933 50.4845 36.2386 50.223L35.4639 46.4231ZM24.8156 50.331L25.5477 46.7557H34.1119L34.838 50.331H24.8156ZM39.3161 24.1955V24.2068C39.0487 25.3266 38.5779 26.3952 37.9186 27.3644C37.6027 27.8333 37.2442 28.2738 36.8462 28.6831C36.4513 29.1094 36.0138 29.4959 35.5369 29.837C33.7627 31.1585 31.5662 31.8861 29.2967 31.9031H29.157C26.8906 31.8633 24.7397 31.1301 23.0931 29.837C21.9508 28.9559 21.0636 27.8248 20.5077 26.5402L20.4773 26.4691L20.4013 26.4407C20.0611 26.31 19.733 26.1508 19.4262 25.9661L18.9735 25.6961L19.1375 26.1764C19.7361 27.9271 20.8601 29.4788 22.3761 30.6441C24.2019 32.0878 26.602 32.912 29.1327 32.9575H29.2816C31.8122 32.9547 34.2639 32.1475 36.2387 30.6697L36.2478 30.664C36.7703 30.2831 37.2564 29.8569 37.6939 29.3907C38.1283 28.936 38.5232 28.45 38.8726 27.9356C39.5957 26.8641 40.1152 25.6847 40.4038 24.4456L40.4524 24.2495C40.4949 24.0534 40.5192 23.8516 40.5284 23.6498C40.5527 22.7745 40.2063 21.9247 39.5623 21.2852C38.9182 20.6486 38.0311 20.2735 37.0954 20.2451H36.9891C36.0716 20.2451 35.1936 20.5804 34.5344 21.1773C33.8751 21.7741 33.4923 22.5869 33.462 23.4452C33.4498 23.988 33.3343 24.5252 33.1217 25.0311C33.0093 25.2841 32.8787 25.5285 32.7268 25.7615L32.7146 25.7814C32.5475 26.0343 32.3592 26.2702 32.1465 26.4919C31.2898 27.4042 30.1202 28.0095 28.8381 28.2085C27.4315 28.4159 25.9915 28.1687 24.7581 27.5008C24.4482 27.3359 24.1535 27.1455 23.8771 26.9324L23.8193 26.8869L23.7434 26.8926C23.5915 26.9011 23.4457 26.9068 23.3029 26.9096L23.1175 26.9181H23.1054C22.993 26.9181 22.8533 26.9181 22.6892 26.9068L22.1788 26.8755L22.5342 27.2194C23.2269 27.8901 24.0563 28.4216 24.9737 28.7854C25.8912 29.1491 26.8786 29.3367 27.8751 29.3367H27.8933C28.273 29.3367 28.6528 29.3111 29.0295 29.2571C30.6093 29.007 32.022 28.2766 33.0002 27.2023L33.0154 27.1881C33.2675 26.9181 33.4954 26.6282 33.6898 26.3213C33.8782 26.0343 34.0392 25.733 34.1729 25.4176V25.409C34.4311 24.7923 34.5769 24.1358 34.5982 23.4736C34.6073 23.178 34.6802 22.8853 34.8078 22.6153C34.9384 22.3453 35.1238 22.1038 35.3577 21.902C35.8043 21.5154 36.3906 21.3023 36.9982 21.2994H37.065C37.381 21.3051 37.6939 21.3705 37.9825 21.4927C38.2711 21.6121 38.5324 21.7854 38.7481 22.0014L38.7572 22.0099C39.1886 22.4448 39.4195 23.0217 39.4012 23.6128L39.4043 23.6413C39.3982 23.7663 39.3799 23.8914 39.3496 24.0164L39.3161 24.1955ZM26.605 18.6279C23.5305 18.6763 21.9204 20.876 21.4525 22.1663L21.4464 22.1862L21.4373 22.2004C21.2429 22.4817 20.8966 22.638 20.4712 22.638H20.4621C20.289 22.638 20.1189 22.6835 19.97 22.7688C19.8211 22.8569 19.7057 22.9819 19.6328 23.1297C19.5598 23.2775 19.5325 23.4423 19.5598 23.6044C19.575 23.7152 19.6145 23.8204 19.6753 23.917L19.8697 24.1415C20.9391 25.1845 22.7528 25.2385 23.1082 25.2385H23.3027C25.1528 25.1874 26.5989 24.6559 27.6045 23.6612C28.6739 22.604 28.9382 21.3137 29.002 20.6344L29.0081 20.5748L41.6736 9.58174L41.7131 9.54479C41.7374 9.52203 41.7617 9.50216 41.783 9.47944C41.9804 9.28052 42.1354 9.04744 42.2356 8.79169C42.3359 8.53593 42.3814 8.2659 42.3693 7.99307C42.3541 7.58382 42.2083 7.18877 41.9531 6.85627C41.6979 6.52377 41.3424 6.27081 40.9323 6.12872C40.5222 5.98662 40.0756 5.96103 39.6503 6.05765C39.2249 6.15143 38.8391 6.36459 38.5414 6.66586L26.6778 18.628L26.605 18.6279ZM39.5409 7.52974C39.6533 7.41604 39.8022 7.3365 39.9632 7.29954C40.1242 7.26259 40.2944 7.27394 40.4493 7.32798C40.6042 7.38201 40.741 7.47859 40.8382 7.60365C40.9354 7.72871 40.9931 7.87932 40.9992 8.03281C41.0022 8.14363 40.981 8.2545 40.9354 8.35964C40.8898 8.46194 40.823 8.55572 40.7379 8.63531L28.3154 19.3669L28.039 19.1338L39.5409 7.52974ZM27.4071 20.9613L27.559 21.0039L27.5225 21.1488C27.3736 21.757 27.0577 22.3169 26.608 22.7745C25.8485 23.5248 24.6971 23.9227 23.1933 23.9567H23.1082C22.7284 23.951 22.3517 23.9056 21.9841 23.8118L21.6864 23.6725L21.9143 23.5304C22.218 23.34 22.4733 23.0871 22.6556 22.7887L22.7254 22.6437L22.7406 22.6096C22.8287 22.3623 23.6824 20.191 26.2161 19.9352L26.3498 19.921L26.3923 20.0376C26.4653 20.2593 26.5989 20.4582 26.7751 20.6202C26.9513 20.7794 27.1701 20.8987 27.4071 20.9613ZM53.9139 46.264L51.6566 40.9806C51.5594 40.7589 51.4288 40.5514 51.2708 40.3639L51.0551 40.1024L51.289 39.858C51.7751 39.355 52.0485 38.7041 52.0546 38.0249V23.3884H52.0728L52.1639 18.0652C52.1639 16.2832 51.4257 14.6036 50.0829 13.3389C48.74 12.0742 46.9506 11.4546 45.0458 11.4404V11.4432H40.4523L38.8452 12.8358H45.0367V12.8301C48.0474 12.85 50.499 15.2459 50.499 18.0623L50.5902 23.3855H50.578V38.0249C50.578 38.3858 50.4262 38.7354 50.1558 38.994C49.8854 39.2526 49.5178 39.4032 49.132 39.4146H11.7733C11.3845 39.4061 11.0138 39.2583 10.7404 38.9997C10.4669 38.7411 10.312 38.3915 10.309 38.0277V23.3628L10.3667 18.014C10.391 15.1975 12.8579 12.9069 15.8686 12.9069L21.5588 12.8386H31.6876L33.0638 11.4489H21.5588L15.8686 11.3437C13.9637 11.3437 12.1682 12.0343 10.8163 13.2906C9.4644 14.5468 8.71095 16.2207 8.69578 18.0027L8.82643 23.3571V38.0249C8.82946 38.7041 9.1029 39.3578 9.59201 39.8609L9.82594 40.1024L9.61022 40.361C9.44922 40.5486 9.32161 40.7589 9.22439 40.9806L6.97322 46.2412C6.97322 46.2412 6.38386 48.063 6.52058 49.0122C6.64819 49.9018 7.00665 50.7686 7.55656 51.5161C8.10647 52.2635 8.84468 52.8831 9.68927 53.3122C10.5885 53.767 11.5728 54 12.6118 54H12.621L15.5435 53.9233H45.4468L48.3694 53.9716H48.3785C49.4175 53.9716 50.4018 53.8266 51.3011 53.3691C52.1457 52.9399 52.8839 52.3203 53.4338 51.5729C53.9837 50.8254 54.3422 49.9615 54.4698 49.0691C54.6004 48.1198 54.2875 47.1763 53.9139 46.264ZM52.0515 50.6862C51.2039 51.8344 49.8642 52.4937 48.3725 52.4937H48.3664L45.4438 52.5364H15.5375L12.6149 52.4369H12.6088C11.1171 52.4369 9.77738 51.7776 8.92976 50.6294C8.46493 49.9985 8.33736 48.8901 8.31607 48.0147C8.40722 46.6988 8.83861 45.6075 8.83861 45.6075L10.5976 41.495C10.6858 41.2876 10.8376 41.1114 11.0351 40.9863C11.2326 40.8613 11.4635 40.7959 11.7004 40.7931H49.1776C49.4145 40.7931 49.6485 40.8584 49.8459 40.9835C50.0434 41.1086 50.1953 41.2848 50.2834 41.4922L52.5559 46.8153L52.5468 46.8182C53.0815 48.1284 52.8991 49.5352 52.0515 50.6862Z" fill="url(#paint0_linear_712_2697)"/>
<defs>
<linearGradient id="paint0_linear_712_2697" x1="6.5" y1="30" x2="53.8115" y2="30" gradientUnits="userSpaceOnUse">
<stop stop-color="#D24141"/>
<stop offset="1" stop-color="#7C33C6"/>
</linearGradient>
</defs>
</svg>
