<svg width="60" height="61" viewBox="0 0 60 61" fill="none" xmlns="http://www.w3.org/2000/svg">
<g id="design-maintenance">
<path id="Vector" d="M33.9785 31.1409C33.9785 31.3034 33.9152 31.4561 33.8004 31.5714C33.6856 31.6862 33.5328 31.7495 33.3703 31.7495C33.2078 31.7495 33.0551 31.6862 32.9402 31.5714L24.784 23.4147C24.6692 23.3001 24.6059 23.1473 24.6059 22.9848C24.6059 22.8225 24.6692 22.6698 24.784 22.555C25.0133 22.3258 25.4133 22.3249 25.6438 22.5548L33.8004 30.7112C33.9148 30.8256 33.9781 30.9784 33.9785 31.1409ZM23.3484 24.8501C23.118 24.6202 22.7176 24.6214 22.4887 24.8503C22.3738 24.9651 22.3106 25.1178 22.3106 25.2802C22.3106 25.4426 22.3738 25.5954 22.4887 25.71L30.6449 33.8667C30.7637 33.985 30.9191 34.0444 31.075 34.0444C31.2309 34.0444 31.3863 33.985 31.5051 33.8667C31.6199 33.7514 31.6832 33.5987 31.6832 33.4362C31.6828 33.2737 31.6195 33.121 31.5051 33.0065L23.3484 24.8501ZM38.3812 27.4694C37.852 27.9964 37.0207 28.8256 36.0406 29.8044L45.9273 39.6909C46.9476 40.7116 47.4668 42.0315 47.4668 43.305C47.4672 44.4241 47.0664 45.5073 46.2539 46.3202C44.5156 48.0573 41.543 47.9112 39.6246 45.9936L29.7363 36.105L27.368 38.4733C27.1715 38.6694 27.0938 38.9581 27.1644 39.226L27.173 39.2608C27.9222 42.2358 27.043 45.4272 24.8738 47.5967C23.232 49.2377 20.9816 50.1651 18.6625 50.1651C18.5719 50.1651 18.4813 50.1639 18.3902 50.1608C17.5816 50.1397 16.8539 49.644 16.5375 48.8983C16.2207 48.1526 16.37 47.2846 16.9172 46.687C18.1871 45.3233 18.9504 44.2733 19.3219 43.3784C19.7301 42.3968 19.6348 41.6546 19.0227 41.0425C18.411 40.4296 17.6688 40.335 16.6871 40.7433C15.5125 41.2308 14.2375 42.3472 13.3805 43.1441C12.7801 43.6937 11.9121 43.8421 11.1676 43.5265C10.4227 43.2101 9.92736 42.4832 9.90548 41.6742C9.82892 39.2605 10.7633 36.8972 12.4688 35.1914C14.6356 33.0254 17.8262 32.1437 20.8035 32.8855L20.8629 32.9019C21.1062 32.9652 21.393 32.8875 21.5871 32.6926C22.116 32.1668 22.9597 31.3246 23.9582 30.3273L17.1863 23.5552C17.1855 23.5546 17.1847 23.5539 17.1843 23.5533L15.6722 22.0414C15.1589 21.5283 14.6999 20.654 14.3081 19.4431C14.2452 19.2494 14.1858 19.0517 14.1288 18.8517C14.1132 18.7955 14.0976 18.7402 14.0828 18.6857C14.082 18.683 14.0812 18.68 14.0804 18.6771C13.7288 17.3906 13.4972 16.032 13.3578 15.0472C13.2832 14.5849 13.4242 14.1328 13.7453 13.8117C14.0672 13.4908 14.5191 13.3506 14.9859 13.4259C16.1633 13.5919 17.8859 13.8919 19.3766 14.3742C20.5852 14.7654 21.459 15.2238 21.973 15.7366C21.9738 15.7374 21.9746 15.7382 21.9754 15.739L30.2629 24.0265L32.6309 21.6584C32.8215 21.4679 32.9008 21.1906 32.8406 20.9289L32.8336 20.9014C32.0707 17.9174 32.9488 14.7117 35.125 12.5352C36.8312 10.8293 39.2039 9.89783 41.609 9.97187C42.4168 9.99355 43.1438 10.4889 43.4602 11.234C43.7762 11.9793 43.6277 12.8465 43.0812 13.4434C42.2808 14.3037 41.1648 15.5785 40.677 16.7533C40.2688 17.7348 40.3641 18.4772 40.9762 19.0894C41.5886 19.7019 42.3308 19.7959 43.3121 19.3886C44.2066 19.0168 45.257 18.2537 46.6172 16.9869C47.218 16.4363 48.0855 16.2865 48.832 16.6037C49.5777 16.9203 50.0734 17.648 50.0945 18.4578C50.1703 20.8717 49.2355 23.235 47.5304 24.94C45.355 27.1142 42.1496 27.9955 39.1636 27.2381C38.8925 27.167 38.6058 27.2443 38.412 27.439L38.3812 27.4694ZM31.1226 24.8864L35.1808 28.9444C36.18 27.9466 37.0246 27.1036 37.5527 26.5784C38.0504 26.0806 38.784 25.8821 39.4644 26.0596C42.0348 26.7106 44.798 25.9524 46.6703 24.0802C48.1398 22.6106 48.9449 20.5743 48.8793 18.4932C48.8703 18.155 48.6652 17.854 48.357 17.7231C48.05 17.593 47.6902 17.6534 47.4426 17.88C45.975 19.2462 44.8101 20.0827 43.7785 20.5114C42.3242 21.1155 41.0926 20.9256 40.116 19.9491C39.1394 18.9719 38.95 17.7397 39.5535 16.2866C39.9824 15.2548 40.8188 14.0897 42.186 12.6202C42.4098 12.3753 42.4715 12.0169 42.3406 11.7091C42.2102 11.4011 41.9098 11.1964 41.575 11.1874C39.5004 11.1214 37.4555 11.9253 35.9852 13.3948C34.111 15.269 33.3543 18.029 34.0113 20.5976C34.191 21.2802 33.9918 22.0167 33.4914 22.5181L31.1226 24.8864ZM42.6144 38.0979L39.3453 34.8288L34.7625 39.4116L38.0316 42.6807L42.6144 38.0979ZM28.8766 35.2452L24.818 31.187C23.8188 32.185 22.9742 33.028 22.4465 33.553C21.9488 34.0503 21.216 34.2491 20.5348 34.0718C17.9637 33.4206 15.2012 34.1788 13.3289 36.0514C11.8375 37.5424 11.0535 39.5264 11.1211 41.6382C11.1301 41.9757 11.3348 42.276 11.6426 42.4069C11.9512 42.5382 12.309 42.4757 12.5559 42.2507C14.0242 40.8847 15.1895 40.0483 16.2207 39.6198C16.7746 39.3898 17.2961 39.2749 17.784 39.2749C18.5762 39.2749 19.2785 39.5776 19.8832 40.1824C20.8598 41.1597 21.0488 42.3921 20.4453 43.8448C20.0164 44.8765 19.1797 46.0413 17.8121 47.5105C17.5875 47.7558 17.5258 48.1148 17.657 48.4234C17.7879 48.7316 18.0887 48.9366 18.4238 48.9456C20.534 49.0066 22.5227 48.2273 24.0137 46.7366C25.8883 44.8624 26.6445 42.1023 25.9875 39.5339C25.8082 38.8503 26.007 38.114 26.5074 37.6136L28.8766 35.2452ZM14.5594 14.8588C14.6582 15.5561 14.8023 16.436 15.0016 17.333L17.2672 15.0678C16.3703 14.8688 15.4949 14.7258 14.8078 14.6289C14.7852 14.6252 14.7637 14.6232 14.7438 14.6232C14.6828 14.6232 14.6363 14.6404 14.6047 14.6721C14.5633 14.7135 14.5465 14.7817 14.5594 14.8588ZM15.4648 19.0682C15.6352 19.5946 15.809 20.0317 15.9883 20.3844C16.1566 20.7145 16.3308 20.9731 16.5102 21.1588C16.5176 21.1664 16.525 21.1741 16.5324 21.1815L17.6141 22.2629L22.1969 17.6801L21.1152 16.5987C21.1094 16.5926 21.1031 16.5864 21.0965 16.5803C20.8965 16.3858 20.6102 16.1971 20.2398 16.0155C19.9016 15.8498 19.4902 15.6891 19.0023 15.5311C18.882 15.4922 18.7601 15.4546 18.6367 15.418L15.3519 18.703C15.3882 18.8262 15.4262 18.9481 15.4648 19.0682ZM30.1723 34.8214L33.9028 38.5518L38.4856 33.969L34.7563 30.2399C34.7547 30.238 34.7528 30.2362 34.7508 30.2342L23.0566 18.5401L18.4738 23.1231L30.1664 34.8151C30.1684 34.817 30.1704 34.8194 30.1723 34.8214ZM40.4848 45.1335C41.9281 46.5772 44.1312 46.7233 45.3938 45.4596C45.9707 44.8831 46.2535 44.1104 46.2535 43.3042C46.2531 42.344 45.8516 41.3354 45.0672 40.551L43.4742 38.9577L38.8914 43.5405L40.4848 45.1335Z" fill="url(#paint0_linear_559_2906)"/>
</g>
<defs>
<linearGradient id="paint0_linear_559_2906" x1="9.90112" y1="30.0664" x2="49.5222" y2="30.0664" gradientUnits="userSpaceOnUse">
<stop stop-color="#D24141"/>
<stop offset="1" stop-color="#7C33C6"/>
</linearGradient>
</defs>
</svg>
