<svg width="60" height="60" viewBox="0 0 60 60" fill="none" xmlns="http://www.w3.org/2000/svg">
<path d="M29.7522 33.7742L22.653 30.9396L24.269 30.2252L30.3293 32.6451L30.37 32.6616L36.2724 30.2261L37.8448 30.9444L31.003 33.7673C30.6062 33.9314 30.1513 33.9333 29.7522 33.7742ZM45.9586 27.5967L44.386 26.8783L38.3212 29.3808L39.8935 30.0991L45.9586 27.5967ZM15.885 26.8776L14.269 27.592L20.5502 30.1L22.1662 29.3856L15.885 26.8776ZM6.88165 24.6423L12.1657 26.7522L13.7818 26.0378L7.27237 23.4386L7.45501 23.3577L30.3696 13.2282L52.7218 23.4389L52.5425 23.5128L46.4346 26.033L48.0073 26.7514L53.1353 24.6356C53.6646 24.4171 53.9882 23.9779 53.9996 23.4614C54.0113 22.9446 53.7083 22.495 53.1892 22.2577L31.0565 12.1473C30.6328 11.954 30.1254 11.9506 29.6986 12.1392L6.82889 22.2497C6.30636 22.4806 5.9889 22.9447 6.0003 23.4611C6.01208 23.9772 6.34964 24.4296 6.88165 24.6423ZM53.1893 29.3118L48.0031 26.9427L47.894 26.8929L47.785 26.8431L46.2124 26.1247L46.1033 26.0748L45.9942 26.025L31.0566 19.2014C30.8417 19.1034 30.6051 19.0544 30.3685 19.0544C30.1388 19.0544 29.9091 19.1007 29.6991 19.1937L14.2347 26.0299L14.1225 26.0795L14.0104 26.1291L12.3944 26.8435L12.2826 26.8929L12.1706 26.9424L6.82889 29.3038C6.30636 29.5347 5.9889 29.9991 6.0003 30.5155C6.01208 31.0313 6.34964 31.484 6.88165 31.6964L12.1662 33.8065L13.782 33.0922L7.27241 30.4931L7.45505 30.4122L13.817 27.5997L13.929 27.5502L14.0407 27.5008L15.6567 26.7864L15.7688 26.7369L15.8809 26.6873L30.3696 20.2822L44.3899 26.6869L44.499 26.7367L44.6082 26.7866L46.1808 27.505L46.2898 27.5548L46.3988 27.6046L52.7218 30.493L52.5426 30.5668L46.4347 33.0871L48.0074 33.8055L53.1353 31.6897C53.6647 31.4713 53.9878 31.0327 53.9996 30.5159C54.0114 29.9994 53.7088 29.5491 53.1893 29.3118ZM30.37 39.7156L30.3294 39.6991L15.8848 33.9317L14.269 34.6461L29.7522 40.8283C30.1513 40.9874 30.6066 40.9853 31.003 40.8216L45.9587 34.6508L44.386 33.9324L30.37 39.7156ZM53.9996 37.5699C53.9878 38.0867 53.6647 38.5253 53.1353 38.7437L31.003 47.8756C30.6062 48.0391 30.1513 48.0414 29.7522 47.8827L6.88165 38.7504C6.34964 38.538 6.01208 38.0853 6.0003 37.5692C5.9889 37.0531 6.30636 36.589 6.82889 36.3581L12.171 33.9965L12.2828 33.9471L12.3946 33.8976L14.0104 33.1833L14.1227 33.1337L14.2347 33.0842L20.555 30.2901L20.6669 30.2406L20.7787 30.1912L22.3947 29.4768L22.5068 29.4273L22.6188 29.3777L29.6991 26.2477C29.909 26.1548 30.1388 26.1084 30.3685 26.1084C30.6051 26.1084 30.8417 26.1574 31.0566 26.2554L37.8806 29.3727L37.9896 29.4225L38.0989 29.4725L39.6714 30.1907L39.7804 30.2406L39.8893 30.2903L45.9942 33.0791L46.1034 33.1289L46.2124 33.1787L47.7851 33.8972L47.8942 33.947L48.0032 33.9968L53.1893 36.3658C53.7088 36.6031 54.0114 37.0535 53.9996 37.5699ZM52.7218 37.5471L46.3989 34.6587L46.2899 34.6089L46.1809 34.5591L44.6082 33.8406L44.4991 33.7908L44.3899 33.7409L38.2851 30.9522L38.1762 30.9024L38.0671 30.8526L36.4947 30.1343L36.3854 30.0844L36.2764 30.0345L30.3696 27.3362L24.2649 30.035L24.1528 30.0845L24.0408 30.134L22.4247 30.8484L22.313 30.8979L22.201 30.9473L15.8807 33.7414L15.7687 33.7909L15.6564 33.8405L14.0406 34.5548L13.9287 34.6043L13.8169 34.6537L7.45497 37.4662L7.27233 37.547L30.3293 46.7531L30.3699 46.7696L52.5425 37.6209L52.7218 37.5471Z" fill="url(#paint0_linear_712_2273)"/>
<defs>
<linearGradient id="paint0_linear_712_2273" x1="6" y1="30" x2="53.3115" y2="30" gradientUnits="userSpaceOnUse">
<stop stop-color="#D24141"/>
<stop offset="1" stop-color="#7C33C6"/>
</linearGradient>
</defs>
</svg>
