<svg width="41" height="42" viewBox="0 0 41 42" fill="none" xmlns="http://www.w3.org/2000/svg">
<path fill-rule="evenodd" clip-rule="evenodd" d="M8.98347 20.5333C8.98347 19.1995 9.20498 17.9209 9.60034 16.7215L2.68012 11.437C1.33141 14.1754 0.571533 17.261 0.571533 20.5333C0.571533 23.8027 1.33048 26.8865 2.67732 29.623L9.5938 24.3282C9.20218 23.1345 8.98347 21.8605 8.98347 20.5333Z" fill="#FBBC05"/>
<path fill-rule="evenodd" clip-rule="evenodd" d="M21.134 8.4C24.0315 8.4 26.6485 9.42667 28.7048 11.1067L34.6866 5.13333C31.0414 1.96 26.3681 0 21.134 0C13.0081 0 6.02432 4.64707 2.68011 11.4371L9.60033 16.7216C11.1949 11.8813 15.7401 8.4 21.134 8.4Z" fill="#EB4335"/>
<path fill-rule="evenodd" clip-rule="evenodd" d="M21.134 32.6666C15.7401 32.6666 11.1949 29.1852 9.60033 24.345L2.68011 29.6286C6.02432 36.4195 13.0081 41.0666 21.134 41.0666C26.1494 41.0666 30.9377 39.2858 34.5314 35.9491L27.9626 30.8708C26.1092 32.0384 23.7754 32.6666 21.134 32.6666Z" fill="#34A853"/>
<path fill-rule="evenodd" clip-rule="evenodd" d="M40.7619 20.5334C40.7619 19.32 40.5749 18.0134 40.2945 16.8H21.134V24.7334H32.163C31.6116 27.4382 30.1105 29.5176 27.9627 30.871L34.5314 35.9492C38.3065 32.4455 40.7619 27.2263 40.7619 20.5334Z" fill="#4285F4"/>
</svg>
