<svg width="104" height="35" viewBox="0 0 104 35" fill="none" xmlns="http://www.w3.org/2000/svg">
<path d="M44.2574 17.9489C44.2574 22.8071 40.4376 26.387 35.75 26.387C31.0624 26.387 27.2426 22.8071 27.2426 17.9489C27.2426 13.0565 31.0624 9.51087 35.75 9.51087C40.4376 9.51087 44.2574 13.0565 44.2574 17.9489ZM40.5332 17.9489C40.5332 14.913 38.3194 12.8359 35.75 12.8359C33.1806 12.8359 30.9668 14.913 30.9668 17.9489C30.9668 20.9544 33.1806 23.062 35.75 23.062C38.3194 23.062 40.5332 20.9505 40.5332 17.9489Z" fill="#EA4335"/>
<path d="M62.6103 17.9489C62.6103 22.8071 58.7906 26.387 54.1029 26.387C49.4153 26.387 45.5956 22.8071 45.5956 17.9489C45.5956 13.0603 49.4153 9.51087 54.1029 9.51087C58.7906 9.51087 62.6103 13.0565 62.6103 17.9489ZM58.8862 17.9489C58.8862 14.913 56.6724 12.8359 54.1029 12.8359C51.5335 12.8359 49.3197 14.913 49.3197 17.9489C49.3197 20.9544 51.5335 23.062 54.1029 23.062C56.6724 23.062 58.8862 20.9505 58.8862 17.9489Z" fill="#FBBC05"/>
<path d="M80.1985 10.0207V25.1696C80.1985 31.4011 76.505 33.9462 72.1385 33.9462C68.0282 33.9462 65.5544 31.2109 64.6215 28.9739L67.8638 27.631C68.4412 29.0043 69.8559 30.625 72.1347 30.625C74.9297 30.625 76.6618 28.9092 76.6618 25.6794V24.4658H76.5318C75.6982 25.4891 74.0924 26.3832 72.0659 26.3832C67.8256 26.3832 63.9409 22.7082 63.9409 17.9793C63.9409 13.2163 67.8256 9.51087 72.0659 9.51087C74.0885 9.51087 75.6944 10.4049 76.5318 11.3978H76.6618V10.0245H80.1985V10.0207ZM76.9256 17.9793C76.9256 15.0082 74.9335 12.8359 72.3985 12.8359C69.8291 12.8359 67.6765 15.0082 67.6765 17.9793C67.6765 20.9201 69.8291 23.062 72.3985 23.062C74.9335 23.062 76.9256 20.9201 76.9256 17.9793Z" fill="#4285F4"/>
<path d="M86.0294 1.1413V25.8696H82.3971V1.1413H86.0294Z" fill="#34A853"/>
<path d="M100.184 20.7261L103.075 22.6435C102.142 24.0168 99.8935 26.3832 96.0088 26.3832C91.1912 26.3832 87.5932 22.6777 87.5932 17.9451C87.5932 12.9272 91.2218 9.50706 95.5921 9.50706C99.9929 9.50706 102.146 12.9918 102.849 14.875L103.235 15.8337L91.8985 20.5054C92.7665 22.1984 94.1162 23.062 96.0088 23.062C97.9053 23.062 99.2206 22.1337 100.184 20.7261ZM91.2868 17.6902L98.865 14.5592C98.4482 13.5054 97.1941 12.7712 95.7182 12.7712C93.8256 12.7712 91.1912 14.4337 91.2868 17.6902Z" fill="#EA4335"/>
<path d="M13.4932 15.7538V12.1739H25.6176C25.7362 12.7978 25.7974 13.5359 25.7974 14.3348C25.7974 17.0206 25.0594 20.3418 22.6812 22.7081C20.3679 25.1049 17.4123 26.3831 13.4971 26.3831C6.24 26.3831 0.137646 20.5016 0.137646 13.281C0.137646 6.06032 6.24 0.178802 13.4971 0.178802C17.5118 0.178802 20.3718 1.74619 22.5206 3.78913L19.9818 6.31522C18.4409 4.87717 16.3532 3.75869 13.4932 3.75869C8.19382 3.75869 4.04912 8.00815 4.04912 13.281C4.04912 18.5538 8.19382 22.8033 13.4932 22.8033C16.9306 22.8033 18.8882 21.4299 20.1424 20.1821C21.1594 19.1701 21.8285 17.7245 22.0923 15.75L13.4932 15.7538Z" fill="#4285F4"/>
</svg>
