<svg width="407" height="125" viewBox="0 0 407 125" fill="none" xmlns="http://www.w3.org/2000/svg">
<g opacity="0.5">
<path d="M381.194 42.355C356.581 42.355 336.379 62.1875 336.379 86.9568C336.379 106.011 348.335 122.146 365.058 128.577C369.848 130.24 374.993 131.146 380.342 131.146C400.116 131.146 417.123 118.808 423.619 101.375C425.167 96.8585 426.01 92.0106 426.01 86.9568C426.01 62.1871 405.806 42.355 381.194 42.355ZM380.342 117.351C362.337 117.351 347.987 103.032 347.987 85.6832C347.987 68.334 362.336 54.0207 380.342 54.0207C398.349 54.0207 412.7 68.3354 412.7 85.6832C412.7 103.031 398.348 117.351 380.342 117.351Z" fill="black"/>
<path d="M427.728 82.4092C427.728 55.8321 405.583 34.2871 378.266 34.2871C350.949 34.2871 328.804 55.8321 328.804 82.4092C328.804 105.222 345.12 124.326 367.017 129.281C366.357 129.062 365.704 128.826 365.058 128.577C348.335 122.146 336.379 106.011 336.379 86.9568C336.379 62.1876 356.581 42.355 381.194 42.355C405.806 42.355 426.01 62.1872 426.01 86.9568C426.01 92.0107 425.167 96.8585 423.619 101.376C423.484 101.77 423.345 102.163 423.199 102.553C426.106 96.4245 427.728 89.6017 427.728 82.4092Z" fill="white"/>
<path fill-rule="evenodd" clip-rule="evenodd" d="M360.414 153.318C332.269 144.056 311.807 117.89 311.807 86.7749C311.807 47.8315 343.859 16.6501 382.908 16.6501C421.957 16.6501 454.013 47.8309 454.013 86.7749C454.013 95.4225 452.432 103.687 449.546 111.314C454.163 101.675 456.739 90.9391 456.739 79.6247C456.739 37.8392 421.606 3.96533 378.265 3.96533C334.925 3.96533 299.791 37.8392 299.791 79.6247C299.791 115.49 325.675 145.526 360.414 153.318Z" fill="#16BEF0"/>
<path d="M98.0016 3.521L66.753 70.7151L35.2941 3.521H0.128399L50.9697 101.557V153.976H82.1142V101.556L132.743 3.521H98.0016ZM80.7402 101.22V152.596H52.3437V101.219L2.39335 4.901H34.4219L66.7572 73.967L98.8763 4.901H130.482L80.7402 101.22Z" fill="#231F20"/>
<path d="M248.642 2.84131V103.751L182.492 3.15105L182.288 2.84131H151.461V153.51H182.606V52.8108L248.96 153.51H279.786V2.84131H248.642ZM278.412 152.13H249.698L181.232 48.2252V152.13H152.835V4.22131H181.549L250.016 108.344V4.22131H278.412V152.13Z" fill="#231F20"/>
</g>
</svg>
