<svg width="32" height="32" viewBox="0 0 32 32" fill="none" xmlns="http://www.w3.org/2000/svg">
<path d="M27.0052 5.02874C26.6212 4.64052 26.1054 4.42676 25.5531 4.42676H6.45619C5.33973 4.42676 4.4314 5.31384 4.4314 6.40414V25.596C4.4314 26.6863 5.33973 27.5734 6.45619 27.5734H25.5437C26.6602 27.5734 27.5685 26.6863 27.5685 25.596V6.40822C27.5741 5.89155 27.3741 5.40165 27.0052 5.02874ZM26.8218 25.596C26.8218 26.2747 26.2485 26.8268 25.5437 26.8268H6.45619C5.7514 26.8268 5.17806 26.2747 5.17806 25.596V6.40414C5.17806 5.72549 5.7514 5.17342 6.45619 5.17342H25.5531C25.9045 5.17342 26.2316 5.30853 26.4743 5.55384C26.7018 5.78384 26.8254 6.08436 26.8218 6.40414V25.596ZM11.6006 13.064H8.21203C8.00578 13.064 7.83869 13.2312 7.83869 13.4374V23.5553C7.83869 23.7614 8.00578 23.9286 8.21203 23.9286H11.6006C11.8068 23.9286 11.9739 23.7614 11.9739 23.5553V13.4374C11.9739 13.2312 11.8068 13.064 11.6006 13.064ZM11.2272 23.182H8.58536V13.8107H11.2272V23.182ZM9.93015 8.18541C8.60285 8.18541 7.63952 9.07687 7.63952 10.3052C7.63952 11.5335 8.58286 12.425 9.88264 12.425H9.9016C11.2289 12.425 12.1922 11.5335 12.1922 10.2981C12.1685 9.05415 11.2383 8.18541 9.93015 8.18541ZM9.9016 11.6783H9.88264C9.00159 11.6783 8.38619 11.1136 8.38619 10.3052C8.38619 9.48385 9.00661 8.93208 9.93015 8.93208C10.8347 8.93208 11.4297 9.47386 11.4456 10.3052C11.4456 11.1266 10.8251 11.6783 9.9016 11.6783ZM24.161 17.756C24.161 14.6695 22.5631 12.8268 19.8866 12.8268C18.6087 12.8268 17.7783 13.2848 17.2133 13.8233V13.4374C17.2133 13.2312 17.0462 13.064 16.84 13.064H13.461C13.3587 13.064 13.261 13.106 13.1906 13.1801C13.1199 13.2542 13.0831 13.3538 13.0881 13.4559C13.1343 14.3842 13.0881 23.4617 13.0876 23.5534C13.0872 23.6527 13.1262 23.7482 13.1964 23.8186C13.2664 23.8891 13.3616 23.9286 13.461 23.9286H16.8493C17.0555 23.9286 17.2226 23.7614 17.2226 23.5553V17.9079C17.2226 17.7032 17.2312 17.4114 17.3091 17.2322C17.4314 16.9311 17.8118 16.231 18.7001 16.231C19.0328 16.231 20.0449 16.231 20.0449 18.1452V23.5553C20.0449 23.7614 20.212 23.9286 20.4183 23.9286H23.7972C24.0035 23.9286 24.1706 23.7614 24.1706 23.5553C24.1706 23.5262 24.1672 23.498 24.161 23.4709V17.756ZM23.4143 23.182H20.7916V18.1452C20.7916 15.8301 19.4812 15.4843 18.7002 15.4843C17.7693 15.4843 16.9906 16.0327 16.621 16.9426C16.4933 17.2361 16.476 17.5953 16.476 17.9079V23.1819H13.8362C13.8439 21.5896 13.8706 15.5542 13.8439 13.8107H16.4666V14.8524C16.4587 14.918 16.4683 14.9864 16.4945 15.0504C16.552 15.1905 16.6979 15.2818 16.8493 15.2818C17.0312 15.2818 17.1826 15.1518 17.2158 14.9797C17.6756 14.3051 18.4018 13.5734 19.8866 13.5734C22.1285 13.5734 23.4143 15.0979 23.4143 17.756V23.182Z" fill="white"/>
</svg>
