<svg xmlns="http://www.w3.org/2000/svg" width="72" height="73" viewBox="0 0 72 73" fill="none">
  <path d="M37.2634 20.3711C25.9967 20.3711 16.7486 29.4103 16.7486 40.6995C16.7486 49.384 22.2218 56.7378 29.8768 59.6692C32.0698 60.4268 34.4251 60.8397 36.8737 60.8397C45.9256 60.8397 53.7105 55.2165 56.6844 47.2712C57.3929 45.2125 57.7788 43.0029 57.7788 40.6995C57.7788 29.4101 48.5301 20.3711 37.2634 20.3711ZM36.8737 54.5526C28.6313 54.5526 22.0623 48.0264 22.0623 40.1191C22.0623 32.2117 28.6308 25.688 36.8737 25.688C45.1166 25.688 51.6861 32.2123 51.6861 40.1191C51.6861 48.0258 45.1162 54.5526 36.8737 54.5526Z" fill="black"/>
  <path d="M58.5651 38.6262C58.5651 26.513 48.4279 16.6934 35.9232 16.6934C23.4184 16.6934 13.2812 26.513 13.2812 38.6262C13.2812 49.0237 20.7499 57.7311 30.7739 59.9895C30.4716 59.8895 30.1728 59.782 29.8768 59.6687C22.2218 56.7373 16.7486 49.3835 16.7486 40.699C16.7486 29.4098 25.9967 20.3706 37.2634 20.3706C48.5302 20.3706 57.7788 29.4096 57.7788 40.699C57.7788 43.0024 57.3929 45.2119 56.6844 47.2707C56.6225 47.4506 56.559 47.6298 56.4922 47.8074C57.8228 45.0141 58.5651 41.9044 58.5651 38.6262Z" fill="white"/>
  <path fill-rule="evenodd" clip-rule="evenodd" d="M27.7512 70.9453C14.8672 66.7242 5.50042 54.7981 5.50042 40.6166C5.50042 22.8672 20.173 8.65543 38.0483 8.65543C55.9235 8.65543 70.5975 22.8669 70.5975 40.6166C70.5975 44.558 69.8741 48.325 68.5526 51.8008C70.6664 47.4076 71.8455 42.5146 71.8455 37.3578C71.8455 18.3129 55.7626 2.87402 35.9229 2.87402C16.0831 2.87402 0 18.3129 0 37.3578C0 53.7042 11.8486 67.3941 27.7512 70.9453Z" fill="#16BEF0"/>
</svg>