<svg xmlns="http://www.w3.org/2000/svg" width="150" height="60" viewBox="0 0 150 60" fill="none">
    <path d="M19.3169 54.9547C19.6464 55.1224 19.8989 55.3621 20.0746 55.6739C20.2501 55.9856 20.338 56.3526 20.338 56.7748C20.338 57.1969 20.2501 57.563 20.0746 57.8728C19.8989 58.1826 19.6464 58.4194 19.3169 58.583C18.9874 58.7468 18.5978 58.8287 18.148 58.8287H16.8635V54.7031H18.148C18.5978 54.7031 18.9874 54.787 19.3169 54.9547ZM19.3673 57.9616C19.6474 57.6795 19.7875 57.2838 19.7875 56.7748C19.7875 56.2619 19.6464 55.8613 19.3643 55.5732C19.0821 55.2852 18.6767 55.1411 18.148 55.1411H17.4021V58.3848H18.148C18.6807 58.3848 19.087 58.2437 19.3673 57.9616Z" fill="white"/>
    <path d="M39.6398 55.1412V56.5203H41.1432V56.9642H39.6398V58.3848H41.3208V58.8287H39.1011V54.6972H41.3208V55.1412L39.6398 55.1412Z" fill="white"/>
    <path d="M60.7675 58.7251C60.5524 58.6285 60.3837 58.4943 60.2614 58.3226C60.1391 58.151 60.0759 57.9527 60.072 57.7278H60.6461C60.6659 57.9211 60.7458 58.0839 60.8859 58.2161C61.0259 58.3483 61.2301 58.4144 61.4985 58.4144C61.7549 58.4144 61.9572 58.3503 62.1052 58.222C62.2532 58.0938 62.3271 57.929 62.3271 57.7278C62.3271 57.57 62.2837 57.4417 62.1969 57.343C62.1101 57.2444 62.0016 57.1694 61.8714 57.1181C61.7412 57.0669 61.5656 57.0116 61.3446 56.9523C61.0723 56.8814 60.8542 56.8103 60.6906 56.7393C60.5268 56.6682 60.3866 56.5568 60.2703 56.4049C60.1539 56.253 60.0957 56.0488 60.0957 55.7922C60.0957 55.5673 60.1529 55.3682 60.2673 55.1944C60.3817 55.0209 60.5426 54.8866 60.7497 54.792C60.9569 54.6972 61.1946 54.6499 61.463 54.6499C61.8497 54.6499 62.1663 54.7466 62.413 54.9399C62.6595 55.1333 62.7986 55.3898 62.8303 55.7094H62.2384C62.2186 55.5516 62.1357 55.4125 61.9897 55.2921C61.8437 55.1717 61.6503 55.1116 61.4097 55.1116C61.1848 55.1116 61.0013 55.1698 60.8592 55.2862C60.7172 55.4026 60.6461 55.5654 60.6461 55.7745C60.6461 55.9245 60.6885 56.0468 60.7734 56.1415C60.8582 56.2361 60.9628 56.3082 61.0871 56.3575C61.2114 56.4069 61.386 56.4631 61.6109 56.5262C61.8832 56.6012 62.1022 56.6752 62.2679 56.7481C62.4337 56.8212 62.5757 56.9337 62.6941 57.0856C62.8125 57.2375 62.8717 57.4437 62.8717 57.7041C62.8717 57.9053 62.8184 58.0947 62.7119 58.2723C62.6053 58.4498 62.4475 58.5939 62.2384 58.7044C62.0291 58.8149 61.7826 58.8701 61.4985 58.8701C61.2262 58.8701 60.9825 58.8218 60.7675 58.7251Z" fill="white"/>
    <path d="M82.2564 54.7031V58.8287H81.7178V54.7031H82.2564Z" fill="white"/>
    <path d="M104.352 55.8988C104.237 55.6581 104.072 55.4717 103.855 55.3395C103.638 55.2073 103.385 55.1412 103.097 55.1412C102.809 55.1412 102.55 55.2073 102.319 55.3395C102.088 55.4717 101.906 55.6611 101.774 55.9077C101.642 56.1543 101.576 56.4395 101.576 56.763C101.576 57.0865 101.642 57.3707 101.774 57.6153C101.906 57.86 102.088 58.0484 102.319 58.1806C102.55 58.3128 102.809 58.3789 103.097 58.3789C103.5 58.3789 103.831 58.2586 104.091 58.0178C104.352 57.7772 104.504 57.4517 104.547 57.0412H102.902V56.6032H105.121V57.0175C105.09 57.3569 104.983 57.6677 104.802 57.9498C104.62 58.2319 104.381 58.4549 104.086 58.6186C103.79 58.7824 103.46 58.8642 103.097 58.8642C102.714 58.8642 102.365 58.7745 102.049 58.5949C101.734 58.4154 101.484 58.1658 101.301 57.8461C101.117 57.5265 101.025 57.1655 101.025 56.763C101.025 56.3605 101.117 55.9985 101.301 55.6768C101.484 55.3552 101.734 55.1047 102.049 54.9251C102.365 54.7456 102.714 54.6558 103.097 54.6558C103.535 54.6558 103.923 54.7644 104.26 54.9814C104.598 55.1984 104.843 55.5042 104.997 55.8988L104.352 55.8988Z" fill="white"/>
    <path d="M127.128 58.8287H126.59L124.423 55.5437V58.8287H123.885V54.6972H124.423L126.59 57.9763V54.6972H127.128V58.8287Z" fill="white"/>
    <path d="M146.676 58.7251C146.46 58.6285 146.292 58.4943 146.17 58.3226C146.047 58.151 145.984 57.9527 145.98 57.7278H146.554C146.574 57.9211 146.654 58.0839 146.794 58.2161C146.934 58.3483 147.138 58.4144 147.407 58.4144C147.663 58.4144 147.865 58.3503 148.013 58.222C148.161 58.0938 148.235 57.929 148.235 57.7278C148.235 57.57 148.192 57.4417 148.105 57.343C148.018 57.2444 147.91 57.1694 147.779 57.1181C147.649 57.0669 147.474 57.0116 147.253 56.9523C146.98 56.8814 146.762 56.8103 146.599 56.7393C146.435 56.6682 146.295 56.5568 146.178 56.4049C146.062 56.253 146.004 56.0488 146.004 55.7922C146.004 55.5673 146.061 55.3682 146.175 55.1944C146.29 55.0209 146.451 54.8866 146.658 54.792C146.865 54.6972 147.103 54.6499 147.371 54.6499C147.758 54.6499 148.074 54.7466 148.321 54.9399C148.568 55.1333 148.707 55.3898 148.738 55.7094H148.146C148.127 55.5516 148.044 55.4125 147.898 55.2921C147.752 55.1717 147.558 55.1116 147.318 55.1116C147.093 55.1116 146.909 55.1698 146.767 55.2862C146.625 55.4026 146.554 55.5654 146.554 55.7745C146.554 55.9245 146.597 56.0468 146.681 56.1415C146.766 56.2361 146.871 56.3082 146.995 56.3575C147.119 56.4069 147.294 56.4631 147.519 56.5262C147.791 56.6012 148.01 56.6752 148.176 56.7481C148.342 56.8212 148.484 56.9337 148.602 57.0856C148.721 57.2375 148.78 57.4437 148.78 57.7041C148.78 57.9053 148.726 58.0947 148.62 58.2723C148.513 58.4498 148.356 58.5939 148.146 58.7044C147.937 58.8149 147.691 58.8701 147.407 58.8701C147.134 58.8701 146.891 58.8218 146.676 58.7251Z" fill="white"/>
    <path d="M43.1059 1.3515L26.6697 33.0396V49.9628H16.9195V33.0396L0.414368 1.3515H11.4178L21.8644 23.5678L32.2412 1.3515H43.1059Z" fill="white"/>
    <path d="M91.4095 49.811H81.6593L59.5817 16.4516V49.811H49.8315V1.12988H59.5817L81.6593 34.5591V1.12988H91.4095V49.811Z" fill="white"/>
    <path d="M124.789 13.7898C116.728 13.7898 110.112 20.2569 110.112 28.3338C110.112 34.5472 114.028 39.8085 119.504 41.9058C121.073 42.4478 122.759 42.7432 124.51 42.7432C130.987 42.7432 136.556 38.7201 138.684 33.0356C139.191 31.5626 139.467 29.9818 139.467 28.3338C139.467 20.2568 132.85 13.7898 124.789 13.7898ZM124.51 38.2451C118.613 38.2451 113.914 33.5759 113.914 27.9185C113.914 22.2612 118.613 17.5938 124.51 17.5938C130.408 17.5938 135.108 22.2616 135.108 27.9185C135.108 33.5754 130.408 38.2451 124.51 38.2451Z" fill="black"/>
    <path d="M140.03 26.8509C140.03 18.1844 132.777 11.1589 123.83 11.1589C114.884 11.1589 107.631 18.1844 107.631 26.8509C107.631 34.2897 112.975 40.5195 120.146 42.1353C119.93 42.0638 119.716 41.9868 119.504 41.9057C114.028 39.8085 110.112 34.5472 110.112 28.3338C110.112 20.2569 116.728 13.7898 124.789 13.7898C132.85 13.7898 139.467 20.2568 139.467 28.3338C139.467 29.9818 139.191 31.5626 138.684 33.0356C138.64 33.1643 138.594 33.2925 138.547 33.4196C139.499 31.4211 140.03 29.1963 140.03 26.8509Z" fill="white"/>
    <path fill-rule="evenodd" clip-rule="evenodd" d="M117.984 49.9731C108.766 46.9531 102.064 38.4205 102.064 28.2744C102.064 15.5755 112.562 5.40763 125.351 5.40763C138.14 5.40763 148.638 15.5753 148.638 28.2744C148.638 31.0943 148.121 33.7894 147.175 36.2762C148.688 33.133 149.531 29.6323 149.531 25.9428C149.531 12.3171 138.025 1.2713 123.83 1.2713C109.636 1.2713 98.129 12.3171 98.129 25.9428C98.129 37.638 106.606 47.4324 117.984 49.9731Z" fill="#16BEF0"/>
</svg>
