<svg width="138" height="203" viewBox="0 0 138 203" fill="none" xmlns="http://www.w3.org/2000/svg">
<g id="Logos 2024">
<path id="Vector" d="M20.7641 24.7495C-17.2612 24.7495 -48.4734 55.2568 -48.4734 93.358C-48.4734 122.668 -30.0013 147.487 -4.16576 157.381C3.23567 159.938 11.1846 161.331 19.4489 161.331C49.9989 161.331 76.2729 142.353 86.3099 115.537C88.7011 108.589 90.0036 101.132 90.0036 93.358C90.0036 55.2562 58.7891 24.7495 20.7641 24.7495ZM19.4489 140.112C-8.36921 140.112 -30.5396 118.086 -30.5396 91.3989C-30.5396 64.7116 -8.37098 42.6942 19.4489 42.6942C47.2687 42.6942 69.4406 64.7137 69.4406 91.3989C69.4406 118.084 47.2674 140.112 19.4489 140.112Z" fill="#33C6F4"/>
<path id="Vector_2" d="M92.6571 86.3626C92.6571 45.4805 58.4443 12.3391 16.2407 12.3391C-25.963 12.3391 -60.176 45.4805 -60.176 86.3626C-60.176 121.454 -34.9692 150.841 -1.13821 158.463C-2.15846 158.126 -3.167 157.763 -4.16587 157.381C-30.0014 147.487 -48.4735 122.668 -48.4735 93.3581C-48.4735 55.257 -17.2613 24.7496 20.764 24.7496C58.7893 24.7496 90.0035 55.2563 90.0035 93.3581C90.0035 101.132 88.701 108.589 86.3098 115.538C86.1008 116.145 85.8866 116.75 85.6611 117.349C90.152 107.922 92.6571 97.4264 92.6571 86.3626Z" fill="white"/>
</g>
</svg>
