<svg width="32" height="32" viewBox="0 0 32 32" fill="none" xmlns="http://www.w3.org/2000/svg">
<g id="mail">
<path id="Vector" d="M27.4119 6.32681H4.58812C3.44456 6.32681 2.51437 7.25703 2.51437 8.40046V23.5996C2.51437 24.743 3.44458 25.6732 4.58812 25.6732H27.4119C28.5554 25.6732 29.4856 24.7429 29.4856 23.5996V8.40046C29.4856 7.25701 28.5554 6.32681 27.4119 6.32681ZM3.68188 7.54503C3.91959 7.29274 4.24145 7.15389 4.58812 7.15389H27.4119C27.759 7.15389 28.0812 7.29274 28.319 7.54503L28.3581 7.58659L17.0094 16.9096C16.7171 17.1494 16.3587 17.2694 16.0004 17.2694C15.6421 17.2694 15.2837 17.1494 14.9914 16.9096L3.64271 7.58661L3.68188 7.54503ZM3.34146 8.41003L12.5573 15.9804L3.34146 23.55V8.41003ZM28.3406 24.4307C28.1046 24.6938 27.7662 24.8453 27.4121 24.8463H4.58812C4.23375 24.8452 3.8954 24.6938 3.65937 24.4307L3.62229 24.3892L13.2081 16.5157L14.466 17.548C15.3552 18.2788 16.6458 18.2788 17.5346 17.548L18.7919 16.5157L28.3777 24.3892L28.3406 24.4307ZM28.6585 23.55L28.5715 23.4784L19.4435 15.9805L28.6585 8.41006V23.55Z" fill="white"/>
</g>
</svg>
