<svg width="60" height="61" viewBox="0 0 60 61" fill="none" xmlns="http://www.w3.org/2000/svg">
<g id="MERN">
<path id="Vector" d="M10.6695 11.8658H15.8757V13.6322H10.6695V11.8658ZM36.3595 13.1889H39.5511V12.3068H36.3595V13.1889ZM50.3847 14.3259V45.3152C50.3847 46.7204 49.8372 48.0414 48.8443 49.0343C47.8514 50.0273 46.5326 50.5747 45.1274 50.5747H12.7595C11.3543 50.5747 10.0334 50.0273 9.04043 49.0343C8.04751 48.0414 7.50003 46.7204 7.50003 45.3152V14.3259C7.50003 12.9207 8.04751 11.5998 9.04043 10.6068C10.0334 9.61389 11.3543 9.06641 12.7595 9.06641H45.1252C46.5305 9.06641 47.8514 9.61389 48.8443 10.6068C49.8372 11.5998 50.3847 12.9207 50.3847 14.3259ZM49.1657 16.0924H8.71907V45.3153C8.71907 47.5428 10.5321 49.3557 12.7596 49.3557H45.1253C47.3527 49.3557 49.1658 47.5427 49.1658 45.3153L49.1657 16.0924ZM49.1657 14.3259C49.1657 12.0984 47.3527 10.2854 45.1252 10.2854H12.7595C10.532 10.2854 8.71903 12.0984 8.71903 14.3259V14.8734H49.1657V14.3259ZM32.1506 13.1889H35.3422V12.3068H32.1506V13.1889ZM40.5706 13.1889H43.7622V12.3068H40.5706V13.1889ZM20.1939 31.769C20.3787 31.9518 20.6199 32.0442 20.8612 32.0442C21.1024 32.0442 21.3437 31.9518 21.5265 31.7709L27.1806 26.1167C27.5481 25.7492 27.5481 25.1518 27.1806 24.7842L21.5265 19.1301C21.159 18.7626 20.5615 18.7626 20.1939 19.1301C19.8265 19.4976 19.8265 20.095 20.1939 20.4626L25.181 25.4495L20.1939 30.4365C19.8265 30.804 19.8265 31.4015 20.1939 31.769ZM30.2848 30.1595H39.7084C40.2286 30.1595 40.6507 29.7373 40.6507 29.2171C40.6507 28.6969 40.2286 28.2748 39.7084 28.2748H30.2848C29.7646 28.2748 29.3424 28.6969 29.3424 29.2171C29.3424 29.7373 29.7646 30.1595 30.2848 30.1595ZM16.9873 43.5206C17.1936 43.5206 17.3412 43.4038 17.4311 43.171C17.5565 42.6272 17.6311 42.2163 17.6553 41.9382L18.2334 39.5718L18.3947 38.7694C18.6248 39.9737 18.8904 41.1034 19.1924 42.1581L19.3224 42.6554C19.3764 42.8499 19.4357 43.0097 19.5017 43.1351C19.6033 43.3261 19.742 43.4218 19.9185 43.4218C20.1306 43.4218 20.2993 43.3085 20.4248 43.0812C20.5415 42.8663 20.6537 42.5898 20.7611 42.2522L21.0255 41.4007L21.922 38.698C22.188 40.3292 22.3822 41.3843 22.5044 41.862L22.6662 42.6331C22.7376 42.9679 22.8185 43.207 22.908 43.3503C23.0126 43.5175 23.1455 43.6011 23.3068 43.6011C23.4294 43.6011 23.5392 43.5578 23.6365 43.4714C23.7334 43.3847 23.7822 43.2769 23.7822 43.1484C23.7822 43.0531 23.7251 42.7988 23.6119 42.3867L23.392 41.6156C23.1291 40.6598 22.9095 39.5062 22.7334 38.1554C22.6646 37.6207 22.606 37.2683 22.5584 37.098C22.424 36.6019 22.2283 36.3538 21.9712 36.3538C21.7681 36.3538 21.6083 36.4644 21.4915 36.6855C21.4048 36.8468 21.3349 37.0589 21.281 37.3218L21.1466 37.9761C20.824 39.2222 20.4411 40.4206 19.999 41.571C19.6646 40.4265 19.4182 39.3628 19.2596 38.3796C19.1252 37.5608 18.9998 37.0187 18.883 36.7526C18.7877 36.5316 18.6427 36.421 18.4482 36.421C18.2721 36.421 18.124 36.5077 18.0049 36.6808C17.8584 36.8843 17.7193 37.3159 17.5877 37.9761L17.3279 39.3882L16.835 41.1944C16.6287 41.9206 16.5256 42.5331 16.5256 43.032C16.5256 43.1636 16.5631 43.2742 16.6377 43.3636C16.7244 43.4683 16.8408 43.5206 16.9873 43.5206ZM25.6108 36.3226C25.5209 36.2358 25.4135 36.1925 25.2881 36.1925C24.9893 36.1925 24.8397 36.3702 24.8397 36.7257C24.8397 36.8362 24.8549 36.9983 24.8846 37.212C24.9143 37.4257 24.9295 37.5878 24.9295 37.6983C24.9295 38.1108 24.8994 38.7487 24.8397 39.612C24.783 39.6928 24.7545 39.7839 24.7545 39.8854C24.7545 39.9632 24.7709 40.0366 24.8041 40.1054C24.7889 40.3682 24.7772 40.6132 24.7682 40.8401C24.7592 41.0675 24.7545 41.2764 24.7545 41.4678C24.7545 42.4268 24.8983 43.0393 25.185 43.3054C25.4479 43.5503 26.0424 43.6729 26.969 43.6729C27.9042 43.6729 28.5119 43.6444 28.7928 43.5878C29.0471 43.537 29.1741 43.3862 29.1741 43.135C29.1741 42.8245 29.0155 42.669 28.6991 42.669C28.642 42.669 28.5553 42.6788 28.4389 42.698C28.3225 42.7175 28.2342 42.7272 28.1745 42.7272C27.9862 42.7272 27.7061 42.7323 27.3342 42.7429C26.962 42.7534 26.6834 42.7585 26.4983 42.7585C26.1007 42.7585 25.8663 42.7167 25.7944 42.6331C25.6987 42.5167 25.651 42.128 25.651 41.4679C25.651 41.3034 25.6549 41.1265 25.6623 40.9366C25.6697 40.7468 25.6796 40.546 25.6913 40.3339L27.762 40.1456L28.8288 40.0515C29.1038 40.0187 29.2413 39.8663 29.2413 39.5944C29.2413 39.4538 29.1964 39.3417 29.1069 39.2581C29.0171 39.1745 28.9065 39.1327 28.7753 39.1327C28.6436 39.1327 28.2894 39.1624 27.7128 39.2222L25.7499 39.4104C25.8007 38.6843 25.8261 38.1136 25.8261 37.6983C25.8261 37.5819 25.8124 37.4264 25.7854 37.2323C26.1202 37.1398 26.4323 37.071 26.7222 37.0261C27.012 36.9812 27.2796 36.9589 27.5245 36.9589C27.9937 36.9589 28.4807 37.0304 28.9858 37.1741C29.0366 37.189 29.0827 37.1964 29.1249 37.1964C29.253 37.1964 29.3608 37.1456 29.4476 37.044C29.5249 36.9515 29.564 36.8452 29.564 36.7257C29.564 36.5194 29.464 36.3761 29.2636 36.2956C28.8304 36.1222 28.2507 36.0354 27.5245 36.0354C27.2436 36.0354 26.944 36.0596 26.626 36.1073C26.3077 36.155 25.9694 36.2268 25.6108 36.3226ZM35.2471 42.5077C35.3248 42.6034 35.3635 42.705 35.3635 42.8124C35.3635 42.9378 35.3178 43.0472 35.2268 43.1398C35.1358 43.2324 35.0287 43.2784 34.9064 43.2784C34.7928 43.2784 34.6869 43.2308 34.5881 43.1351C33.599 42.1581 32.4994 41.5007 31.2892 41.1628L31.3252 42.0413L31.3474 42.9245C31.3474 43.0558 31.3049 43.1659 31.2197 43.2538C31.1346 43.3421 31.0279 43.3862 30.8994 43.3862C30.7709 43.3862 30.6642 43.3421 30.5791 43.2538C30.4939 43.1659 30.4514 43.0558 30.4514 42.9245C30.4514 42.6886 30.44 42.3366 30.4178 41.869C30.3951 41.4015 30.3838 41.0495 30.3838 40.8136C30.3838 40.5386 30.4138 40.1292 30.4736 39.5854C30.5334 39.0413 30.563 38.6335 30.563 38.3616C30.563 38.2092 30.549 37.9839 30.5205 37.685C30.4923 37.3862 30.4779 37.1604 30.4779 37.0081C30.4779 36.8378 30.5259 36.6886 30.6217 36.56C30.7349 36.4014 30.892 36.33 31.092 36.3448L32.1725 36.43C32.5815 36.4808 32.9268 36.5808 33.2076 36.7304C34.4178 37.3726 35.0229 38.1569 35.0229 39.0835C35.0229 39.5374 34.8166 39.9393 34.4045 40.289C34.0729 40.5698 33.6588 40.7835 33.1627 40.93C34.092 41.4288 34.7869 41.955 35.2471 42.5077ZM31.7061 40.1768C32.4682 40.1768 33.0389 40.0753 33.4182 39.8722C33.5857 39.7796 33.7412 39.6585 33.8846 39.5093C34.0428 39.3417 34.1221 39.1999 34.1221 39.0835C34.1221 38.6678 33.8858 38.2811 33.4139 37.9226C32.9807 37.5936 32.5264 37.4042 32.0514 37.3534L31.3882 37.2995L31.4327 37.8417C31.4538 38.0628 31.4643 38.2436 31.4643 38.3842C31.4643 38.6233 31.4448 38.9206 31.4061 39.276L31.3119 40.1678C31.3538 40.1678 31.4186 40.1694 31.5069 40.1725C31.5948 40.1752 31.6616 40.1768 31.7061 40.1768ZM39.3526 39.5764C38.758 38.8382 38.0885 37.912 37.3448 36.7975C37.1116 36.451 36.9158 36.2776 36.7572 36.2776C36.608 36.2776 36.4744 36.3342 36.3564 36.4479C36.2381 36.5616 36.1791 36.687 36.1791 36.8245C36.1791 37.0128 36.197 37.2928 36.233 37.6647C36.2689 38.0366 36.2869 38.3167 36.2869 38.505C36.2869 38.7022 36.2912 39.0003 36.3002 39.3991C36.3092 39.7983 36.3139 40.0964 36.3139 40.2936C36.3139 40.4788 36.3076 40.7558 36.2959 41.1249C36.2838 41.494 36.2779 41.771 36.2779 41.9561C36.2779 42.0819 36.2682 42.2718 36.2487 42.5256C36.2292 42.7795 36.2198 42.9694 36.2198 43.0948C36.2198 43.2233 36.2627 43.3339 36.3494 43.4264C36.4452 43.5311 36.5752 43.5831 36.7397 43.5831C37.0502 43.5831 37.2057 43.1815 37.2057 42.3776C37.2057 42.1264 37.2002 41.753 37.19 41.2569C37.1795 40.7612 37.1744 40.3889 37.1744 40.1409L37.1877 39.119L37.2099 38.1018C38.7845 40.271 40.1803 41.9307 41.3963 43.0811C41.6232 43.2963 41.8189 43.4037 41.9834 43.4037C42.2553 43.4037 42.415 43.2529 42.4631 42.9514C42.5107 42.6166 42.5346 42.3775 42.5346 42.2342C42.5346 41.9025 42.5392 41.4072 42.5482 40.7482C42.5572 40.0893 42.5615 39.5943 42.5615 39.2623C42.5615 37.3232 42.3018 36.3537 41.7818 36.3537C41.465 36.3537 41.3068 36.5272 41.3068 36.8736C41.3068 36.9873 41.3365 37.1455 41.3963 37.3486C41.465 37.5846 41.5053 37.7416 41.5174 37.8194C41.6189 38.5963 41.6697 39.6404 41.6697 40.9522L41.683 41.517C41.692 41.7678 41.692 41.9576 41.683 42.0862C40.8377 41.2885 40.0608 40.4518 39.3526 39.5764Z" fill="url(#paint0_linear_559_2982)"/>
</g>
<defs>
<linearGradient id="paint0_linear_559_2982" x1="7.50003" y1="29.8206" x2="49.7696" y2="29.8206" gradientUnits="userSpaceOnUse">
<stop stop-color="#D24141"/>
<stop offset="1" stop-color="#7C33C6"/>
</linearGradient>
</defs>
</svg>
