<svg xmlns="http://www.w3.org/2000/svg" width="32" height="32" viewBox="0 0 32 32" fill="none">
  <path d="M25.5661 19.7319L21.0615 18.4185C20.7168 18.3163 20.3467 18.4125 20.0966 18.6689L18.4862 20.3118C18.3477 20.4541 18.1376 20.4953 17.9616 20.4129C17.3585 20.1332 16.7543 19.7913 16.1672 19.3974C15.4778 18.9307 14.8203 18.3882 14.2152 17.7863C13.6111 17.1788 13.0686 16.5215 12.6035 15.8339C12.2214 15.2645 11.879 14.6606 11.5872 14.0419C11.5051 13.8646 11.5456 13.6524 11.6885 13.5133L13.0929 12.1411C13.3342 11.906 13.4355 11.5547 13.3574 11.2223L12.2362 6.54794L12.23 6.52512C12.0166 5.81237 11.3685 5.33344 10.6176 5.33344H6.29887C5.76639 5.33322 5.33333 5.76629 5.33333 6.29877V8.4545C5.33333 13.3183 7.22794 17.8915 10.6682 21.3317C14.1084 24.7719 18.6816 26.6666 23.5454 26.6666H25.7011C26.2336 26.6666 26.6667 26.2335 26.6667 25.701V21.314C26.6667 20.6128 26.2244 19.9771 25.5661 19.7319ZM25.8133 25.701C25.8133 25.7639 25.764 25.8132 25.7011 25.8132H23.5454C18.9096 25.8132 14.5506 24.0074 11.2715 20.7284C7.99253 17.4493 6.18666 13.0904 6.18666 8.4545V6.29877C6.18666 6.23584 6.23594 6.18656 6.29887 6.18656H10.6176C10.985 6.18656 11.302 6.41632 11.4093 6.75957L12.5269 11.4196C12.5361 11.4593 12.5244 11.5037 12.4968 11.5306L11.0925 12.9025C10.691 13.2935 10.5786 13.8956 10.8139 14.4035C11.1251 15.0636 11.4888 15.7048 11.8955 16.3109C12.3915 17.0442 12.9683 17.743 13.6115 18.3901C14.2562 19.0311 14.9551 19.608 15.6902 20.1055C16.3157 20.5249 16.9589 20.8889 17.6011 21.1867C18.1037 21.4222 18.7053 21.3102 19.0963 20.9085L20.7066 19.2658C20.7366 19.2351 20.7778 19.2244 20.8207 19.2374L25.2811 20.5369C25.6 20.6614 25.8133 20.9721 25.8133 21.314V25.701Z" fill="white"/>
</svg>