<svg width="41" height="41" viewBox="0 0 41 41" fill="none" xmlns="http://www.w3.org/2000/svg">
<mask id="path-1-outside-1_1_7" maskUnits="userSpaceOnUse" x="1" y="3" width="39" height="39" fill="black">
<rect fill="white" x="1" y="3" width="39" height="39"/>
<path d="M36.416 27.528H25.28V38.92H14.912V27.528H3.776V17.736H14.912V6.28H25.28V17.736H36.416V27.528Z"/>
</mask>
<path d="M36.416 27.528V30.1222H39.0102V27.528H36.416ZM25.28 27.528V24.9338H22.6858V27.528H25.28ZM25.28 38.92V41.5142H27.8742V38.92H25.28ZM14.912 38.92H12.3178V41.5142H14.912V38.92ZM14.912 27.528H17.5062V24.9338H14.912V27.528ZM3.776 27.528H1.18183V30.1222H3.776V27.528ZM3.776 17.736V15.1418H1.18183V17.736H3.776ZM14.912 17.736V20.3302H17.5062V17.736H14.912ZM14.912 6.28V3.68583H12.3178V6.28H14.912ZM25.28 6.28H27.8742V3.68583H25.28V6.28ZM25.28 17.736H22.6858V20.3302H25.28V17.736ZM36.416 17.736H39.0102V15.1418H36.416V17.736ZM36.416 24.9338H25.28V30.1222H36.416V24.9338ZM22.6858 27.528V38.92H27.8742V27.528H22.6858ZM25.28 36.3258H14.912V41.5142H25.28V36.3258ZM17.5062 38.92V27.528H12.3178V38.92H17.5062ZM14.912 24.9338H3.776V30.1222H14.912V24.9338ZM6.37017 27.528V17.736H1.18183V27.528H6.37017ZM3.776 20.3302H14.912V15.1418H3.776V20.3302ZM17.5062 17.736V6.28H12.3178V17.736H17.5062ZM14.912 8.87417H25.28V3.68583H14.912V8.87417ZM22.6858 6.28V17.736H27.8742V6.28H22.6858ZM25.28 20.3302H36.416V15.1418H25.28V20.3302ZM33.8218 17.736V27.528H39.0102V17.736H33.8218Z" fill="url(#paint0_linear_1_7)" mask="url(#path-1-outside-1_1_7)"/>
<defs>
<linearGradient id="paint0_linear_1_7" x1="21.3082" y1="6.05682" x2="21.3082" y2="41" gradientUnits="userSpaceOnUse">
<stop stop-color="#CE4F58"/>
<stop offset="1" stop-color="#8743C0"/>
</linearGradient>
</defs>
</svg>
