<svg width="94" height="17" viewBox="0 0 94 17" fill="none" xmlns="http://www.w3.org/2000/svg">
<path d="M8.66669 0L10.5751 5.87336L16.7507 5.87336L11.7545 9.50329L13.6629 15.3766L8.66669 11.7467L3.67051 15.3766L5.57888 9.50329L0.582706 5.87336L6.75832 5.87336L8.66669 0Z" fill="#F4C20D"/>
<path d="M27.6667 0L29.5751 5.87336L35.7507 5.87336L30.7545 9.50329L32.6629 15.3766L27.6667 11.7467L22.6705 15.3766L24.5789 9.50329L19.5827 5.87336L25.7583 5.87336L27.6667 0Z" fill="#F4C20D"/>
<path d="M46.6667 0L48.5751 5.87336L54.7507 5.87336L49.7545 9.50329L51.6629 15.3766L46.6667 11.7467L41.6705 15.3766L43.5789 9.50329L38.5827 5.87336L44.7583 5.87336L46.6667 0Z" fill="#F4C20D"/>
<path d="M65.6667 0L67.5751 5.87336L73.7507 5.87336L68.7545 9.50329L70.6629 15.3766L65.6667 11.7467L60.6705 15.3766L62.5789 9.50329L57.5827 5.87336L63.7583 5.87336L65.6667 0Z" fill="#F4C20D"/>
<path d="M84.6667 0L86.5751 5.87336L92.7507 5.87336L87.7545 9.50329L89.6629 15.3766L84.6667 11.7467L79.6705 15.3766L81.5789 9.50329L76.5827 5.87336L82.7583 5.87336L84.6667 0Z" fill="#F4C20D"/>
</svg>
