<svg width="60" height="61" viewBox="0 0 60 61" fill="none" xmlns="http://www.w3.org/2000/svg">
<path d="M31.2246 14.9231C31.2734 14.5849 31.5773 14.3524 31.907 14.3954C34.9543 14.7573 37.8844 15.8927 40.3801 17.6788C42.45 19.1575 44.2098 21.1032 45.4742 23.3105L46.0289 21.7397C46.143 21.4296 46.4922 21.2655 46.8035 21.3723C46.9527 21.419 47.0758 21.5219 47.1488 21.6618C47.2223 21.8016 47.2364 21.9614 47.1891 22.112C47.1883 22.1153 47.1864 22.1211 47.1844 22.1268L46.1567 25.0309C46.0664 25.278 45.8297 25.4329 45.5797 25.4329C45.5137 25.4329 45.4469 25.4221 45.3813 25.3995L42.3926 24.404C42.2426 24.3573 42.1196 24.2546 42.0461 24.1147C41.9727 23.9751 41.9582 23.8153 42.0055 23.6649L42.0106 23.6487C42.1262 23.3355 42.4719 23.17 42.7864 23.2777L44.3555 23.8013C43.1825 21.7785 41.5614 19.9933 39.6606 18.6325C37.3325 16.9697 34.5997 15.9128 31.7582 15.5765C31.4317 15.5439 31.1918 15.2507 31.2246 14.9231ZM30.3012 48.6843C30.3074 48.8433 30.2516 48.9952 30.1437 49.112C30.0359 49.2292 29.8886 49.2971 29.7296 49.3034C29.7218 49.3038 29.7136 49.3042 29.7058 49.3042C29.6753 49.3042 29.6441 49.3034 29.6132 49.3034C24.8566 49.3034 20.3542 47.4831 16.9312 44.1729C13.9206 41.2745 12.0691 37.3924 11.7101 33.2315L10.5546 34.4377C10.3214 34.6799 9.94217 34.6928 9.69217 34.469C9.57577 34.3651 9.50701 34.2221 9.49841 34.0666C9.48981 33.9111 9.54257 33.7615 9.64645 33.6459C9.65113 33.6401 9.6566 33.6342 9.66244 33.6279L11.7851 31.4053C11.9023 31.2682 12.0757 31.1885 12.2589 31.1885H12.2605C12.4253 31.1885 12.5859 31.2557 12.7011 31.3733L14.991 33.4365C15.2308 33.6518 15.2511 34.0225 15.0355 34.2627L14.9847 34.2439L15.0206 34.2787C14.787 34.5185 14.4093 34.5318 14.16 34.308L12.9339 33.2025C13.2839 37.0537 15.0069 40.6459 17.7944 43.3302C20.9862 46.4158 25.1843 48.1127 29.621 48.1127C29.6499 48.1127 29.6796 48.1123 29.7077 48.1123C30.0237 48.1123 30.2883 48.3639 30.3012 48.6843ZM50.5024 26.746V34.5601C50.4969 34.8901 50.2266 35.1554 49.8977 35.1554H48.1102C48.0024 35.5359 47.7957 35.8808 47.511 36.155C47.0508 36.5975 46.4606 36.8187 45.87 36.8187C45.2797 36.8187 44.6895 36.5976 44.2293 36.155C43.9446 35.88 43.7379 35.5351 43.6301 35.1554H41.8426C41.5141 35.1554 41.2446 34.8901 41.2402 34.5609V32.3163C41.2449 31.9843 41.5227 31.721 41.85 31.7218H41.8547C42.1445 31.7218 42.4195 31.6109 42.6285 31.4089C42.8301 31.216 42.9442 30.9566 42.95 30.6781C42.9562 30.3994 42.8531 30.1349 42.6606 29.9338C42.65 29.9227 42.6391 29.9121 42.6285 29.9017C42.4203 29.7 42.1469 29.5893 41.8574 29.5893C41.8512 29.5889 41.8465 29.5893 41.8426 29.5893C41.5141 29.5893 41.2446 29.324 41.2402 28.9945V26.7492C41.2449 26.4271 41.502 26.1666 41.8195 26.1543L41.8199 26.1539L41.8508 26.1517H49.898C50.2258 26.1517 50.4965 26.4167 50.5024 26.746ZM47.573 33.9647H49.2801L49.2789 27.3427H42.461V28.4747C42.8485 28.5771 43.2039 28.7776 43.4914 29.0563C43.9176 29.4641 44.1594 30.0138 44.1723 30.6038C44.1856 31.1937 43.968 31.7534 43.5598 32.1796C43.5379 32.2031 43.5145 32.2261 43.4914 32.2484C43.2039 32.5269 42.8485 32.7277 42.461 32.8296V33.9624H44.1696C44.3266 33.9624 44.4754 34.0226 44.5887 34.1323C44.7044 34.2448 44.7696 34.3952 44.7719 34.5565C44.7731 34.8393 44.8899 35.1132 45.093 35.3089C45.5289 35.7269 46.2129 35.7269 46.6488 35.3089C46.8528 35.114 46.9699 34.8401 46.9703 34.5577C46.9762 34.2285 47.2457 33.9647 47.573 33.9647ZM46.9312 38.3968V46.2061C46.9289 46.3683 46.864 46.5186 46.7484 46.6311C46.6352 46.7413 46.4863 46.8019 46.3285 46.8019H46.3195L46.209 46.8003H30.2316C30.0746 46.8003 29.9261 46.7401 29.8128 46.6304C29.6972 46.5183 29.632 46.3675 29.6296 46.2065V30.5874C29.6351 30.2569 29.9058 29.9915 30.2343 29.9915H38.2894C38.6175 29.9915 38.8882 30.2569 38.8937 30.5866V32.3151C39.2796 32.4175 39.6347 32.6179 39.9218 32.8964C40.348 33.3042 40.5902 33.8538 40.603 34.444C40.6159 35.0342 40.3984 35.594 39.9902 36.0206C39.9679 36.044 39.9452 36.0667 39.9214 36.0893C39.6343 36.3671 39.2796 36.5675 38.8937 36.6702V37.8022H40.5898C40.9179 37.7971 41.196 38.0616 41.2022 38.3936C41.2034 38.6792 41.3202 38.953 41.5233 39.1491C41.9596 39.5671 42.6436 39.5671 43.0792 39.1491C43.2831 38.9538 43.4002 38.6796 43.4006 38.3975C43.4057 38.0671 43.6756 37.8022 44.0046 37.8022H46.3276C46.6557 37.8022 46.9262 38.0675 46.9312 38.3968ZM38.8938 43.9639L38.8934 45.6097H45.7098V38.9937H44.5426C44.434 39.3733 44.2269 39.7183 43.9422 39.9925C43.0214 40.8788 41.5797 40.8796 40.6582 39.9925C40.3746 39.7183 40.1687 39.3737 40.0605 38.9937H38.8937V40.6394C38.8914 40.8011 38.8265 40.9519 38.7109 41.064C38.5976 41.1741 38.4488 41.2347 38.291 41.2347C38.2867 41.2347 38.284 41.2355 38.2777 41.2347C37.9875 41.2347 37.7125 41.3456 37.5031 41.5472C37.0875 41.9472 37.0742 42.6113 37.4738 43.0273L37.5039 43.0573C37.7125 43.2585 37.9883 43.3695 38.2793 43.3695H38.291C38.6192 43.3695 38.8891 43.6343 38.8938 43.9639ZM37.6707 32.8319V31.1827H30.8528V37.8023H32.0215C32.1282 37.4214 32.3352 37.0757 32.6207 36.8007C33.541 35.9163 34.9824 35.9163 35.9028 36.8007C36.1879 37.0761 36.3946 37.4218 36.502 37.8023H37.6707V36.1542C37.6754 35.8237 37.9449 35.5589 38.2738 35.5589C38.2789 35.5593 38.2844 35.5593 38.2895 35.5589C38.5789 35.5589 38.852 35.448 39.0594 35.246C39.4746 34.848 39.4887 34.1863 39.091 33.771L39.0586 33.7386C38.8516 33.537 38.5778 33.4261 38.2887 33.4261C38.2832 33.4257 38.2785 33.4261 38.2734 33.4261C37.9453 33.4261 37.6758 33.1617 37.6707 32.8319ZM32.5558 38.9937H30.8516L30.852 45.6097H37.6703V44.4804C37.2832 44.3784 36.9274 44.178 36.6395 43.8991C36.2129 43.4901 35.9711 42.9394 35.959 42.3483C35.9465 41.7573 36.1648 41.1968 36.5742 40.7702C36.5957 40.7479 36.6176 40.7257 36.6399 40.7046C36.9282 40.4257 37.2836 40.2253 37.6704 40.1233V38.9937H35.9641C35.636 38.9937 35.3653 38.728 35.3598 38.3983C35.359 38.1147 35.2419 37.8397 35.0384 37.6433C34.6024 37.2245 33.918 37.2245 33.4821 37.6433C33.2778 37.8397 33.161 38.1147 33.1614 38.3975C33.1559 38.7276 32.8848 38.9937 32.5558 38.9937ZM12.4766 24.0452C11.9121 22.8032 11.6219 21.4269 11.6375 20.0642C11.6976 17.6195 12.7531 15.2564 14.5336 13.5804C16.3031 11.828 18.6504 10.8505 21.1422 10.8286C23.6351 10.8497 25.9824 11.8273 27.7523 13.5811C29.5336 15.2555 30.5898 17.6187 30.65 20.0636C30.664 21.4278 30.3738 22.805 29.8113 24.0472C29.2484 25.2544 28.3976 26.3277 27.3507 27.1509C27.0288 27.3991 26.7624 27.7222 26.5796 28.0857C26.4078 28.4493 26.3187 28.8548 26.323 29.2573V32.0226C26.321 32.771 26.0105 33.4972 25.471 34.0151C25.1406 34.3359 24.7347 34.5761 24.2949 34.7116C24.1918 35.3655 23.8734 35.9773 23.396 36.4374C22.7644 37.0441 21.9538 37.3472 21.1437 37.3472C20.3335 37.3472 19.523 37.0441 18.8913 36.4374C18.4144 35.9777 18.096 35.3659 17.9925 34.7113C17.553 34.5757 17.1472 34.3355 16.8175 34.0152C16.2784 33.4972 15.9679 32.771 15.9655 32.0226V29.258C15.9698 28.8543 15.8796 28.4488 15.705 28.0849C15.5245 27.7225 15.2589 27.3994 14.9374 27.1513C13.8886 26.3279 13.0375 25.2538 12.4766 24.0452ZM19.2781 34.844C19.375 35.1276 19.5387 35.3862 19.7543 35.5948C20.5336 36.3413 21.7547 36.3401 22.5332 35.5948C22.7492 35.3858 22.9125 35.1276 23.009 34.844H19.2781ZM17.1887 30.3921V32.0226C17.1898 32.4546 17.3692 32.8737 17.6809 33.1726C18.0004 33.4823 18.4211 33.6531 18.866 33.6531H23.4219C23.866 33.6531 24.286 33.4823 24.6047 33.1726C24.9164 32.8734 25.0957 32.4542 25.0969 32.0226V30.3921H17.1887ZM18.7348 21.2108H19.4191V20.5485C19.4195 20.3725 19.3465 20.2024 19.2187 20.0815C19.089 19.9532 18.9179 19.8831 18.7367 19.8831H18.7336C18.5519 19.8831 18.3808 19.9532 18.2519 20.0807C18.1265 20.1985 18.0546 20.3569 18.0492 20.5276C18.0437 20.6985 18.1054 20.8612 18.2222 20.9858C18.2316 20.9957 18.2414 21.0053 18.2512 21.0145C18.3804 21.1415 18.5504 21.2108 18.7304 21.2108L18.7348 21.2108ZM23.5524 19.8839H23.5199C23.3496 19.8915 23.1898 19.9608 23.0672 20.0809C22.9398 20.2028 22.8668 20.3731 22.866 20.5487V21.2118H23.5524C23.734 21.2118 23.9055 21.1423 24.036 21.0159C24.2934 20.7706 24.3035 20.362 24.0582 20.1046C24.0512 20.097 24.0438 20.0893 24.0364 20.0821C23.9055 19.9546 23.734 19.8843 23.5524 19.8839ZM22.866 29.2015H25.0968C25.1015 28.6419 25.2324 28.0817 25.4769 27.5778C25.7363 27.0528 26.1179 26.5864 26.5804 26.2286C27.4804 25.5195 28.2121 24.5956 28.6957 23.5571C29.1879 22.4677 29.4406 21.2601 29.4262 20.0653C29.368 17.9368 28.443 15.8802 26.8886 14.4237C25.3496 12.8962 23.309 12.0427 21.1422 12.0193C18.9762 12.0425 16.9359 12.896 15.3984 14.4228C13.8426 15.88 12.9176 17.9367 12.8601 20.0661C12.8445 21.2607 13.0972 22.4681 13.5902 23.5575C14.0734 24.5966 14.805 25.5204 15.7058 26.2288C16.1672 26.5872 16.5488 27.0536 16.809 27.5775C17.0519 28.0817 17.1828 28.6421 17.1886 29.2015H19.4191V22.4029H18.7351C18.23 22.4029 17.7519 22.2097 17.3882 21.8587C16.6652 21.1638 16.6425 20.0101 17.3374 19.287C17.3538 19.2698 17.371 19.2527 17.3882 19.2361C18.1437 18.5136 19.3261 18.513 20.0816 19.2359C20.4367 19.5777 20.641 20.056 20.6422 20.5483V29.2009H21.6422V20.5485C21.6437 20.0557 21.8484 19.5772 22.2031 19.2358C22.9586 18.5137 24.141 18.513 24.8964 19.2358C25.6195 19.9268 25.6456 21.0774 24.9546 21.8007C24.9355 21.8204 24.916 21.8399 24.8964 21.8589C24.5343 22.2097 24.0574 22.4028 23.5527 22.4028H22.866L22.866 29.2015Z" fill="url(#paint0_linear_559_2862)"/>
<defs>
<linearGradient id="paint0_linear_559_2862" x1="9.4975" y1="30.0664" x2="49.9142" y2="30.0664" gradientUnits="userSpaceOnUse">
<stop stop-color="#D24141"/>
<stop offset="1" stop-color="#7C33C6"/>
</linearGradient>
</defs>
</svg>
