<svg width="60" height="61" viewBox="0 0 60 61" fill="none" xmlns="http://www.w3.org/2000/svg">
<g id="Trends Analysis">
<path id="Vector" d="M22.9496 14.7094C22.8409 10.925 19.7494 7.84649 16.0582 7.84649C12.2553 7.84649 9.16136 11.0195 9.16136 14.9199C9.16136 18.8203 12.2553 21.9938 16.0582 21.9938C19.861 21.9938 22.9552 18.8203 22.9552 14.9199L22.953 14.8184L22.7586 14.8016L22.954 14.777L22.9496 14.7094ZM17.0168 20.1996V19.8098C17.0168 19.3398 16.6443 18.9578 16.1863 18.9578C15.7283 18.9578 15.356 19.3398 15.356 19.8098V20.2426C13.0829 19.9277 11.2513 18.0945 10.888 15.7715H11.29C11.7478 15.7715 12.1201 15.3894 12.1201 14.9199C12.1201 14.4504 11.7478 14.0684 11.29 14.0684H10.8878C11.2451 11.7707 12.9875 9.98401 15.227 9.61917V9.89809C15.227 10.3676 15.5993 10.7496 16.0571 10.7496C16.5148 10.7496 16.8875 10.3676 16.8875 9.89809V9.61957C19.0697 9.97661 20.8014 11.7086 21.2038 13.936H20.9527C20.4949 13.936 20.1224 14.318 20.1224 14.7879C20.1224 15.2571 20.4949 15.6391 20.9527 15.6391H21.2457C20.946 17.911 19.2136 19.7785 17.0168 20.1996ZM55.0996 54.1121H49.1167V29.6008C49.1167 29.1308 48.7446 28.7488 48.2869 28.7488H40.3372C39.8794 28.7488 39.5069 29.1308 39.5069 29.6008V54.1121H35.0196V36.4449C35.0196 35.9754 34.6471 35.5933 34.1893 35.5933H26.2398C25.7819 35.5933 25.4094 35.9754 25.4094 36.4449V54.1121H20.9221V43.8422C20.9221 43.3726 20.5496 42.9906 20.0918 42.9906H12.1433C11.6855 42.9906 11.313 43.3726 11.313 43.8422V54.1121H5.33027C4.87249 54.1121 4.5 54.4941 4.5 54.9636C4.5 55.4336 4.87249 55.8156 5.33027 55.8156H55.0996C55.5578 55.8156 55.9303 55.4336 55.9303 54.9636C55.9303 54.4941 55.5578 54.1121 55.0996 54.1121ZM47.4562 30.4523V54.1121H41.1678V30.4523H47.4562ZM33.3587 37.2965V54.1121H27.0701V37.2965H33.3587ZM19.2625 44.6941V54.1121H12.9738V44.6941H19.2625ZM17.9501 15.657C18.2725 15.9886 18.2725 16.5289 17.9505 16.8617C17.7924 17.0234 17.5841 17.1121 17.3628 17.1121C17.1419 17.1121 16.9336 17.0234 16.7761 16.8621L15.4703 15.523C15.3131 15.3597 15.227 15.146 15.227 14.921V12.0234C15.227 11.5539 15.5993 11.1718 16.0571 11.1718C16.5148 11.1718 16.8875 11.5539 16.8875 12.0234V14.5668L17.9501 15.657ZM40.0763 18.5937L11.5341 35.4953C11.1384 35.73 11.0019 36.2523 11.2302 36.659C11.3784 36.9218 11.6541 37.0851 11.9496 37.0851C12.094 37.0851 12.2372 37.0457 12.3636 36.9711L40.9065 20.0695L42.8242 23.4769C43.1094 23.9851 43.6198 24.2886 44.1896 24.2886L44.257 24.2878C44.8538 24.2628 45.3642 23.9175 45.6212 23.3636L49.1541 15.7457C49.381 15.257 49.3597 14.7074 49.095 14.2379C48.8303 13.7684 48.3767 13.475 47.8511 13.4328L39.6527 12.7617C39.0651 12.7109 38.5094 12.9934 38.1902 13.5117C37.8703 14.0309 37.8577 14.6582 38.1575 15.1894L40.0763 18.5937ZM39.4311 14.3129L39.5961 14.4191C39.5957 14.4199 39.5957 14.4203 39.5953 14.4207C39.5949 14.4215 39.5941 14.4218 39.5938 14.4226L39.4311 14.3129ZM39.6726 14.4703L47.6051 15.1199L44.188 22.4898L39.6726 14.4703ZM4.50004 14.9199C4.50004 8.38401 9.6845 3.06641 16.057 3.06641C18.633 3.06641 21.0465 3.90233 23.0629 5.48869V4.87385C23.0629 4.40433 23.4354 4.02229 23.8934 4.02229C24.3514 4.02229 24.7235 4.40433 24.7235 4.87385V7.40665C24.7235 7.87617 24.3512 8.25821 23.8934 8.25821H21.4239C20.966 8.25821 20.5935 7.87617 20.5935 7.40665C20.5935 6.93673 20.966 6.55469 21.4239 6.55469H21.6686C20.0231 5.38477 18.0952 4.76953 16.057 4.76953C10.6003 4.76953 6.16078 9.32305 6.16078 14.9199C6.16078 20.5168 10.6003 25.0703 16.057 25.0703C21.5138 25.0703 25.9537 20.5168 25.9537 14.9199C25.9537 13.3293 25.605 11.8062 24.9174 10.3926C24.8181 10.1886 24.8023 9.95781 24.873 9.74177C24.9433 9.52577 25.0914 9.35113 25.29 9.24997C25.4884 9.14801 25.7141 9.13201 25.9245 9.20425C26.135 9.27649 26.3052 9.42845 26.404 9.63197C27.2073 11.282 27.6146 13.0612 27.6146 14.9198C27.6146 21.4562 22.43 26.7738 16.057 26.7738C9.68407 26.7738 4.50004 21.4563 4.50004 14.9199Z" fill="url(#paint0_linear_559_2884)"/>
</g>
<defs>
<linearGradient id="paint0_linear_559_2884" x1="4.5" y1="29.441" x2="55.1926" y2="29.441" gradientUnits="userSpaceOnUse">
<stop stop-color="#D24141"/>
<stop offset="1" stop-color="#7C33C6"/>
</linearGradient>
</defs>
</svg>
