<svg width="60" height="61" viewBox="0 0 60 61" fill="none" xmlns="http://www.w3.org/2000/svg">
<g id="Web 3.0">
<path id="Vector" d="M26.2367 14.8335H29.9569C30.2636 14.8335 30.4534 15.0911 30.4534 15.33C30.4534 15.6223 30.2492 15.8264 29.9569 15.8264H26.7332V17.6594H29.9569C30.2636 17.6594 30.4534 17.9173 30.4534 18.1562C30.4534 18.4485 30.2492 18.6527 29.9569 18.6527H26.7332V20.5212H29.9569C30.2492 20.5212 30.4534 20.7254 30.4534 21.0177C30.4534 21.2566 30.2636 21.5142 29.9569 21.5142H26.2367C25.9297 21.5142 25.7399 21.2566 25.7399 21.0177V15.33C25.7399 15.0911 25.9297 14.8335 26.2367 14.8335ZM22.7313 21.2994H22.7483L22.7649 21.2953C22.9677 21.2446 23.1204 21.0483 23.1185 20.8609L23.9761 15.6076C24.026 15.3587 23.8449 15.1038 23.5765 15.0501C23.301 15.0051 23.0417 15.1778 22.9878 15.4509L22.3267 19.5157L21.0583 17.721C20.9685 17.587 20.8297 17.5162 20.6564 17.5162C20.3959 17.5162 20.2895 17.6288 20.247 17.7318L18.9514 19.5211L18.2885 15.446C18.2646 15.3259 18.193 15.2139 18.0927 15.1385C17.9845 15.0574 17.856 15.026 17.7361 15.0501C17.4783 15.0932 17.2982 15.3112 17.3001 15.6027L18.1608 20.8723C18.2042 21.0456 18.3408 21.2432 18.5483 21.2953L18.6532 21.2994C18.8346 21.2994 18.9823 21.1711 19.0523 21.0984L20.6553 18.8609L22.2397 21.1158C22.3614 21.2375 22.5268 21.2994 22.7313 21.2994ZM33.4667 21.0176V15.33C33.4667 15.0911 33.6565 14.8335 33.9632 14.8335H36.0378C37.1004 14.8335 37.9651 15.6982 37.9651 16.7608C37.9651 17.3097 37.7109 17.8114 37.3157 18.1607C37.7109 18.5165 37.9651 19.0276 37.9651 19.5868C37.9651 20.6316 37.0825 21.5142 36.0378 21.5142H33.9632C33.6565 21.5142 33.4667 21.2565 33.4667 21.0176ZM36.0377 17.6594C36.5443 17.6594 36.9721 17.2478 36.9721 16.7608C36.9721 16.2456 36.5529 15.8264 36.0377 15.8264H34.4596V17.6594H36.0377ZM34.4597 20.5212H36.0378C36.5356 20.5212 36.9722 20.0846 36.9722 19.5868C36.9722 19.0892 36.5356 18.6526 36.0378 18.6526H34.4597V20.5212ZM27.6673 26.5665H27.596C27.3571 26.5665 27.0995 26.7563 27.0995 27.063C27.0995 27.3696 27.3571 27.5594 27.596 27.5594H27.6673C27.9062 27.5594 28.1641 27.3696 28.1641 27.063C28.1641 26.7563 27.9062 26.5665 27.6673 26.5665ZM25.4455 25.0239C25.4455 23.8625 24.5168 22.9176 23.3749 22.9176C22.2331 22.9176 21.2686 23.882 21.2686 25.0239C21.2686 25.279 21.5099 25.5204 21.7654 25.5204C22.0721 25.5204 22.2619 25.2628 22.2619 25.0239C22.2619 24.4206 22.7716 23.9108 23.3749 23.9108C23.969 23.9108 24.4522 24.41 24.4522 25.0239C24.4522 25.628 23.9791 26.1012 23.3749 26.1012C23.0683 26.1012 22.8785 26.3588 22.8785 26.5976C22.8785 26.8902 23.0826 27.0944 23.3749 27.0944C23.969 27.0944 24.4522 27.5936 24.4522 28.2075C24.4522 28.8116 23.9791 29.285 23.3749 29.285C22.7611 29.285 22.2619 28.8016 22.2619 28.2075C22.2619 27.9152 22.0577 27.711 21.7654 27.711C21.5265 27.711 21.2686 27.9008 21.2686 28.2075C21.2686 29.3493 22.2136 30.278 23.3749 30.278C24.5167 30.278 25.4455 29.3493 25.4455 28.2075C25.4455 27.5749 25.1795 26.9979 24.7093 26.5976C25.1733 26.202 25.4455 25.6261 25.4455 25.0239ZM31.7096 22.9534C32.9697 22.9534 33.9946 23.9624 33.9946 25.2026V27.993C33.9946 29.2531 32.9697 30.278 31.7096 30.278C30.4694 30.278 29.4601 29.2531 29.4601 27.993V25.2026C29.4601 23.9415 30.4482 22.9534 31.7096 22.9534ZM31.7096 29.285C32.4219 29.285 33.0017 28.7053 33.0017 27.993V25.2026C33.0017 24.4984 32.4341 23.9466 31.7096 23.9466C31.0052 23.9466 30.4534 24.4984 30.4534 25.2026V27.993C30.4534 28.7175 31.0052 29.285 31.7096 29.285ZM53.4953 24.7254C53.4931 26.7211 52.8507 28.6638 51.6608 30.2687C50.4709 31.8736 48.7997 33.0526 46.8901 33.6353V39.2959C48.4354 39.669 49.4575 41.1392 49.2699 42.7177C49.0823 44.2961 47.7422 45.4839 46.1527 45.4839C44.5633 45.4839 43.2255 44.2962 43.0378 42.7177C42.8501 41.1392 43.8722 39.669 45.4176 39.2959V33.9512C45.0091 34.0064 44.5985 34.0329 44.188 34.0329H40.6094V40.1434C40.6094 40.4061 40.4681 40.6489 40.2407 40.7792L36.7306 42.808V48.221C36.7306 48.6272 36.4016 48.9584 35.9954 48.9584C35.5892 48.9584 35.2581 48.6272 35.2581 48.221V42.3819C35.2603 42.1192 35.3993 41.8764 35.6267 41.7439H35.6245L39.1347 39.7151V34.0325H35.6555V38.7325C35.6555 39.1387 35.3265 39.4677 34.9203 39.4677C34.5141 39.4677 34.1851 39.1387 34.1851 38.7325V34.0325H29.2268V38.7325C29.2158 39.1299 28.8891 39.4478 28.4895 39.4478C28.0921 39.4478 27.7653 39.1299 27.7543 38.7325V34.0325H22.6149V40.4831L27.7741 43.4634C28.0015 43.5958 28.1428 43.8387 28.1406 44.1014V50.89C29.6859 51.2631 30.7081 52.7334 30.5204 54.3118C30.3328 55.8902 28.995 57.078 27.4055 57.078C25.8159 57.078 24.4781 55.8903 24.2905 54.3118C24.1028 52.7334 25.1249 51.2631 26.6703 50.89V44.5252L21.5111 41.5472C21.2815 41.4147 21.1424 41.1719 21.1424 40.9092V34.0324H16.5748V42.2384C16.5748 42.5011 16.4335 42.7439 16.2061 42.8764L11.6319 45.5167C12.0823 47.04 11.3228 48.6604 9.86359 49.2896C8.40215 49.9166 6.70451 49.3536 5.90751 47.9782C5.11059 46.6029 5.47043 44.85 6.74203 43.8963C8.01363 42.9426 9.79743 43.0927 10.8946 44.2429L15.1001 41.8145V34.0307H13.8064C13.0293 34.0307 12.2523 33.9336 11.4973 33.7415V38.8566C11.4862 39.2561 11.1617 39.5718 10.7621 39.5718C10.3625 39.5718 10.038 39.2561 10.0247 38.8566V38.8588V33.2978C10.0247 33.2757 10.0291 33.2536 10.0291 33.2315C8.02903 32.3441 6.40639 30.7811 5.44391 28.8163C4.48359 26.8494 4.24739 24.6086 4.77499 22.4849C5.30263 20.3634 6.56319 18.4935 8.33151 17.2065C7.67147 14.0252 8.35803 10.7118 10.2279 8.05156C12.0951 5.3936 14.9829 3.62749 18.2016 3.17053C21.4179 2.71577 24.6808 3.61201 27.2152 5.64749C29.2153 3.57897 32.2772 2.94317 34.9352 4.04477C37.5932 5.14861 39.3063 7.76473 39.2533 10.6412C42.6685 10.2902 45.8387 12.4603 46.7416 15.774C48.6843 16.3347 50.3909 17.5114 51.6095 19.1252C52.8258 20.739 53.4881 22.7038 53.4947 24.7259L53.4953 24.7254ZM8.61831 48.0696C9.53887 48.0696 10.2851 47.3256 10.2851 46.405C10.2851 45.7316 9.87891 45.1246 9.25631 44.8663C8.63379 44.608 7.91851 44.7515 7.44167 45.2261C6.96483 45.7029 6.82355 46.4204 7.07963 47.043C7.33795 47.6655 7.94495 48.0696 8.61831 48.0696ZM29.0679 53.9444C29.0679 53.0238 28.3239 52.2776 27.4033 52.2776C26.7299 52.2776 26.1229 52.6838 25.8646 53.3064C25.6063 53.9289 25.7476 54.6442 26.2244 55.121C26.7012 55.5979 27.4187 55.7392 28.0413 55.4831C28.6638 55.2248 29.0679 54.6177 29.0679 53.9444ZM47.8197 42.3474C47.8197 41.4268 47.0735 40.6807 46.1529 40.6807C45.4795 40.6807 44.8725 41.0868 44.6141 41.7094C44.3558 42.332 44.4994 43.0472 44.9762 43.5241C45.453 44.0009 46.1683 44.1444 46.7908 43.8861C47.4133 43.6278 47.8197 43.0208 47.8197 42.3474ZM44.1883 32.5651C48.1729 32.5673 51.5241 29.5782 51.9767 25.6199C52.4311 21.6615 49.8416 17.9925 45.9606 17.0918C45.6781 17.0278 45.4617 16.8026 45.4065 16.52C45.1063 15.0343 44.2099 13.7362 42.9273 12.9304C41.6447 12.1224 40.0861 11.8773 38.6181 12.2504C38.3775 12.31 38.1213 12.246 37.9381 12.0782C37.7571 11.9104 37.671 11.6632 37.7108 11.4182C38.1214 8.91712 36.7833 6.45781 34.4611 5.44677C32.1389 4.43573 29.4257 5.13109 27.8759 7.13341C27.7501 7.29676 27.5625 7.40053 27.3571 7.4182C27.1518 7.43588 26.9487 7.36521 26.7964 7.22613C24.6042 5.21717 21.6482 4.25245 18.6921 4.58581C15.7358 4.91921 13.0691 6.51529 11.3802 8.96352C9.68911 11.4095 9.13943 14.4695 9.87455 17.3526C9.95183 17.6573 9.82599 17.9774 9.56327 18.1496C6.64035 20.0304 5.30695 23.6133 6.28935 26.9468C7.27215 30.2802 10.3317 32.5674 13.8064 32.5652L44.1883 32.5651Z" fill="url(#paint0_linear_559_2951)"/>
</g>
<defs>
<linearGradient id="paint0_linear_559_2951" x1="4.5" y1="30.0664" x2="52.7925" y2="30.0664" gradientUnits="userSpaceOnUse">
<stop stop-color="#D24141"/>
<stop offset="1" stop-color="#7C33C6"/>
</linearGradient>
</defs>
</svg>
