<svg width="76" height="76" viewBox="0 0 76 76" fill="none" xmlns="http://www.w3.org/2000/svg">
<g clip-path="url(#clip0_549_1061)">
<path fill-rule="evenodd" clip-rule="evenodd" d="M30.153 47.9274L30.1506 26.4222L50.6849 37.2119L30.153 47.9274ZM75.24 22.6957C75.24 22.6957 74.4966 17.4217 72.219 15.0992C69.3286 12.0496 66.0891 12.0353 64.6047 11.8583C53.9695 11.0833 38.0166 11.0833 38.0166 11.0833H37.9834C37.9834 11.0833 22.0305 11.0833 11.3953 11.8583C9.90851 12.0353 6.67138 12.0496 3.77863 15.0992C1.50101 17.4217 0.759995 22.6957 0.759995 22.6957C0.759995 22.6957 1.43051e-06 28.8906 1.43051e-06 35.0831V40.8905C1.43051e-06 47.0854 0.759995 53.2779 0.759995 53.2779C0.759995 53.2779 1.50101 58.5519 3.77863 60.8744C6.67138 63.924 10.469 63.8284 12.16 64.1465C18.24 64.7349 38 64.9166 38 64.9166C38 64.9166 53.9695 64.8927 64.6047 64.1178C66.0891 63.9384 69.3286 63.924 72.219 60.8744C74.4966 58.5519 75.24 53.2779 75.24 53.2779C75.24 53.2779 76 47.0854 76 40.8905V35.0831C76 28.8906 75.24 22.6957 75.24 22.6957Z" fill="#CE1312"/>
</g>
<defs>
<clipPath id="clip0_549_1061">
<rect width="76" height="76" fill="white"/>
</clipPath>
</defs>
</svg>
